<svg width="785" height="229" viewBox="0 0 785 229" fill="none" xmlns="http://www.w3.org/2000/svg">
<path d="M42.2909 227.237V228.016H36.3142V227.395L39.8564 223.926C40.3025 223.488 40.6024 223.111 40.7572 222.794C40.9189 222.47 41.0006 222.145 41.0006 221.82C41.0006 221.317 40.8259 220.928 40.4772 220.652C40.1364 220.368 39.6451 220.226 39.0043 220.226C38.0062 220.226 37.2306 220.542 36.6794 221.175L36.0586 220.64C36.4024 220.242 36.8365 219.934 37.3245 219.739C37.8436 219.528 38.4279 219.422 39.0774 219.422C39.9451 219.422 40.6311 219.629 41.1345 220.043C41.6458 220.449 41.9014 221.009 41.9014 221.723C41.9014 222.161 41.804 222.583 41.6093 222.989C41.4145 223.395 41.045 223.861 40.5016 224.389L37.6045 227.237H42.2909ZM46.7391 228.089C46.1113 228.098 45.4957 227.915 44.9741 227.566C44.4629 227.217 44.0612 226.718 43.769 226.069C43.4847 225.411 43.343 224.64 43.343 223.756C43.343 222.872 43.4847 222.105 43.769 221.455C44.0612 220.798 44.4629 220.295 44.9741 219.946C45.4957 219.596 46.1113 219.414 46.7391 219.422C47.3965 219.422 47.9807 219.597 48.492 219.946C49.0111 220.295 49.4171 220.798 49.7092 221.455C50.0014 222.105 50.1474 222.872 50.1474 223.756C50.1474 224.64 50.0014 225.411 49.7092 226.069C49.4171 226.718 49.0111 227.217 48.492 227.566C47.9807 227.915 47.3965 228.089 46.7391 228.089ZM46.7391 227.286C47.2347 227.286 47.6686 227.148 48.0416 226.872C48.4233 226.596 48.7198 226.195 48.9302 225.667C49.1415 225.139 49.2467 224.503 49.2467 223.756C49.2467 223.009 49.1415 222.373 48.9302 221.845C48.7189 221.317 48.4233 220.915 48.0416 220.64C47.6646 220.363 47.2069 220.217 46.7391 220.226C46.2435 220.226 45.8062 220.364 45.4245 220.64C45.0506 220.915 44.7594 221.317 44.5481 221.845C44.3368 222.373 44.2316 223.009 44.2316 223.756C44.2316 224.503 44.3368 225.139 44.5481 225.667C44.7594 226.195 45.0515 226.596 45.4245 226.872C45.8062 227.148 46.2444 227.286 46.7391 227.286ZM53.7401 219.496V228.016H52.8637V220.275H50.8552V219.496H53.7401ZM61.7905 219.496V220.116L58.2239 228.016H57.2745L60.7802 220.275H56.3981V221.869H55.5338V219.496H61.7905ZM68.235 225.74H63.4877L62.4652 228.016H61.5288L65.424 219.496H66.3126L70.2078 228.016H69.2584L68.2359 225.74H68.235ZM67.9063 225.01L65.8613 220.433L63.8164 225.01H67.9063ZM154.65 227.237V228.016H148.673V227.395L152.215 223.926C152.662 223.488 152.962 223.111 153.116 222.794C153.273 222.493 153.356 222.16 153.359 221.82C153.359 221.317 153.185 220.928 152.836 220.652C152.495 220.368 152.005 220.226 151.363 220.226C150.365 220.226 149.59 220.542 149.038 221.175L148.417 220.64C148.761 220.242 149.195 219.934 149.683 219.739C150.203 219.528 150.787 219.422 151.436 219.422C152.305 219.422 152.991 219.629 153.493 220.043C154.005 220.449 154.26 221.009 154.26 221.723C154.26 222.161 154.163 222.583 153.968 222.989C153.773 223.395 153.405 223.861 152.86 224.389L149.963 227.237H154.65ZM159.099 228.089C158.471 228.098 157.855 227.915 157.334 227.566C156.822 227.217 156.421 226.718 156.129 226.069C155.844 225.411 155.703 224.64 155.703 223.756C155.703 222.872 155.844 222.105 156.129 221.455C156.421 220.798 156.822 220.295 157.334 219.946C157.855 219.596 158.471 219.414 159.099 219.422C159.756 219.422 160.34 219.597 160.852 219.946C161.371 220.295 161.777 220.798 162.069 221.455C162.361 222.105 162.507 222.872 162.507 223.756C162.507 224.64 162.361 225.411 162.069 226.069C161.777 226.718 161.371 227.217 160.852 227.566C160.34 227.915 159.756 228.089 159.099 228.089ZM159.099 227.286C159.593 227.286 160.027 227.148 160.401 226.872C160.782 226.596 161.079 226.195 161.29 225.667C161.5 225.139 161.606 224.503 161.606 223.756C161.606 223.009 161.5 222.373 161.29 221.845C161.079 221.317 160.782 220.915 160.401 220.64C160.024 220.363 159.567 220.217 159.099 220.226C158.603 220.226 158.165 220.364 157.784 220.64C157.41 220.915 157.118 221.317 156.908 221.845C156.696 222.373 156.591 223.009 156.591 223.756C156.591 224.503 156.696 225.139 156.908 225.667C157.118 226.195 157.41 226.596 157.784 226.872C158.165 227.148 158.603 227.286 159.099 227.286ZM166.1 219.496V228.016H165.223V220.275H163.215V219.496H166.1ZM173.017 223.549C173.553 223.727 173.963 223.995 174.247 224.352C174.539 224.71 174.685 225.139 174.685 225.643C174.685 226.137 174.551 226.572 174.283 226.945C174.015 227.31 173.63 227.595 173.127 227.797C172.632 227.992 172.048 228.089 171.374 228.089C170.351 228.089 169.548 227.87 168.964 227.432C168.379 226.994 168.087 226.397 168.087 225.643C168.087 225.131 168.226 224.701 168.501 224.352C168.785 223.995 169.195 223.727 169.731 223.549C169.292 223.379 168.96 223.135 168.732 222.819C168.505 222.494 168.392 222.113 168.392 221.674C168.392 220.985 168.659 220.437 169.195 220.031C169.739 219.625 170.465 219.422 171.374 219.422C171.975 219.422 172.498 219.515 172.944 219.702C173.399 219.881 173.752 220.141 174.003 220.481C174.255 220.822 174.38 221.22 174.38 221.674C174.38 222.113 174.263 222.494 174.027 222.819C173.793 223.135 173.455 223.379 173.017 223.549ZM169.268 221.699C169.268 222.169 169.455 222.543 169.828 222.819C170.202 223.094 170.717 223.232 171.374 223.232C172.031 223.232 172.547 223.094 172.92 222.819C173.301 222.543 173.492 222.173 173.492 221.711C173.499 221.488 173.448 221.267 173.346 221.069C173.244 220.871 173.093 220.702 172.908 220.579C172.527 220.303 172.016 220.165 171.374 220.165C170.725 220.165 170.21 220.303 169.828 220.579C169.455 220.854 169.268 221.228 169.268 221.699ZM171.374 227.347C172.129 227.347 172.717 227.193 173.139 226.884C173.569 226.576 173.784 226.158 173.784 225.63C173.784 225.103 173.569 224.689 173.139 224.389C172.717 224.08 172.129 223.926 171.374 223.926C170.628 223.926 170.039 224.08 169.609 224.389C169.187 224.689 168.976 225.103 168.976 225.63C168.976 226.166 169.187 226.588 169.609 226.896C170.031 227.196 170.619 227.347 171.374 227.347ZM181.938 225.74H177.191L176.168 228.016H175.231L179.126 219.496H180.015L183.91 228.016H182.96L181.938 225.74ZM181.609 225.01L179.564 220.433L177.519 225.01H181.609ZM268.3 227.237V228.016H262.323V227.395L265.865 223.926C266.311 223.488 266.612 223.111 266.766 222.794C266.922 222.493 267.006 222.16 267.009 221.82C267.009 221.317 266.834 220.928 266.486 220.652C266.145 220.368 265.654 220.226 265.013 220.226C264.015 220.226 263.24 220.542 262.688 221.175L262.067 220.64C262.411 220.242 262.845 219.934 263.333 219.739C263.852 219.528 264.436 219.422 265.086 219.422C265.955 219.422 266.64 219.629 267.143 220.043C267.654 220.449 267.91 221.009 267.91 221.723C267.91 222.161 267.813 222.583 267.618 222.989C267.423 223.395 267.054 223.861 266.51 224.389L263.613 227.237H268.3ZM272.748 228.089C272.12 228.098 271.504 227.915 270.983 227.566C270.471 227.217 270.07 226.718 269.778 226.069C269.494 225.411 269.352 224.64 269.352 223.756C269.352 222.872 269.494 222.105 269.778 221.455C270.07 220.798 270.471 220.295 270.983 219.946C271.504 219.596 272.12 219.414 272.748 219.422C273.405 219.422 273.989 219.597 274.501 219.946C275.021 220.295 275.426 220.798 275.718 221.455C276.01 222.105 276.156 222.872 276.156 223.756C276.156 224.64 276.01 225.411 275.718 226.069C275.426 226.718 275.021 227.217 274.501 227.566C273.989 227.915 273.405 228.089 272.748 228.089ZM272.748 227.286C273.243 227.286 273.677 227.148 274.05 226.872C274.432 226.596 274.728 226.195 274.939 225.667C275.15 225.139 275.255 224.503 275.255 223.756C275.255 223.009 275.15 222.373 274.939 221.845C274.728 221.317 274.432 220.915 274.05 220.64C273.673 220.363 273.216 220.217 272.748 220.226C272.253 220.226 271.815 220.364 271.433 220.64C271.06 220.915 270.768 221.317 270.557 221.845C270.346 222.373 270.24 223.009 270.24 223.756C270.24 224.503 270.346 225.139 270.557 225.667C270.768 226.195 271.06 226.596 271.433 226.872C271.815 227.148 272.253 227.286 272.748 227.286ZM279.75 219.496V228.016H278.873V220.275H276.865V219.496H279.75ZM284.439 219.422C285.568 219.422 286.432 219.795 287.032 220.542C287.633 221.281 287.933 222.327 287.933 223.683C287.933 224.632 287.771 225.436 287.446 226.093C287.122 226.75 286.667 227.249 286.083 227.59C285.498 227.923 284.817 228.089 284.038 228.089C283.194 228.089 282.521 227.935 282.017 227.627L282.37 226.921C282.776 227.189 283.328 227.322 284.026 227.322C284.967 227.322 285.705 227.026 286.241 226.434C286.777 225.833 287.044 224.965 287.044 223.829C287.044 223.618 287.032 223.386 287.008 223.135C286.797 223.598 286.46 223.958 285.998 224.218C285.535 224.47 285.004 224.596 284.403 224.596C283.843 224.596 283.344 224.491 282.906 224.279C282.493 224.083 282.143 223.775 281.895 223.391C281.652 223.001 281.53 222.551 281.53 222.04C281.53 221.52 281.656 221.061 281.908 220.664C282.16 220.267 282.504 219.962 282.942 219.751C283.409 219.528 283.922 219.415 284.439 219.422ZM284.537 223.853C284.967 223.853 285.345 223.772 285.669 223.61C285.985 223.462 286.254 223.231 286.448 222.94C286.635 222.656 286.728 222.34 286.728 221.991C286.728 221.667 286.639 221.366 286.46 221.09C286.29 220.814 286.034 220.591 285.693 220.421C285.352 220.25 284.947 220.165 284.476 220.165C283.86 220.165 283.356 220.335 282.967 220.676C282.586 221.009 282.394 221.455 282.394 222.015C282.394 222.575 282.586 223.021 282.967 223.354C283.356 223.687 283.88 223.853 284.537 223.853ZM295.219 225.74H290.472L289.449 228.016H288.512L292.407 219.496H293.296L297.191 228.016H296.242L295.219 225.74ZM294.89 225.01L292.845 220.433L290.8 225.01H294.89ZM381.327 227.237V228.016H375.35V227.395L378.892 223.926C379.339 223.488 379.639 223.111 379.793 222.794C379.95 222.493 380.033 222.16 380.037 221.82C380.037 221.317 379.863 220.928 379.513 220.652C379.172 220.368 378.682 220.226 378.04 220.226C377.042 220.226 376.267 220.542 375.715 221.175L375.095 220.64C375.438 220.242 375.872 219.934 376.36 219.739C376.88 219.528 377.465 219.422 378.113 219.422C378.982 219.422 379.668 219.629 380.17 220.043C380.682 220.449 380.937 221.009 380.937 221.723C380.937 222.161 380.84 222.583 380.645 222.989C380.45 223.395 380.082 223.861 379.538 224.389L376.64 227.237H381.327ZM385.776 228.089C385.148 228.098 384.533 227.915 384.011 227.566C383.5 227.217 383.098 226.718 382.806 226.069C382.522 225.411 382.38 224.64 382.38 223.756C382.38 222.872 382.522 222.105 382.806 221.455C383.098 220.798 383.5 220.295 384.011 219.946C384.533 219.596 385.148 219.414 385.776 219.422C386.433 219.422 387.018 219.597 387.529 219.946C388.048 220.295 388.454 220.798 388.746 221.455C389.038 222.105 389.184 222.872 389.184 223.756C389.184 224.64 389.038 225.411 388.746 226.069C388.454 226.718 388.048 227.217 387.529 227.566C387.018 227.915 386.433 228.089 385.776 228.089ZM385.776 227.286C386.271 227.286 386.705 227.148 387.078 226.872C387.459 226.596 387.756 226.195 387.967 225.667C388.177 225.139 388.283 224.503 388.283 223.756C388.283 223.009 388.177 222.373 387.967 221.845C387.756 221.317 387.459 220.915 387.078 220.64C386.701 220.363 386.244 220.217 385.776 220.226C385.28 220.226 384.842 220.364 384.461 220.64C384.087 220.915 383.795 221.317 383.585 221.845C383.374 222.373 383.268 223.009 383.268 223.756C383.268 224.503 383.374 225.139 383.585 225.667C383.795 226.195 384.087 226.596 384.461 226.872C384.842 227.148 385.28 227.286 385.776 227.286ZM396.234 227.237V228.016H390.257V227.395L393.799 223.926C394.245 223.488 394.545 223.111 394.7 222.794C394.862 222.47 394.944 222.145 394.944 221.82C394.944 221.317 394.769 220.928 394.42 220.652C394.079 220.368 393.588 220.226 392.947 220.226C391.949 220.226 391.174 220.542 390.622 221.175L390.002 220.64C390.345 220.242 390.779 219.933 391.267 219.739C391.787 219.528 392.371 219.422 393.02 219.422C393.888 219.422 394.574 219.629 395.078 220.043C395.589 220.449 395.844 221.009 395.844 221.723C395.844 222.161 395.747 222.583 395.552 222.989C395.357 223.395 394.988 223.861 394.445 224.389L391.547 227.237H396.234ZM400.682 228.089C400.054 228.098 399.439 227.915 398.917 227.566C398.406 227.217 398.004 226.718 397.712 226.069C397.428 225.411 397.286 224.64 397.286 223.756C397.286 222.872 397.428 222.105 397.712 221.455C398.004 220.798 398.406 220.295 398.917 219.946C399.439 219.596 400.054 219.414 400.682 219.422C401.339 219.422 401.924 219.597 402.435 219.946C402.954 220.295 403.36 220.798 403.652 221.455C403.944 222.105 404.09 222.872 404.09 223.756C404.09 224.64 403.944 225.411 403.652 226.069C403.36 226.718 402.954 227.217 402.435 227.566C401.924 227.915 401.339 228.089 400.682 228.089ZM400.682 227.286C401.177 227.286 401.612 227.148 401.985 226.872C402.366 226.596 402.662 226.195 402.873 225.667C403.084 225.139 403.19 224.503 403.19 223.756C403.19 223.009 403.084 222.373 402.873 221.845C402.662 221.317 402.366 220.915 401.985 220.64C401.608 220.363 401.15 220.217 400.682 220.226C400.187 220.226 399.749 220.364 399.367 220.64C398.994 220.915 398.702 221.317 398.491 221.845C398.28 222.373 398.175 223.009 398.175 223.756C398.175 224.503 398.28 225.139 398.491 225.667C398.702 226.195 398.994 226.596 399.367 226.872C399.749 227.148 400.187 227.286 400.682 227.286ZM412.126 227.237V228.016H406.101V219.496H411.943V220.275H407.001V223.306H411.408V224.072H407.001V227.237H412.126ZM492.687 227.237V228.016H486.71V227.395L490.252 223.926C490.699 223.488 490.999 223.111 491.153 222.794C491.309 222.493 491.393 222.16 491.396 221.82C491.396 221.317 491.222 220.928 490.873 220.652C490.532 220.368 490.042 220.226 489.4 220.226C488.402 220.226 487.627 220.542 487.075 221.175L486.454 220.64C486.798 220.242 487.232 219.934 487.72 219.739C488.24 219.528 488.824 219.422 489.473 219.422C490.342 219.422 491.028 219.629 491.53 220.043C492.041 220.449 492.297 221.009 492.297 221.723C492.297 222.161 492.2 222.583 492.005 222.989C491.81 223.395 491.441 223.861 490.897 224.389L488 227.237H492.687ZM497.136 228.089C496.508 228.098 495.892 227.915 495.371 227.566C494.859 227.217 494.458 226.718 494.166 226.069C493.881 225.411 493.74 224.64 493.74 223.756C493.74 222.872 493.881 222.105 494.166 221.455C494.458 220.798 494.859 220.295 495.371 219.946C495.892 219.596 496.508 219.414 497.136 219.422C497.793 219.422 498.377 219.597 498.888 219.946C499.408 220.295 499.814 220.798 500.106 221.455C500.398 222.105 500.544 222.872 500.544 223.756C500.544 224.64 500.398 225.411 500.106 226.069C499.814 226.718 499.408 227.217 498.888 227.566C498.377 227.915 497.793 228.089 497.136 228.089ZM497.136 227.286C497.63 227.286 498.064 227.148 498.438 226.872C498.819 226.596 499.115 226.195 499.327 225.667C499.537 225.139 499.643 224.503 499.643 223.756C499.643 223.009 499.537 222.373 499.327 221.845C499.115 221.317 498.819 220.915 498.438 220.64C498.061 220.363 497.603 220.217 497.136 220.226C496.64 220.226 496.202 220.364 495.821 220.64C495.447 220.915 495.155 221.317 494.945 221.845C494.733 222.373 494.628 223.009 494.628 223.756C494.628 224.503 494.733 225.139 494.945 225.667C495.155 226.195 495.447 226.596 495.821 226.872C496.202 227.148 496.64 227.286 497.136 227.286ZM507.594 227.237V228.016H501.617V227.395L505.159 223.926C505.605 223.488 505.906 223.111 506.06 222.794C506.217 222.493 506.3 222.16 506.303 221.82C506.303 221.317 506.129 220.928 505.78 220.652C505.439 220.368 504.948 220.226 504.307 220.226C503.309 220.226 502.534 220.542 501.982 221.175L501.361 220.64C501.705 220.242 502.139 219.934 502.627 219.739C503.146 219.528 503.731 219.422 504.38 219.422C505.249 219.422 505.934 219.629 506.437 220.043C506.948 220.449 507.204 221.009 507.204 221.723C507.204 222.161 507.107 222.583 506.912 222.989C506.717 223.395 506.348 223.861 505.804 224.389L502.907 227.237H507.594ZM511.055 219.496V228.016H510.179V220.275H508.17V219.496H511.055ZM519.871 227.237V228.016H513.846V219.496H519.689V220.275H514.747V223.306H519.153V224.072H514.747V227.237H519.871ZM606.631 227.237V228.016H600.654V227.395L604.197 223.926C604.643 223.488 604.944 223.111 605.097 222.794C605.254 222.493 605.338 222.16 605.341 221.82C605.341 221.317 605.166 220.928 604.818 220.652C604.477 220.368 603.985 220.226 603.345 220.226C602.346 220.226 601.572 220.542 601.02 221.175L600.399 220.64C600.743 220.242 601.177 219.934 601.665 219.739C602.184 219.528 602.768 219.422 603.418 219.422C604.286 219.422 604.971 219.629 605.475 220.043C605.986 220.449 606.242 221.009 606.242 221.723C606.242 222.161 606.144 222.583 605.95 222.989C605.755 223.395 605.385 223.861 604.842 224.389L601.945 227.237H606.631ZM611.079 228.089C610.452 228.098 609.836 227.915 609.314 227.566C608.803 227.217 608.401 226.718 608.109 226.069C607.826 225.411 607.683 224.64 607.683 223.756C607.683 222.872 607.826 222.105 608.109 221.455C608.401 220.798 608.803 220.295 609.314 219.946C609.836 219.596 610.452 219.414 611.079 219.422C611.737 219.422 612.321 219.597 612.832 219.946C613.352 220.295 613.757 220.798 614.049 221.455C614.342 222.105 614.488 222.872 614.488 223.756C614.488 224.64 614.342 225.411 614.049 226.069C613.757 226.718 613.352 227.217 612.832 227.566C612.321 227.915 611.737 228.089 611.079 228.089ZM611.079 227.286C611.575 227.286 612.009 227.148 612.382 226.872C612.764 226.596 613.06 226.195 613.27 225.667C613.482 225.139 613.587 224.503 613.587 223.756C613.587 223.009 613.482 222.373 613.27 221.845C613.06 221.317 612.764 220.915 612.382 220.64C612.005 220.363 611.547 220.217 611.079 220.226C610.585 220.226 610.146 220.364 609.765 220.64C609.392 220.915 609.1 221.317 608.888 221.845C608.678 222.373 608.572 223.009 608.572 223.756C608.572 224.503 608.678 225.139 608.888 225.667C609.1 226.195 609.392 226.596 609.765 226.872C610.146 227.148 610.585 227.286 611.079 227.286ZM621.538 227.237V228.016H615.562V227.395L619.104 223.926C619.55 223.488 619.85 223.111 620.005 222.794C620.166 222.47 620.248 222.145 620.248 221.82C620.248 221.317 620.073 220.928 619.725 220.652C619.384 220.368 618.892 220.226 618.252 220.226C617.253 220.226 616.478 220.542 615.927 221.175L615.306 220.64C615.65 220.242 616.084 219.933 616.572 219.739C617.091 219.528 617.675 219.422 618.325 219.422C619.192 219.422 619.878 219.629 620.382 220.043C620.893 220.449 621.149 221.009 621.149 221.723C621.149 222.161 621.051 222.583 620.857 222.989C620.662 223.395 620.292 223.861 619.749 224.389L616.852 227.237H621.538ZM628.457 227.237V228.016H622.48V227.395L626.022 223.926C626.468 223.488 626.768 223.111 626.923 222.794C627.085 222.47 627.166 222.145 627.166 221.82C627.166 221.317 626.992 220.928 626.643 220.652C626.302 220.368 625.811 220.226 625.17 220.226C624.172 220.226 623.396 220.542 622.845 221.175L622.224 220.64C622.568 220.242 623.002 219.933 623.49 219.739C624.009 219.528 624.594 219.422 625.243 219.422C626.111 219.422 626.797 219.629 627.3 220.043C627.811 220.449 628.067 221.009 628.067 221.723C628.067 222.161 627.97 222.583 627.775 222.989C627.58 223.395 627.211 223.861 626.667 224.389L623.77 227.237H628.457ZM636.337 227.237V228.016H630.311V219.496H636.154V220.275H631.212V223.306H635.618V224.072H631.212V227.237H636.337ZM719.685 227.237V228.016H713.709V227.395L717.251 223.926C717.698 223.488 717.998 223.111 718.152 222.794C718.308 222.493 718.392 222.16 718.395 221.82C718.395 221.317 718.221 220.928 717.872 220.652C717.531 220.368 717.041 220.226 716.399 220.226C715.401 220.226 714.626 220.542 714.074 221.175L713.453 220.64C713.797 220.242 714.231 219.934 714.719 219.739C715.239 219.528 715.823 219.422 716.472 219.422C717.341 219.422 718.027 219.629 718.529 220.043C719.04 220.449 719.296 221.009 719.296 221.723C719.296 222.161 719.199 222.583 719.004 222.989C718.809 223.395 718.44 223.861 717.896 224.389L714.999 227.237H719.685ZM724.135 228.089C723.507 228.098 722.891 227.915 722.37 227.566C721.858 227.217 721.457 226.718 721.164 226.069C720.88 225.411 720.738 224.64 720.738 223.756C720.738 222.872 720.88 222.105 721.164 221.455C721.457 220.798 721.858 220.295 722.37 219.946C722.891 219.596 723.507 219.414 724.135 219.422C724.792 219.422 725.376 219.597 725.887 219.946C726.406 220.295 726.813 220.798 727.105 221.455C727.397 222.105 727.543 222.872 727.543 223.756C727.543 224.64 727.397 225.411 727.105 226.069C726.813 226.718 726.406 227.217 725.887 227.566C725.376 227.915 724.792 228.089 724.135 228.089ZM724.135 227.286C724.629 227.286 725.063 227.148 725.437 226.872C725.818 226.596 726.114 226.195 726.326 225.667C726.536 225.139 726.642 224.503 726.642 223.756C726.642 223.009 726.536 222.373 726.326 221.845C726.114 221.317 725.818 220.915 725.437 220.64C725.06 220.363 724.602 220.217 724.135 220.226C723.639 220.226 723.201 220.364 722.82 220.64C722.446 220.915 722.154 221.317 721.943 221.845C721.732 222.373 721.627 223.009 721.627 223.756C721.627 224.503 721.732 225.139 721.943 225.667C722.154 226.195 722.446 226.596 722.82 226.872C723.201 227.148 723.639 227.286 724.135 227.286ZM734.593 227.237V228.016H728.616V227.395L732.158 223.926C732.604 223.488 732.905 223.111 733.059 222.794C733.215 222.493 733.299 222.16 733.302 221.82C733.302 221.317 733.128 220.928 732.779 220.652C732.438 220.368 731.947 220.226 731.306 220.226C730.308 220.226 729.533 220.542 728.981 221.175L728.36 220.64C728.704 220.242 729.138 219.934 729.626 219.739C730.145 219.528 730.729 219.422 731.379 219.422C732.248 219.422 732.933 219.629 733.436 220.043C733.947 220.449 734.203 221.009 734.203 221.723C734.203 222.161 734.106 222.583 733.911 222.989C733.716 223.395 733.347 223.861 732.803 224.389L729.906 227.237H734.593ZM738.589 223.147C739.482 223.196 740.16 223.439 740.622 223.878C741.093 224.308 741.328 224.871 741.328 225.57C741.328 226.057 741.211 226.49 740.975 226.872C740.74 227.245 740.391 227.542 739.928 227.761C739.466 227.98 738.902 228.089 738.236 228.089C737.64 228.093 737.047 227.994 736.484 227.797C735.94 227.595 735.502 227.327 735.169 226.994L735.595 226.3C735.879 226.592 736.257 226.831 736.727 227.018C737.21 227.199 737.721 227.289 738.236 227.286C738.935 227.286 739.474 227.136 739.855 226.836C740.237 226.527 740.428 226.105 740.428 225.57C740.428 225.042 740.237 224.628 739.855 224.328C739.474 224.028 738.898 223.878 738.127 223.878H737.518V223.232L739.88 220.275H735.522V219.496H741V220.116L738.589 223.147ZM749.343 227.237V228.016H743.318V219.496H749.16V220.275H744.218V223.306H748.625V224.072H744.218V227.237H749.343Z" fill="black"/>
<path d="M0 158.458C0 156.613 0.732835 154.844 2.03729 153.54C3.34174 152.235 5.11096 151.502 6.95574 151.502H99.1193C100.964 151.502 102.733 152.235 104.038 153.54C105.342 154.844 106.075 156.613 106.075 158.458V201.931H0V158.458ZM113.031 144.547C113.031 142.702 113.764 140.933 115.068 139.628C116.373 138.324 118.142 137.591 119.987 137.591H212.15C213.995 137.591 215.764 138.324 217.069 139.628C218.373 140.933 219.106 142.702 219.106 144.547V201.931H113.031V144.547ZM226.062 128.896C226.062 127.051 226.794 125.282 228.099 123.978C229.403 122.673 231.173 121.94 233.017 121.94H325.181C327.026 121.94 328.795 122.673 330.099 123.978C331.404 125.282 332.137 127.051 332.137 128.896V201.931H226.062V128.896ZM339.092 106.29C339.092 104.445 339.825 102.676 341.13 101.372C342.434 100.067 344.203 99.3343 346.048 99.3343H438.212C440.057 99.3343 441.826 100.067 443.13 101.372C444.435 102.676 445.167 104.445 445.167 106.29V201.931H339.092V106.29ZM452.123 80.206C452.123 78.3612 452.856 76.592 454.16 75.2875C455.465 73.9831 457.234 73.2502 459.079 73.2502H551.243C553.087 73.2502 554.857 73.9831 556.161 75.2875C557.465 76.592 558.198 78.3612 558.198 80.206V201.931H452.123V80.206Z" fill="#93DC66"/>
<path d="M565.152 47.1656C565.152 45.3208 565.885 43.5516 567.19 42.2472C568.494 40.9427 570.263 40.2099 572.108 40.2099H664.272C666.116 40.2099 667.886 40.9427 669.19 42.2472C670.495 43.5516 671.227 45.3208 671.227 47.1656V201.931H565.152V47.1656ZM678.183 7.1701C678.183 5.32532 678.916 3.5561 680.22 2.25165C681.525 0.947192 683.294 0.214355 685.139 0.214355H777.303C779.147 0.214355 780.917 0.947192 782.221 2.25165C783.525 3.5561 784.258 5.32532 784.258 7.1701V201.931H678.183V7.1701Z" fill="#93DC66"/>
<path d="M51.8813 181.557V184.541H39.9226V182.167L46.0263 176.403C46.674 175.785 47.1114 175.258 47.3374 174.82C47.5635 174.368 47.6765 173.924 47.6765 173.487C47.6765 172.854 47.4574 172.371 47.0209 172.04C46.5984 171.693 45.9732 171.52 45.1446 171.52C44.4508 171.52 43.8257 171.656 43.2683 171.927C42.7052 172.188 42.2215 172.593 41.8667 173.102L39.1992 171.384C39.8165 170.465 40.6686 169.749 41.7537 169.237C42.8388 168.709 44.0821 168.445 45.4837 168.445C46.6592 168.445 47.6835 168.641 48.5582 169.033C49.4468 169.41 50.1328 169.952 50.6153 170.661C51.1127 171.354 51.3613 172.175 51.3613 173.125C51.3613 173.984 51.1805 174.79 50.8188 175.544C50.4571 176.298 49.7563 177.157 48.7164 178.121L45.0768 181.557H51.8813ZM58.9535 168.445C61.1689 168.445 62.9018 169.124 64.1529 170.48C65.4032 171.822 66.0293 173.758 66.0293 176.29C66.0293 178.084 65.6902 179.621 65.012 180.901C64.3486 182.182 63.4069 183.154 62.1862 183.818C60.9655 184.481 59.5561 184.812 57.9589 184.812C57.1146 184.812 56.3086 184.722 55.54 184.541C54.7714 184.345 54.1158 184.074 53.5733 183.727L54.9296 181.037C55.6982 181.565 56.6851 181.828 57.891 181.828C59.2318 181.828 60.2942 181.436 61.0785 180.653C61.8619 179.854 62.2836 178.709 62.3444 177.217C61.395 178.166 60.0838 178.641 58.411 178.641C57.4007 178.641 56.4816 178.437 55.653 178.03C54.8236 177.624 54.168 177.051 53.6863 176.312C53.2037 175.559 52.9629 174.693 52.9629 173.713C52.9629 172.658 53.2263 171.731 53.7541 170.932C54.281 170.133 54.9974 169.523 55.9017 169.101C56.8207 168.664 57.838 168.445 58.9535 168.445ZM59.2248 175.905C60.023 175.905 60.6716 175.687 61.1689 175.25C61.681 174.798 61.9375 174.225 61.9375 173.532C61.9375 172.839 61.6889 172.274 61.1915 171.836C60.709 171.399 60.0386 171.181 59.1796 171.181C58.3953 171.181 57.7554 171.392 57.2581 171.814C56.7755 172.235 56.5347 172.808 56.5347 173.532C56.5347 174.255 56.7755 174.835 57.2581 175.273C57.7554 175.694 58.411 175.905 59.2248 175.905ZM160.746 168.204C162.132 168.43 163.195 168.95 163.933 169.764C164.672 170.563 165.041 171.557 165.041 172.748C165.046 173.65 164.795 174.536 164.317 175.302C163.836 176.071 163.097 176.689 162.102 177.156C161.123 177.623 159.917 177.857 158.485 177.857C157.37 177.857 156.27 177.713 155.184 177.427C154.115 177.125 153.203 176.704 152.449 176.161L153.873 173.358C154.477 173.81 155.17 174.164 155.953 174.42C156.745 174.66 157.567 174.782 158.395 174.782C159.314 174.782 160.038 174.609 160.565 174.262C161.093 173.901 161.356 173.395 161.356 172.748C161.356 171.451 160.369 170.803 158.395 170.803H156.722V168.385L159.977 164.7H153.24V161.761H164.317V164.135L160.746 168.204ZM178.922 161.761V164.135L173.044 177.585H169.066L174.74 164.745H169.495V167.322H166.24V161.761H178.922ZM279.484 166.437H276.907V169.76H273.336V166.437H264.813V163.973L272.273 153.936H276.116L269.199 163.453H273.449V160.492H276.907V163.453H279.484V166.437ZM288.198 159.836C289.208 159.836 290.127 160.039 290.956 160.446C291.761 160.832 292.442 161.435 292.923 162.187C293.405 162.925 293.646 163.784 293.646 164.764C293.646 165.819 293.382 166.746 292.855 167.545C292.327 168.344 291.604 168.961 290.685 169.398C289.781 169.82 288.77 170.031 287.656 170.031C285.44 170.031 283.707 169.353 282.456 167.997C281.205 166.64 280.58 164.704 280.58 162.187C280.58 160.393 280.919 158.856 281.597 157.575C282.275 156.295 283.217 155.323 284.423 154.659C285.644 153.996 287.052 153.665 288.65 153.665C289.494 153.665 290.301 153.763 291.069 153.958C291.853 154.139 292.516 154.403 293.059 154.75L291.702 157.44C290.918 156.912 289.931 156.649 288.741 156.649C287.399 156.649 286.337 157.041 285.553 157.824C284.769 158.607 284.347 159.746 284.287 161.238C285.221 160.303 286.525 159.836 288.198 159.836ZM287.452 167.296C288.236 167.296 288.869 167.085 289.351 166.663C289.849 166.241 290.097 165.668 290.097 164.945C290.097 164.222 289.849 163.649 289.351 163.227C288.869 162.79 288.221 162.571 287.407 162.571C286.608 162.571 285.952 162.797 285.44 163.25C284.927 163.687 284.672 164.252 284.672 164.945C284.672 165.638 284.92 166.203 285.418 166.64C285.915 167.078 286.593 167.296 287.452 167.296ZM386.259 148.578C388.491 148.578 390.133 149.022 391.188 149.912C392.258 150.801 392.793 151.992 392.793 153.484C392.802 154.415 392.551 155.331 392.069 156.129C391.588 156.912 390.849 157.545 389.854 158.028C388.875 158.494 387.661 158.728 386.214 158.728C385.1 158.728 383.999 158.585 382.914 158.299C381.844 157.997 380.932 157.575 380.178 157.033L381.625 154.23C382.229 154.682 382.922 155.036 383.705 155.292C384.489 155.533 385.304 155.655 386.124 155.654C387.044 155.654 387.767 155.473 388.294 155.111C388.822 154.75 389.085 154.244 389.085 153.597C389.085 152.919 388.807 152.406 388.249 152.059C387.706 151.713 386.757 151.54 385.4 151.54H381.354L382.168 142.633H391.821V145.571H385.22L384.971 148.578H386.259ZM399.84 142.361C402.055 142.361 403.788 143.04 405.039 144.396C406.29 145.738 406.915 147.674 406.915 150.206C406.915 151.999 406.576 153.537 405.898 154.817C405.235 156.098 404.293 157.07 403.072 157.734C401.852 158.397 400.442 158.728 398.845 158.728C398.001 158.728 397.195 158.638 396.426 158.457C395.658 158.261 395.002 157.99 394.459 157.643L395.816 154.953C396.584 155.481 397.571 155.744 398.777 155.744C400.119 155.744 401.181 155.352 401.965 154.569C402.748 153.77 403.171 152.625 403.231 151.133C402.281 152.082 400.97 152.557 399.297 152.557C398.288 152.557 397.368 152.353 396.539 151.946C395.711 151.54 395.055 150.967 394.572 150.228C394.09 149.475 393.849 148.609 393.849 147.629C393.849 146.574 394.112 145.647 394.64 144.848C395.168 144.049 395.884 143.439 396.788 143.017C397.707 142.58 398.724 142.361 399.84 142.361ZM400.111 149.821C400.91 149.821 401.558 149.603 402.055 149.166C402.567 148.714 402.824 148.141 402.824 147.448C402.824 146.755 402.575 146.19 402.078 145.752C401.595 145.315 400.925 145.097 400.066 145.097C399.282 145.097 398.642 145.308 398.144 145.73C397.662 146.151 397.421 146.724 397.421 147.448C397.421 148.171 397.662 148.751 398.144 149.188C398.642 149.61 399.297 149.821 400.111 149.821ZM504.371 129.591V131.964L498.493 145.415H494.514L500.188 132.575H494.944V135.152H491.689V129.591H504.371ZM519.012 142.092H516.435V145.415H512.864V142.092H504.341V139.628L511.801 129.591H515.644L508.727 139.108H512.977V136.146H516.435V139.108H519.012V142.092ZM610.861 112.8C613.077 112.8 614.81 113.478 616.061 114.834C617.312 116.176 617.937 118.112 617.937 120.644C617.937 122.438 617.598 123.975 616.92 125.256C616.257 126.536 615.315 127.508 614.094 128.172C612.873 128.835 611.465 129.166 609.867 129.166C609.023 129.166 608.216 129.076 607.448 128.895C606.679 128.699 606.024 128.428 605.481 128.081L606.837 125.391C607.606 125.919 608.594 126.182 609.799 126.182C611.14 126.182 612.203 125.79 612.986 125.007C613.771 124.208 614.192 123.063 614.252 121.571C613.303 122.52 611.992 122.995 610.319 122.995C609.309 122.995 608.39 122.791 607.561 122.385C606.732 121.978 606.077 121.405 605.594 120.666C605.112 119.913 604.871 119.047 604.871 118.067C604.871 117.012 605.135 116.085 605.662 115.286C606.19 114.487 606.905 113.877 607.809 113.455C608.729 113.018 609.747 112.8 610.861 112.8ZM611.133 120.26C611.932 120.26 612.579 120.041 613.077 119.604C613.59 119.152 613.845 118.579 613.845 117.886C613.845 117.193 613.597 116.628 613.099 116.19C612.618 115.753 611.946 115.535 611.087 115.535C610.304 115.535 609.663 115.746 609.166 116.168C608.684 116.59 608.442 117.163 608.442 117.886C608.442 118.609 608.684 119.189 609.166 119.627C609.663 120.048 610.319 120.26 611.133 120.26ZM626.866 119.514C628.252 119.74 629.315 120.26 630.053 121.073C630.791 121.872 631.161 122.867 631.161 124.057C631.166 124.96 630.915 125.846 630.437 126.612C629.955 127.38 629.217 127.999 628.222 128.466C627.242 128.932 626.037 129.166 624.605 129.166C623.491 129.166 622.381 129.022 621.304 128.737C620.234 128.435 619.323 128.013 618.569 127.471L619.993 124.668C620.596 125.12 621.29 125.474 622.073 125.73C622.865 125.97 623.687 126.092 624.514 126.092C625.434 126.092 626.157 125.919 626.685 125.572C627.212 125.21 627.476 124.705 627.476 124.057C627.476 122.761 626.489 122.113 624.514 122.113H622.842V119.694L626.097 116.01H619.36V113.071H630.437V115.444L626.866 119.514ZM722.161 93.073V108.897H718.499V96.0118H715.334V93.073H722.161ZM731.014 93.073V108.897H727.352V96.0118H724.187V93.073H731.014ZM741.381 98.9732C742.391 98.9732 743.31 99.1767 744.138 99.5836C744.944 99.9689 745.625 100.572 746.105 101.324C746.588 102.062 746.829 102.921 746.829 103.901C746.829 104.956 746.565 105.883 746.037 106.682C745.51 107.481 744.787 108.098 743.867 108.536C742.963 108.957 741.954 109.169 740.838 109.169C738.623 109.169 736.89 108.49 735.639 107.134C734.388 105.778 733.762 103.841 733.762 101.324C733.762 99.5306 734.101 97.9933 734.78 96.7126C735.458 95.4319 736.4 94.4598 737.605 93.7964C738.826 93.133 740.235 92.8018 741.833 92.8018C742.677 92.8018 743.483 92.9 744.252 93.0956C745.036 93.2765 745.698 93.5399 746.241 93.8868L744.885 96.577C744.101 96.0492 743.114 95.7858 741.923 95.7858C740.582 95.7858 739.52 96.1779 738.736 96.9613C737.952 97.7447 737.531 98.8828 737.47 100.375C738.404 99.4401 739.708 98.9732 741.381 98.9732ZM740.635 106.433C741.419 106.433 742.052 106.222 742.533 105.8C743.031 105.379 743.279 104.806 743.279 104.082C743.279 103.359 743.031 102.786 742.533 102.364C742.052 101.927 741.403 101.709 740.589 101.709C739.791 101.709 739.136 101.935 738.623 102.387C738.11 102.824 737.854 103.389 737.854 104.082C737.854 104.775 738.103 105.34 738.6 105.778C739.097 106.215 739.776 106.433 740.635 106.433Z" fill="black"/>
</svg>
