<svg width="51" height="57" viewBox="0 0 51 57" fill="none" xmlns="http://www.w3.org/2000/svg">
<path d="M49.9448 7.89576C49.8431 7.17403 49.3176 6.58036 48.6071 6.38523L25.8376 0.128476C25.513 0.0392058 25.1702 0.0392058 24.8453 0.128476L2.07583 6.38523C1.3654 6.58036 0.839853 7.17379 0.738151 7.89576C0.606086 8.83408 -2.40672 31.0044 5.32093 42.0335C13.0394 53.0494 24.4259 55.8724 24.9068 55.9873C25.0497 56.0214 25.1953 56.0383 25.3415 56.0383C25.4876 56.0383 25.6333 56.0212 25.7762 55.9873C26.2573 55.8724 37.6438 53.0494 45.362 42.0335C53.0897 31.0047 50.0769 8.83432 49.9448 7.89576Z" fill="#40B3E0"/>
<path d="M40.0247 20.8383L24.4936 36.1843C24.1322 36.5414 23.6583 36.7202 23.1846 36.7202C22.7109 36.7202 22.2369 36.5416 21.8755 36.1843L12.2728 26.696C11.9255 26.353 11.7305 25.8877 11.7305 25.4025C11.7305 24.9174 11.9257 24.452 12.2728 24.1091L14.1795 22.2251C14.9025 21.511 16.0748 21.5107 16.7976 22.2251L23.1846 28.536L35.4999 16.3672C35.847 16.024 36.318 15.8313 36.809 15.8313C37.3 15.8313 37.771 16.024 38.118 16.3672L40.0247 18.2511C40.7477 18.9655 40.7477 20.1239 40.0247 20.8383Z" fill="white"/>
</svg>
