<svg width="144" height="53" viewBox="0 0 144 53" fill="none" xmlns="http://www.w3.org/2000/svg">
<path fill-rule="evenodd" clip-rule="evenodd" d="M112.497 2.13793C113.07 2.77491 114.096 3.82465 115.198 4.76719C122.891 5.3411 129.586 9.4548 133.632 15.4694L131.63 17.8017C128.918 12.6522 124.187 8.71118 118.476 7.0083C119.409 7.8439 120.23 9.45322 121.033 11.0282C121.84 12.6114 122.629 14.16 123.498 14.8528C124.422 15.5901 125.108 15.731 125.762 15.8654C126.474 16.0118 127.149 16.1505 128.054 17.0443C129.443 18.4156 130.007 19.2936 130.116 19.5612L127.599 23.3366C127.273 23.2571 126.331 23.1457 125.168 23.3366C124.149 22.7002 121.788 20.8935 120.503 18.7584C119.915 17.7798 119.58 16.8566 119.262 15.9813C118.714 14.4697 118.217 13.101 116.554 11.8368C114.454 10.2399 113.77 9.479 113.69 9.29818C113.661 10.1589 113.69 11.9757 114.037 12.3576C113.278 12.184 111.698 11.4593 111.455 9.94911C111.273 8.81412 110.776 7.47518 110.216 6.1681C108.291 6.33239 106.436 6.74251 104.684 7.36661C104.906 7.66996 105.131 8.00215 105.358 8.36518C106.955 10.9168 106.95 12.7409 106.747 13.334C106.07 11.0253 104.382 11.1859 103.623 11.5547C103.918 14.4188 102.82 15.7279 102.234 16.0245C101.47 13.577 99.3409 12.2129 98.3717 11.8368C98.823 13.347 98.6899 15.8075 98.567 16.849C98.0809 16.0852 97.2796 15.8364 96.9396 15.8075C96.9396 16.4729 97.0828 18.0597 97.6557 19.0839C98.2285 20.108 97.8943 22.852 97.6557 24.096C96.8572 23.6274 96.5129 22.6134 96.4406 22.1649C96.2164 22.9244 95.9329 24.8902 96.5925 26.6781C97.1128 28.0885 97.1147 29.5334 97.1161 30.6584C97.1169 31.3161 97.1176 31.8645 97.2217 32.2327C97.2941 32.4887 97.4235 32.749 97.5471 32.9975C97.9053 33.7177 98.2141 34.3385 96.9396 34.4676C95.2255 34.6412 94.3142 31.4299 94.4227 28.5007C94.4312 28.2708 94.4396 28.0596 94.4473 27.8647L94.4473 27.8644C94.5381 25.5769 94.5396 25.5402 93.6199 23.9008C92.8214 22.4774 92.8243 19.8794 92.9255 18.7584C93.1686 19.6784 94.1551 20.4002 94.618 20.6461C94.7699 20.6461 95.0519 19.8129 94.9651 16.4801C94.9465 15.7643 94.8715 15.1077 94.7587 14.5119C91.8689 18.1959 90.1482 22.8239 90.1482 27.8498C90.1482 39.869 99.9889 49.6126 112.128 49.6126C120.461 49.6126 127.71 45.0216 131.438 38.2551L129.616 37.8307C128.792 39.0675 125.437 42.1182 118.616 44.4268C111.997 46.6669 106.136 45.0162 103.825 43.8194C108.323 44.5021 115.828 43.7506 122.261 39.81C129.758 35.2177 130.332 31.0692 130.743 28.103C130.786 27.7897 130.827 27.4896 130.875 27.2036C131.274 24.8081 132.488 24.4118 133.045 24.513C133.4 24.4391 135.356 22.994 136.706 21.9642C137.359 24.1457 137.71 26.4562 137.71 28.8479C137.71 42.1853 126.8 52.9974 113.343 52.9974C99.8858 52.9974 88.9766 42.1853 88.9766 28.8479C88.9766 23.0239 91.0566 17.6815 94.5207 13.5106C94.0586 11.9118 93.3485 10.8907 92.9255 10.4916C93.6416 10.535 95.2125 10.8648 95.768 11.8368C95.0736 9.00743 95.2038 5.82654 95.3557 4.58977C96.2236 5.10328 98.2024 6.62068 99.1745 8.58216C99.253 8.74059 99.3305 8.89168 99.4066 9.03569C100.164 8.51139 100.953 8.02865 101.77 7.59083C102.092 5.86732 101.86 4.87988 101.691 4.58977C102.088 4.72897 102.971 5.29155 104.024 6.52742C105.813 5.79281 107.71 5.26338 109.684 4.96871C109.542 4.65652 109.401 4.35071 109.264 4.05486L109.264 4.05367C109.205 3.92667 109.147 3.80151 109.09 3.67847C108.379 2.13359 108.548 1.19769 108.722 0.922852C109.032 1.68802 110.218 3.51515 112.484 4.713C112.707 4.70532 112.932 4.70062 113.157 4.69895C113.358 4.17795 112.804 2.78002 112.497 2.13793ZM99.8391 9.80356C100.384 9.43874 100.947 9.09753 101.526 8.78139C101.244 10.2779 101.211 11.2331 101.236 11.5547C101.021 11.4227 100.503 10.9065 99.8391 9.80356ZM110.436 13.7028C109.724 11.0123 108.085 8.1699 107.355 7.08501C107.736 12.6049 109.828 16.5308 110.826 17.8037C110.993 17.5578 111.147 16.3933 110.436 13.7028Z" fill="url(#paint0_linear)"/>
<path fill-rule="evenodd" clip-rule="evenodd" d="M107.074 13.6973C107.587 14.2252 108.593 15.7455 108.506 17.6029C107.956 17.7837 106.9 17.8849 107.074 16.8434C107.247 15.8019 107.146 14.312 107.074 13.6973Z" fill="url(#paint1_linear)"/>
<path d="M115.81 41.5179C105.117 45.5624 98.7701 41.3226 96.9331 38.6972C91.1398 38.8925 92.485 35.093 94.8935 35.2256C97.2585 35.3558 96.9548 35.8331 95.3057 35.6595C93.6567 35.4859 93.136 36.5925 93.9171 37.3737C94.6982 38.1548 98.5604 38.6972 105.373 36.918C112.187 35.1388 118.392 32.8388 124.294 29.4974C129.154 26.7456 129.675 24.6371 130.066 23.856C130.456 23.0748 131.129 21.5994 132.062 20.7966C132.995 19.9938 140.459 13.9184 141.24 13.2241C142.021 12.5297 142.845 11.9005 143.345 12.3778C143.844 12.8552 141.956 14.4608 139.634 16.6306C137.313 18.8004 133.168 23.1616 132.062 23.422C130.955 23.6824 130.196 25.1795 130.066 27.6748C129.935 30.17 129.176 36.4623 115.81 41.5179Z" fill="#231F20"/>
<path d="M120.121 25.1628C112.505 26.9203 105.388 30.3519 99.6166 33.8202C94.8864 36.6626 97.36 37.3786 102.633 36.3588C107.905 35.339 115.803 32.5834 123.81 28.2656C131.816 23.9477 127.737 23.4053 120.121 25.1628Z" fill="#231F20"/>
<path fill-rule="evenodd" clip-rule="evenodd" d="M115.449 14.7659C115.434 15.4892 116.135 17.4868 119.051 19.6913C122.135 22.0228 122.78 26.2182 122.722 28.4795C122.111 28.8001 121.501 29.1114 120.894 29.4134C120.516 29.2638 120.168 28.9058 120.201 28.1534C120.253 26.9557 119.904 26.2657 119.723 26.0705C119.803 26.461 119.854 27.3593 119.42 27.828C118.962 28.3223 118.921 29.3881 119.402 30.1393C118.531 30.5537 117.667 30.9486 116.813 31.3237C116.46 31.2683 116.165 31.081 116.1 30.6487C115.926 29.4987 115.21 27.5676 114.125 27.9365C113.04 28.3053 114.169 30.7355 115.058 31.0392C115.075 31.0449 115.091 31.0505 115.108 31.0561C115.648 31.2406 116.077 31.3867 116.211 31.5855C114.424 32.3555 112.688 33.0375 111.032 33.6294C110.897 33.6334 110.768 33.6497 110.654 33.6864C110.527 33.7269 110.439 33.7888 110.376 33.8607C109.663 34.1087 108.967 34.3394 108.289 34.5528C108.201 34.5648 108.114 34.5796 108.028 34.5977C107.821 34.6414 107.648 34.712 107.506 34.7941C106.904 34.9757 106.318 35.143 105.751 35.2956C105.607 35.2401 105.496 35.1557 105.446 35.0316C105.338 34.7601 105.332 34.5212 105.327 34.2768C105.321 34.0329 105.316 33.7837 105.208 33.4911C104.991 32.9052 104.296 32.992 104.383 34.1637C104.427 34.7525 104.427 35.2693 104.414 35.6368C104.217 35.6842 104.023 35.7295 103.832 35.7729C102.699 34.9637 101.189 33.2712 101.41 30.9091C101.634 28.5197 101.427 27.5384 101.24 26.6566C101.156 26.2572 101.075 25.8781 101.042 25.3978C100.955 24.1654 101.194 23.4667 101.324 23.2714C101.345 23.6186 101.484 24.352 101.866 24.5082C102.404 21.297 101.367 19.2935 100.781 18.6932C101.259 18.8668 102.322 19.3615 102.756 19.9517C102.86 17.1917 102.582 15.2577 102.43 14.6357C103.233 15.5037 105.086 17.8644 106.076 20.3639C106.076 19.7044 106.191 19.4148 106.363 18.9853C106.479 18.6941 106.621 18.3387 106.77 17.7602C107.065 16.6146 106.893 15.793 106.77 15.5254C107.377 15.9448 108.731 17.2308 109.287 19.0187C109.463 19.5868 109.591 20.0344 109.691 20.386C109.984 21.4173 110.043 21.6224 110.415 21.6224C110.914 21.6224 111.088 20.429 110.892 19.5611C110.736 18.8668 110.393 18.3027 110.241 18.1074C110.784 18.469 111.96 19.5004 112.324 20.7328C112.448 21.1515 112.532 21.466 112.595 21.702C112.763 22.3345 112.782 22.4035 113.019 22.4035C113.344 22.4035 114.104 21.362 113.561 18.8017C113.531 18.6578 113.461 18.4493 113.373 18.1859C112.97 16.9784 112.182 14.6187 113.019 12.0537C112.903 13.2688 113.175 15.8378 115.189 16.3933C115.102 15.6989 115.326 15.0191 115.449 14.7659Z" fill="#DA2417"/>
<path fill-rule="evenodd" clip-rule="evenodd" d="M113.387 32.7421C113.151 32.8346 112.916 32.9254 112.683 33.0145C112.393 32.9745 112.099 32.8585 111.901 32.6008C111.402 31.9498 110.339 31.6244 110.166 32.297C109.992 32.9696 109.276 32.9262 109.319 31.6027C109.363 30.2791 107.952 29.9319 107.779 30.8432C107.687 31.3234 107.379 31.6831 107.133 31.97C106.912 32.2275 106.742 32.4263 106.824 32.6008C106.905 32.7734 107.063 32.8082 107.22 32.8431C107.4 32.8827 107.579 32.9225 107.649 33.1649C107.779 33.6206 107.171 33.6856 106.998 33.2734C106.894 33.0264 106.751 32.9429 106.592 32.8504C106.486 32.7885 106.373 32.7225 106.26 32.6008C106.167 32.5005 106.145 32.3529 106.122 32.1993C106.075 31.8879 106.024 31.5521 105.37 31.5376C104.589 31.5202 104.105 32.3259 103.96 32.7309C103.548 32.7888 102.732 32.1711 102.767 29.2376C102.801 26.3041 103.099 25.3826 103.244 25.2886L104.329 25.3754C104.271 25.0644 104.173 24.1864 104.242 23.1622C104.312 22.1381 104.503 21.4337 104.589 21.2094C105.031 21.5711 106.052 22.5938 106.607 23.7915C106.651 23.3575 106.859 22.2075 107.345 21.0793C107.831 19.951 108.141 19.5966 108.235 19.5604C108.589 20.045 109.345 21.3743 109.536 22.8151C109.775 24.616 110.643 24.9415 111.055 23.9868C111.468 23.0321 112.683 22.5547 112.726 23.683C112.769 24.8113 113.702 26.1348 114.462 23.1839C114.822 21.784 114.753 20.3767 114.703 19.3686C114.648 18.2519 114.617 17.6252 115.221 18.0416C116.241 18.6636 118.593 20.4066 119.843 22.4028C121.093 24.399 121.101 26.0987 120.949 26.699C120.783 26.3446 120.329 25.5099 119.843 25.0065C119.357 24.5032 118.686 24.1169 118.411 23.9868C118.548 24.6666 118.762 26.1956 118.519 26.8726C118.422 27.1442 118.273 27.3912 118.121 27.6437C117.798 28.1781 117.461 28.7372 117.565 29.6065C117.632 30.1773 117.712 30.5994 117.781 30.8863C117.453 31.0347 117.127 31.1803 116.802 31.3229C116.449 31.2676 116.154 31.0802 116.089 30.648C115.916 29.498 115.2 27.5669 114.115 27.9357C113.03 28.3046 114.158 30.7348 115.048 31.0385L115.097 31.0554L115.097 31.0554C115.638 31.2399 116.066 31.386 116.2 31.5848C115.983 31.6786 115.766 31.7711 115.55 31.8623C115.203 31.7742 114.778 31.609 114.397 31.3206C114.342 31.2795 114.291 31.2399 114.241 31.2021C113.557 30.6803 113.309 30.4911 113.268 31.3206C113.241 31.8745 113.318 32.4118 113.387 32.7421Z" fill="#E67919"/>
<path d="M116.948 22.1199C117.365 21.8942 118.626 22.5321 119.205 22.8793C118.633 22.156 117.299 20.575 116.536 20.0369C115.581 19.3643 115.104 19.3643 115.017 21.4256C114.93 23.4868 114.106 25.3745 113.259 25.3745C112.413 25.3745 112.565 23.8123 112.044 23.7255C111.524 23.6387 111.61 25.2878 110.2 25.3745C108.79 25.4613 109.918 23.4 108.573 22.3152C108.247 22.5032 107.77 23.118 107.596 24.0727C107.379 25.2661 106.403 25.1142 105.991 23.9208C105.661 22.9661 105.144 22.684 104.927 22.6623C104.71 22.9372 104.372 23.7255 104.754 24.6802C105.231 25.8736 105.361 26.1557 105.058 26.3943C104.815 26.5853 103.987 26.3871 103.604 26.2642C103.38 27.1393 103.1 29.1283 103.777 30.083C104.038 29.96 104.632 29.5362 104.927 28.8245C105.296 27.9349 106.338 27.349 106.728 28.1736C107.119 28.9981 106.425 29.8226 107.075 30.3433C107.408 30.2276 108.091 29.8443 108.16 29.2367C108.247 28.4773 109.115 28.5858 109.354 29.6707C109.545 30.5386 110.345 30.799 110.721 30.8207C110.902 30.5386 111.233 29.7011 111.111 28.6075C110.959 27.2406 111.957 27.0236 112.912 27.3056C114.04 27.6528 114.257 26.0341 115.451 27.0887C116.197 27.7483 116.413 29.1572 116.601 29.649C117.1 28.6943 116.948 27.1972 116.254 26.2642C115.698 25.5177 116.398 25.2878 116.818 25.2661C116.767 24.8393 116.753 24.0032 117.1 24.0727C117.447 24.1421 117.794 24.6368 117.924 24.8755C118.293 24.2463 117.989 23.5302 117.404 23.2699C116.818 23.0095 116.427 22.402 116.948 22.1199Z" fill="#FFCB08"/>
<path fill-rule="evenodd" clip-rule="evenodd" d="M128.149 24.7462C127.721 24.4984 127.173 24.4063 126.68 24.3733C125.63 24.3032 124.388 24.4785 123.681 24.635C123.307 24.718 123.071 25.0888 123.154 25.4632C123.237 25.8375 123.607 26.0738 123.982 25.9908C124.613 25.8508 125.715 25.7006 126.587 25.7589C127.011 25.7872 127.292 25.8602 127.438 25.9395C128.028 25.4191 128.245 25.0247 128.149 24.7462ZM98.5009 36.7864C98.6416 36.5966 98.8069 36.4203 98.9886 36.2548C99.3675 35.9098 99.7725 35.6497 100.134 35.4175L100.134 35.4174L100.134 35.4173C100.214 35.3659 100.292 35.3159 100.367 35.2666C100.688 35.056 100.777 34.6255 100.566 34.305C100.355 33.9846 99.9249 33.8955 99.6045 34.1061C99.5478 34.1433 99.4833 34.1847 99.4125 34.2299L99.4125 34.23C99.0516 34.4609 98.5284 34.7958 98.0537 35.228C97.7284 35.5242 97.4051 35.8832 97.1484 36.3148C97.2924 36.591 97.7658 36.7462 98.5009 36.7864Z" fill="#D4210D"/>
<path fill-rule="evenodd" clip-rule="evenodd" d="M143.282 12.3144L132.477 22.2696C132.107 22.6106 131.531 22.587 131.19 22.2169C131.137 22.1603 131.094 22.0989 131.059 22.0342C131.353 21.5713 131.693 21.127 132.077 20.7966C132.502 20.4306 134.284 18.9692 136.172 17.4212C138.426 15.5732 140.83 13.6019 141.255 13.2241C141.997 12.5645 142.778 11.9636 143.282 12.3144Z" fill="#565657"/>
<path d="M123.928 36.9645C129.326 33.4929 129.692 28.5892 129.2 26.5713C127.978 28.0106 124.266 31.245 119.198 33.0155C120.529 32.7479 123.884 31.7961 126.662 30.1297C126.09 30.8313 123.628 32.8116 118.352 35.1202C119.538 34.773 122.704 33.6665 125.881 32.0174C124.615 33.1457 121.029 35.7711 116.811 37.2466C118.793 36.7258 123.147 35.3676 124.709 34.1004C123.892 34.9032 120.734 37.073 114.641 39.3296C116.015 39.1054 119.358 38.3185 121.736 36.9645C118.213 39.8286 114.439 40.9497 112.992 41.1522C114.388 41.2028 118.529 40.4362 123.928 36.9645Z" fill="#D4210D"/>
<path fill-rule="evenodd" clip-rule="evenodd" d="M38.3974 19.3009L36.8351 24.1612C37.7826 24.5445 40.4456 25.3112 43.518 25.3112C47.3585 25.3112 51.0038 23.814 51.0038 20.516C51.0038 17.441 47.9482 16.2333 46.0576 15.4861C45.9204 15.4319 45.7894 15.3801 45.6661 15.3302C43.8435 14.5925 43.8652 12.5095 46.3604 13.0736C48.3566 13.5249 49.1161 14.8962 49.2462 15.5255L50.5047 10.752C50.0997 10.3976 48.2785 9.55859 43.8869 9.55859C38.3974 9.55859 37.4644 12.8783 37.4644 14.5925C37.4644 16.3066 38.636 18.0424 40.6973 18.6716C42.7586 19.3009 43.8138 20.0169 43.2577 21.0801C42.5199 22.4904 38.9615 20.6028 38.3974 19.3009ZM85.6117 24.6989H79.2325L78.4245 22.3989H72.8369L72.0289 24.6989H65.6497L70.8789 9.81422H75.6307H80.3825L85.6117 24.6989ZM75.6307 14.4464L77.1287 18.7103H74.1327L75.6307 14.4464ZM58.815 38.9977C58.815 45.3129 53.6954 50.4324 47.3802 50.4324C41.065 50.4324 35.9455 45.3129 35.9455 38.9977C35.9455 32.6825 41.065 27.563 47.3802 27.563C53.6954 27.563 58.815 32.6825 58.815 38.9977ZM49.7019 38.5637C49.7019 39.8459 48.6625 40.8854 47.3802 40.8854C46.098 40.8854 45.0586 39.8459 45.0586 38.5637C45.0586 37.2815 46.098 36.2421 47.3802 36.2421C48.6625 36.2421 49.7019 37.2815 49.7019 38.5637ZM60.963 28.0837V50.1503H70.6836V41.8618C72.4411 41.869 75.9562 43.5369 75.9562 50.1503H86.3711C86.5447 48.1541 85.7983 43.1506 81.424 39.1062C84.8783 36.9017 85.7708 30.8393 85.7853 28.0837H75.9562C75.9562 34.1938 72.4411 35.4899 70.6836 35.3742V28.0837H60.963ZM8.77994 50.1503L0.96875 28.0837H10.3422L12.9229 35.3742L15.5036 28.0837H19.1488H22.794L25.3747 35.3742L27.9554 28.0837H37.3288L29.5176 50.1503H22.4441L19.1488 40.8409L15.8534 50.1503H8.77994ZM29.2626 24.6989H35.6418L30.4126 9.81422H25.6608H20.909L15.6798 24.6989H22.059L22.867 22.3989H28.4546L29.2626 24.6989ZM27.1588 18.7103L25.6608 14.4464L24.1628 18.7103H27.1588ZM65.9535 16.2801V9.81422H52.5877V16.2801H56.1678V24.6989H62.33V16.2801H65.9535ZM7.49977 9.81422H1.33761V24.6989H7.49977V18.5785C8.55321 19.2035 10.1225 19.9688 11.2318 19.9688C12.9893 19.9688 16.1355 18.6235 16.1355 14.7396C16.1355 10.8557 11.8827 9.81422 10.0167 9.81422H7.49977ZM7.49977 16.4723C8.91915 17.0759 10.2554 16.2259 10.2554 14.7396C10.2554 13.0464 8.93408 12.9429 7.49977 12.9388V16.4723Z" fill="url(#paint2_linear)"/>
<defs>
<linearGradient id="paint0_linear" x1="95.334" y1="4.26905" x2="124.018" y2="49.5956" gradientUnits="userSpaceOnUse">
<stop stop-color="#FFF200"/>
<stop offset="1" stop-color="#F58220"/>
</linearGradient>
<linearGradient id="paint1_linear" x1="95.3352" y1="4.26349" x2="124.02" y2="49.5901" gradientUnits="userSpaceOnUse">
<stop stop-color="#FFF200"/>
<stop offset="1" stop-color="#F58220"/>
</linearGradient>
<linearGradient id="paint2_linear" x1="86.4145" y1="23.7923" x2="0.96875" y2="23.7923" gradientUnits="userSpaceOnUse">
<stop stop-color="#F57E20"/>
<stop offset="0.458846" stop-color="#ED1C24"/>
</linearGradient>
</defs>
</svg>
