<svg width="121" height="60" viewBox="0 0 121 60" fill="none" xmlns="http://www.w3.org/2000/svg">
<path fill-rule="evenodd" clip-rule="evenodd" d="M81.302 57.6186L84.0644 58.1251L86.8463 58.405L88.338 58.4442L90.577 58.3406H90.6889C91.7728 58.2117 92.8491 58.0248 93.913 57.7809H93.955L94.0054 57.7669C95.2396 57.4366 96.4543 57.0364 97.6437 56.5914H97.6633H97.6885C100.985 55.2844 104.126 53.5772 107.56 52.6396H107.59L108.626 52.4185H108.662C109.922 52.2254 111.181 52.1639 112.46 52.0631L117.098 51.6993L113.241 44.1427H115.287V21.1933L116.37 21.0701C117.32 20.9652 118.22 20.5941 118.968 19.9996C119.717 19.405 120.281 18.6112 120.598 17.7097C120.915 16.8081 120.97 15.8354 120.758 14.9038C120.546 13.9721 120.075 13.1193 119.399 12.4436C118.723 11.7679 117.871 11.2969 116.939 11.0848C116.007 10.8727 115.035 10.9281 114.133 11.2447C113.231 11.5612 112.438 12.1261 111.843 12.8741C111.249 13.6222 110.877 14.523 110.772 15.4727L110.652 16.4774H98.8528L92.1163 3.53619L88.1981 3.84685H88.1337C87.0788 3.97174 86.0321 4.15864 84.9991 4.40659H84.9544L84.8984 4.42338C83.9412 4.68646 82.998 4.98313 82.0661 5.33577H82.0409L82.0073 5.34976C79.0826 6.53641 76.3147 8.03932 73.3621 9.13362H73.3425C72.8807 9.28755 72.4161 9.43308 71.9431 9.56462H71.9179H71.8956C71.3167 9.70354 70.731 9.8119 70.1408 9.88927H70.0708C69.402 9.9345 68.7312 9.94478 68.0613 9.92006H68.0109L66.0938 9.71296H66.0546C65.0695 9.53943 64.0955 9.32953 63.1188 9.09164H63.0936L60.8546 8.44794H60.835C55.8869 6.83868 51.1095 4.76203 46.2146 3.00444H46.1838L43.6118 2.13683H43.5642C42.2768 1.74875 40.98 1.39238 39.674 1.06773L39.5984 1.01735L36.92 0.499587L34.2193 0.219715L32.7919 0.177734H32.7024C31.7592 0.202923 30.816 0.256098 29.8757 0.331664H29.8141C28.3056 0.493989 26.8083 0.740276 25.3361 1.04813H25.3166H25.2746C23.805 1.39817 22.3543 1.8232 20.9282 2.32155H20.9086L20.8666 2.33554C19.4191 2.85779 18.0001 3.45567 16.6154 4.12672C14.2129 5.31979 11.8949 6.67566 9.67734 8.18486L5.05666 11.4286L7.60909 16.4663H0.382812V44.0588H22.0001L30.1527 59.7316L35.2856 54.9122C35.9153 54.3525 36.559 53.7927 37.2223 53.2694C38.1008 52.6056 39.0166 51.9926 39.965 51.4334H39.9846C40.8365 50.9659 41.717 50.5527 42.621 50.1964H42.6434C43.678 49.8266 44.7365 49.5274 45.8115 49.3008H45.8395C47.0049 49.0856 48.1812 48.9342 49.3631 48.8474C50.1328 48.7914 50.8996 48.797 51.6692 48.8138H51.7364C52.7104 48.8922 53.6955 49.0153 54.6443 49.1692H54.6779L56.8972 49.6534H56.9224C58.0671 49.9585 59.209 50.2691 60.3341 50.6358C65.0751 52.1806 69.693 54.0698 74.4032 55.7014L77.1012 56.5662H77.1487C78.4809 56.9525 79.8234 57.3042 81.1761 57.6214L81.302 57.6186Z" fill="#4EAF46"/>
<path fill-rule="evenodd" clip-rule="evenodd" d="M106.8 42.1415L109.459 47.3387C109.075 47.3751 108.692 47.4199 108.311 47.4703C107.415 47.5985 106.529 47.7921 105.661 48.0496C102.487 49.0152 99.5485 50.4873 96.4979 51.7523C94.8387 52.4507 93.1095 52.9695 91.3399 53.3C88.0402 53.8598 84.4383 53.398 81.2337 52.5975C79.3166 52.1162 77.4471 51.5592 75.572 50.9183C70.9849 49.3146 66.4677 47.5067 61.8583 45.9786C61.3881 45.833 60.9151 45.6987 60.4421 45.5504C57.3943 44.6548 54.2206 43.9131 51.0384 43.8907C48.9776 43.8961 46.9218 44.0948 44.898 44.4841C43.0916 44.8485 41.3295 45.4059 39.6421 46.1465C38.403 46.703 37.2107 47.3581 36.0765 48.1056C34.4529 49.1919 32.9248 50.4147 31.509 51.7607L27.1262 43.0847H25.1671L31.022 54.6686L33.1854 52.6367C33.8879 52.0042 34.5848 51.3969 35.3432 50.8092C36.3486 50.045 37.3991 49.3422 38.489 48.7045C39.4906 48.1546 40.5264 47.6694 41.59 47.252C42.7942 46.8177 44.0278 46.4698 45.2815 46.2109C46.5774 45.9709 47.8854 45.8008 49.1997 45.7015C50.1148 45.6455 51.0076 45.6399 51.9284 45.6651C53.0759 45.7547 54.1674 45.8946 55.3205 46.0821L57.6854 46.5971C58.9196 46.9217 60.1342 47.2744 61.3545 47.6522C66.1123 49.2195 70.7386 51.103 75.474 52.7347L78.0684 53.5743C79.3558 53.9465 80.6376 54.2852 81.9446 54.5902C83.8965 54.9906 85.8783 55.2274 87.8695 55.2983C89.6664 55.3488 91.4621 55.1606 93.2094 54.7385C94.3465 54.4343 95.4674 54.0728 96.5679 53.6554C100.01 52.2953 103.268 50.5293 106.878 49.5637L108.073 49.3062C109.453 49.0879 110.841 49.0264 112.235 48.906L108.787 42.1471L106.8 42.1415ZM19.3514 8.2491C20.1313 7.89273 20.9205 7.55782 21.7191 7.24436C22.7725 6.84006 23.8458 6.48977 24.9348 6.19484C27.3378 5.53821 29.8087 5.16253 32.2982 5.07536C34.4113 4.99699 36.4963 5.39441 38.5786 5.79463C39.365 5.98774 40.1486 6.19764 40.9295 6.41874C42.7878 6.9477 44.6098 7.5914 46.4205 8.26589C48.5672 9.07472 50.7026 9.91713 52.8436 10.7428C56.2021 12.0246 59.5829 13.3176 63.0813 14.1012C64.8997 14.5377 66.7589 14.7816 68.6283 14.8289C69.6214 14.8469 70.6141 14.7776 71.595 14.6218C72.8618 14.403 74.1052 14.0657 75.3089 13.6142C78.1915 12.5115 80.9063 11.0702 83.7834 9.93672C84.5782 9.65685 85.3786 9.37698 86.1959 9.15868C87.2074 8.91024 88.2367 8.74087 89.2745 8.65211L93.8587 17.6976H95.8178L90.3044 6.78257L88.502 6.92531C87.5662 7.04911 86.6383 7.22666 85.7229 7.45706C84.8385 7.70055 83.9877 7.97762 83.1313 8.29668C80.1618 9.45535 77.3771 10.975 74.3797 12.0749C73.82 12.2653 73.2602 12.4388 72.7005 12.5983C71.949 12.782 71.1874 12.9212 70.4195 13.0153C69.5487 13.0773 68.675 13.0904 67.8027 13.0545L65.6645 12.825C64.5198 12.6291 63.4255 12.3912 62.306 12.1169L59.9719 11.4396C54.937 9.79679 50.1176 7.71175 45.1611 5.92897L42.6591 5.08935C41.4164 4.71432 40.1822 4.37288 38.9228 4.06222L36.4487 3.58644L33.9943 3.32336L32.7768 3.28418C31.8868 3.30937 31.022 3.35135 30.1376 3.42971C28.738 3.58102 27.347 3.80428 25.9703 4.09861C24.6055 4.41746 23.2576 4.80511 21.9318 5.26007C20.58 5.75544 19.2786 6.30679 17.9828 6.91971C15.713 8.05577 13.5205 9.34037 11.4198 10.7651L9.04093 12.4444L11.7025 17.7116H13.6616L11.2967 13.0209C12.8752 11.9014 14.4648 10.8799 16.1357 9.92273C17.1824 9.32381 18.2459 8.75287 19.3402 8.2435L19.3514 8.2491ZM112.182 19.5867H99.5233V24.4005H103.517V40.9661H108.275V24.4005H112.193V19.5867H112.182ZM55.494 24.4005V30.706C56.829 29.8916 59.4122 27.9576 59.4122 26.0237C59.4122 24.4285 58.0576 24.4285 57.0808 24.4005H55.494ZM50.7362 19.5867H58.3235C62.8014 19.5867 64.2707 22.5421 64.2707 25.464C64.2707 28.7609 62.2725 32.8162 55.4856 36.2195V40.9549H50.7278V19.5867H50.7362ZM49.1997 19.5867H36.5467V24.4005H40.5405V40.9661H45.2983V24.4005H49.2165V19.5867H49.1997ZM17.9744 40.9241V19.5867H3.48828L3.52746 40.9241H8.2349V24.4117H13.2278V40.9241H17.9744ZM24.7949 31.2126C24.696 31.4744 24.6394 31.7502 24.627 32.0298H29.8214V31.2126H24.7949ZM29.855 29.343V24.56C26.3706 25.2177 25.6569 27.7869 25.1307 29.3738H29.8578V29.343H29.855ZM34.6128 40.9241H29.855V34.1876H24.6634C24.6857 36.5805 25.4302 38.8922 26.4601 40.9241H21.2041C20.2901 38.5032 19.8162 35.9384 19.8048 33.3508C19.8048 29.6341 20.8039 25.7635 23.0681 23.0935C25.5869 20.0849 28.548 19.5867 31.9652 19.5867H34.6016V40.9241H34.6128ZM93.4193 27.8877C93.4193 31.7611 91.9108 36.393 90.1141 36.393C88.3173 36.393 86.806 31.7555 86.806 27.8877C86.806 25.0358 87.7827 24.1206 90.1141 24.1206C92.4454 24.1206 93.4193 25.0302 93.4193 27.8877ZM81.8579 27.6078C81.8579 33.2864 84.5222 41.4307 90.1141 41.4307C95.7059 41.4307 98.3675 33.2864 98.3675 27.6078C98.3675 22.9759 96.4811 19.1053 90.1141 19.1053C83.747 19.1053 81.8579 22.9871 81.8579 27.6078ZM65.8212 19.5755V40.9549H70.579V34.6606L75.5832 27.4623H75.6279V40.9661H80.3857V19.5867H75.849L70.5678 26.8633V19.5867L65.8212 19.5755Z" fill="#FFED00"/>
<path fill-rule="evenodd" clip-rule="evenodd" d="M115.799 12.6318C116.458 12.6318 117.102 12.8272 117.65 13.1933C118.198 13.5594 118.624 14.0797 118.876 14.6884C119.128 15.2972 119.194 15.967 119.065 16.6131C118.937 17.2592 118.619 17.8526 118.153 18.3183C117.687 18.784 117.093 19.1009 116.447 19.2291C115.801 19.3573 115.131 19.291 114.523 19.0385C113.914 18.786 113.394 18.3586 113.029 17.8106C112.663 17.2625 112.468 16.6183 112.469 15.9595C112.469 15.5223 112.555 15.0893 112.722 14.6854C112.89 14.2815 113.135 13.9145 113.444 13.6055C113.754 13.2965 114.121 13.0514 114.525 12.8843C114.929 12.7173 115.362 12.6315 115.799 12.6318ZM115.799 13.4715C115.305 13.4715 114.823 13.6179 114.412 13.8922C114.002 14.1665 113.682 14.5564 113.493 15.0126C113.304 15.4687 113.254 15.9707 113.351 16.4549C113.447 16.9392 113.685 17.384 114.034 17.7332C114.383 18.0823 114.828 18.3201 115.312 18.4164C115.796 18.5127 116.298 18.4633 116.755 18.2743C117.211 18.0854 117.601 17.7654 117.875 17.3549C118.149 16.9443 118.296 16.4617 118.296 15.9679C118.297 15.6394 118.233 15.3138 118.108 15.01C117.983 14.7061 117.799 14.4299 117.567 14.1972C117.336 13.9645 117.06 13.7799 116.757 13.6539C116.453 13.5279 116.128 13.4631 115.799 13.4631V13.4715Z" fill="#FFED00"/>
<path fill-rule="evenodd" clip-rule="evenodd" d="M114.523 17.5973V14.3228H115.923C116.18 14.3109 116.437 14.3412 116.684 14.4124C116.841 14.4724 116.973 14.5839 117.059 14.7286C117.155 14.883 117.205 15.0618 117.202 15.2436C117.208 15.465 117.131 15.6807 116.986 15.8481C116.812 16.0219 116.582 16.1289 116.337 16.1504C116.469 16.2248 116.589 16.3192 116.692 16.4303C116.833 16.5964 116.958 16.7743 117.067 16.962L117.468 17.6001H116.678L116.2 16.8893C116.094 16.7217 115.978 16.561 115.853 16.4079C115.798 16.3472 115.73 16.3002 115.654 16.2707C115.546 16.2413 115.433 16.229 115.321 16.2344H115.187V17.6001L114.523 17.5973ZM115.187 15.7082H115.674C115.873 15.7176 116.073 15.7045 116.27 15.669C116.345 15.6441 116.41 15.5949 116.455 15.5291C116.502 15.4568 116.525 15.3717 116.522 15.2856C116.529 15.1842 116.497 15.084 116.432 15.0057C116.367 14.935 116.279 14.8894 116.183 14.877C116.13 14.877 115.97 14.877 115.702 14.877H115.187V15.7082Z" fill="#FFED00"/>
</svg>
