<svg width="96" height="74" viewBox="0 0 96 74" fill="none" xmlns="http://www.w3.org/2000/svg">
<path d="M61.6212 6.23638H56.1612L56.4699 8.44598H61.6168C62.0093 8.44598 62.3269 8.76353 62.3269 9.15605V33.5366C62.3269 33.9291 62.0093 34.2467 61.6168 34.2467H50.4056V26.9519C50.4983 25.0952 51.3495 23.9529 52.7917 22.9738C54.0707 22.1049 54.8072 20.8744 54.8425 19.2999C54.9836 13.2665 54.3088 7.28164 53.7619 1.29235C53.7311 0.974804 53.4532 0.58228 53.1709 0.410276C52.3109 -0.12338 51.3671 0.551408 51.3936 1.64959C51.473 4.59572 51.57 7.53744 51.6582 10.4836C51.7023 11.9169 51.7596 13.3503 51.7861 14.7881C51.8037 15.6173 51.323 16.1641 50.6173 16.1818C49.8676 16.2038 49.3913 15.6746 49.3648 14.7969C49.3604 14.669 49.3648 14.5455 49.3648 14.4176C49.3692 10.2851 49.378 6.157 49.3824 2.02447C49.3824 0.820441 48.9767 0.21622 48.1696 0.21622C47.3669 0.21622 46.9611 0.82485 46.9611 2.02888C46.9567 6.23638 46.9567 10.4395 46.9479 14.647C46.9479 15.6658 46.4936 16.1994 45.691 16.173C44.95 16.1465 44.509 15.5599 44.5398 14.6249C44.6766 10.3204 44.8133 6.02028 44.9412 1.71575C44.9676 0.785157 44.5575 0.251503 43.8209 0.21622C43.0756 0.176526 42.6257 0.639616 42.5331 1.57021C42.3611 3.37405 42.1538 5.17789 42.0436 6.98615C41.8098 10.7791 41.6202 14.5764 41.4217 18.3693C41.3159 20.3849 42.0083 22.0299 43.7416 23.1458C45.122 24.0323 45.7395 25.1745 45.96 26.7976C45.9644 26.824 45.96 26.8417 45.96 26.8681V34.2599H34.74C34.3475 34.2599 34.0299 33.9424 34.0299 33.5499V9.15605C34.0299 8.76353 34.3475 8.44598 34.74 8.44598H39.9839L40.2265 6.23638H34.74C33.1302 6.23638 31.8203 7.54627 31.8203 9.15605V33.5366C31.8203 35.1464 33.1302 36.4563 34.74 36.4563H61.6168C63.2266 36.4563 64.5365 35.1464 64.5365 33.5366V9.15605C64.5409 7.54627 63.231 6.23638 61.6212 6.23638Z" fill="#EC681C"/>
<path d="M0.00882056 43.5684H3.02097C4.74535 43.5684 5.90964 43.6433 6.51383 43.7933C7.37823 44.005 8.08385 44.4416 8.63072 45.1031C9.17758 45.7646 9.45101 46.5937 9.45101 47.5949C9.45101 48.6004 9.18199 49.4339 8.64836 50.0866C8.11473 50.7393 7.37823 51.1803 6.43886 51.4052C5.75528 51.5684 4.47192 51.6522 2.59319 51.6522H1.51269V58.682H0V43.5684H0.00882056ZM1.5171 45.0502V50.1792L4.075 50.2101C5.1114 50.2101 5.86553 50.1175 6.34624 49.9278C6.82695 49.7382 7.20182 49.4339 7.47525 49.0149C7.74868 48.596 7.8854 48.1241 7.8854 47.6037C7.8854 47.0965 7.74868 46.6334 7.47525 46.2145C7.20182 45.7955 6.84019 45.4956 6.39035 45.3192C5.94051 45.1428 5.20842 45.0546 4.18526 45.0546H1.5171V45.0502Z" fill="#1E1E1C"/>
<path d="M21.774 43.1953C24.0629 43.1953 25.9769 43.9583 27.5205 45.4842C29.064 47.0101 29.8314 48.8933 29.8314 51.1248C29.8314 53.3387 29.064 55.213 27.5249 56.7566C25.9857 58.2958 24.1114 59.0675 21.8975 59.0675C19.6571 59.0675 17.7652 58.3002 16.2216 56.7654C14.678 55.2307 13.9062 53.374 13.9062 51.1954C13.9062 49.7444 14.2591 48.3993 14.9603 47.1557C15.6615 45.9164 16.6229 44.9462 17.8357 44.2449C19.0485 43.5437 20.3627 43.1953 21.774 43.1953ZM21.8402 44.6639C20.72 44.6639 19.6615 44.955 18.6604 45.5371C17.6593 46.1193 16.8743 46.9043 16.3142 47.8922C15.7497 48.88 15.4719 49.9782 15.4719 51.191C15.4719 52.9859 16.0937 54.503 17.3374 55.7423C18.581 56.9815 20.0849 57.599 21.8402 57.599C23.0133 57.599 24.0982 57.3167 25.0993 56.7434C26.096 56.1745 26.8766 55.3983 27.4367 54.4104C27.9968 53.4225 28.2746 52.3288 28.2746 51.1204C28.2746 49.9208 27.9924 48.8359 27.4367 47.8657C26.8766 46.8955 26.0916 46.1193 25.0728 45.5371C24.0585 44.955 22.9824 44.6639 21.8402 44.6639Z" fill="#1E1E1C"/>
<path d="M52.793 43.5684H54.3012V49.9058H61.997V43.5684H63.5097V58.682H61.997V51.3876H54.3012V58.682H52.793V43.5684Z" fill="#1E1E1C"/>
<path d="M75.4759 43.5684L82.5233 58.682H80.8916L78.5145 53.7074H72.0007L69.6456 58.682H67.9609L75.101 43.5684H75.4759ZM75.2862 46.779L72.6975 52.252H77.8662L75.2862 46.779Z" fill="#1E1E1C"/>
<path d="M95.527 58.6864H94.0187V51.6699H93.1631L87.7254 58.6864H85.8555L91.2932 51.6699C90.0275 51.661 89.0308 51.4979 88.3119 51.1803C87.5931 50.8628 87.0374 50.3909 86.6537 49.7647C86.2656 49.1384 86.0716 48.4151 86.0716 47.5949C86.0716 46.607 86.3538 45.7779 86.9139 45.0987C87.474 44.4239 88.2061 43.9829 89.1014 43.7756C89.6967 43.6389 90.8346 43.5684 92.5104 43.5684H95.5226V58.6864H95.527ZM91.355 45.0546C90.3186 45.0546 89.5777 45.1428 89.1322 45.3192C88.6868 45.5 88.3252 45.7955 88.0517 46.2101C87.7783 46.6246 87.6416 47.0833 87.6416 47.5904C87.6416 48.1108 87.7783 48.5827 88.0473 49.0017C88.3208 49.4207 88.6956 49.7294 89.1807 49.919C89.6659 50.1086 90.4112 50.2057 91.4211 50.2057L94.0231 50.1836V45.0458H91.355V45.0546Z" fill="#1E1E1C"/>
<path d="M34.932 58.682H47.0777H48.5683V57.2752H47.3908L41.1239 43.5684H40.5991L34.6674 57.2752H33.4414V58.682H34.932ZM40.8726 46.6775L45.6047 57.2752H36.3786L40.8726 46.6775Z" fill="#1E1E1C"/>
<path d="M14.8756 71.7436L17.6099 65.4326H18.0862L20.8073 71.7436H21.6585V73.4239H20.7764V72.5198H14.9153V73.4636H14.0156V71.7436H14.8756ZM17.8304 66.8351L15.7576 71.7436H19.8194L17.8304 66.8351Z" fill="#E30613"/>
<path d="M27.5546 65.25C28.6483 65.25 29.5524 65.6469 30.2713 66.4363C30.924 67.1552 31.2503 68.0108 31.2503 68.9987C31.2503 69.9909 30.9063 70.8553 30.2183 71.5962C29.5304 72.3372 28.6439 72.7076 27.559 72.7076C26.4697 72.7076 25.5832 72.3372 24.8953 71.5962C24.2073 70.8553 23.8633 69.9909 23.8633 68.9987C23.8633 68.0152 24.1896 67.164 24.8423 66.4452C25.5524 65.6469 26.4565 65.25 27.5546 65.25ZM27.5502 66.1409C26.7916 66.1409 26.1389 66.4187 25.5965 66.9832C25.0496 67.5433 24.7806 68.2225 24.7806 69.0163C24.7806 69.5279 24.9041 70.0086 25.1555 70.4496C25.4024 70.895 25.7376 71.2346 26.161 71.4772C26.5844 71.7197 27.0474 71.8388 27.5546 71.8388C28.0618 71.8388 28.5248 71.7197 28.9482 71.4772C29.3716 71.2346 29.7068 70.895 29.9537 70.4496C30.2007 70.0042 30.3286 69.5279 30.3286 69.0163C30.3286 68.2225 30.0552 67.5433 29.5083 66.9832C28.957 66.4231 28.3043 66.1409 27.5502 66.1409Z" fill="#E30613"/>
<path d="M41.1643 66.9077L40.441 67.3575C39.8148 66.5284 38.9636 66.1139 37.8831 66.1139C37.0187 66.1139 36.3043 66.3917 35.7309 66.9474C35.162 67.5031 34.8754 68.1778 34.8754 68.9717C34.8754 69.4876 35.0077 69.9728 35.2679 70.4314C35.5325 70.8857 35.8897 71.2385 36.3484 71.4899C36.807 71.7412 37.3186 71.8691 37.8875 71.8691C38.9283 71.8691 39.7795 71.4546 40.4366 70.6255L41.1599 71.1018C40.8203 71.6133 40.366 72.0059 39.7927 72.2881C39.2194 72.5704 38.5711 72.7115 37.8434 72.7115C36.7232 72.7115 35.7927 72.3543 35.0562 71.6442C34.3197 70.9298 33.9492 70.0654 33.9492 69.0466C33.9492 68.363 34.1212 67.7236 34.4652 67.1326C34.8092 66.5461 35.2855 66.083 35.8897 65.7566C36.4939 65.4259 37.1687 65.2627 37.914 65.2627C38.3814 65.2627 38.8357 65.3333 39.2723 65.4788C39.7089 65.6199 40.0794 65.8096 40.3837 66.0389C40.6968 66.2594 40.9526 66.5505 41.1643 66.9077Z" fill="#E30613"/>
<path d="M43.4766 65.4326H48.1425V66.222H46.2682V72.5198H45.3553V66.222H43.481V65.4326H43.4766Z" fill="#E30613"/>
<path d="M57.7694 65.4308V72.518H56.8697V71.3008C56.486 71.7638 56.0582 72.1166 55.5819 72.3504C55.1056 72.5841 54.5852 72.7032 54.0207 72.7032C53.0152 72.7032 52.1596 72.3416 51.4496 71.6139C50.7395 70.8862 50.3867 69.9998 50.3867 68.959C50.3867 67.9358 50.7439 67.067 51.4628 66.3393C52.1773 65.616 53.0416 65.25 54.0472 65.25C54.6293 65.25 55.1541 65.3735 55.626 65.6205C56.0979 65.8674 56.5125 66.2379 56.8653 66.7362V65.4352H57.7694V65.4308ZM54.1265 66.1276C53.6194 66.1276 53.1519 66.2511 52.7197 66.5025C52.2919 66.7495 51.9479 67.1023 51.6965 67.5521C51.4452 68.002 51.3173 68.4783 51.3173 68.9854C51.3173 69.4838 51.4452 69.9601 51.701 70.4187C51.9567 70.873 52.3007 71.2302 52.7329 71.4816C53.1651 71.733 53.6282 71.8609 54.1221 71.8609C54.6205 71.8609 55.0924 71.733 55.5422 71.4816C55.9921 71.2302 56.3316 70.8906 56.5742 70.4584C56.8123 70.0306 56.9358 69.5455 56.9358 69.0075C56.9358 68.1872 56.6668 67.5036 56.1244 66.9523C55.5775 66.4055 54.916 66.1276 54.1265 66.1276Z" fill="#E30613"/>
<path d="M63.208 72.5198H61.1484V65.4326H63.1727C63.9445 65.4326 64.5046 65.609 64.8442 65.9662C65.1838 66.3235 65.3557 66.738 65.3557 67.2143C65.3557 67.9332 65.0382 68.4227 64.4032 68.6785C65.3249 69.0049 65.7835 69.6355 65.7835 70.5617C65.7879 71.8715 64.928 72.5198 63.208 72.5198ZM62.0613 66.222V68.4315H62.6567C63.1948 68.4315 63.5476 68.4095 63.7152 68.3654C63.8827 68.3213 64.0371 68.2154 64.1826 68.0434C64.3282 67.8714 64.4032 67.6465 64.4032 67.3643C64.4032 67.0688 64.3282 66.8218 64.1738 66.6234C64.0195 66.4249 63.8607 66.3058 63.6931 66.275C63.5255 66.2397 63.1815 66.222 62.6567 66.222H62.0613ZM62.0613 69.2695V71.7524H63.0404C63.5035 71.7524 63.8298 71.7215 64.0283 71.6642C64.2267 71.6069 64.3943 71.479 64.5399 71.2849C64.681 71.0909 64.7516 70.8395 64.7516 70.544C64.7516 70.1559 64.6281 69.8472 64.3855 69.6179C64.1429 69.3885 63.821 69.2739 63.4197 69.2739H62.0613V69.2695Z" fill="#E30613"/>
<path d="M68.7188 65.4326H69.6317V68.4183L72.9172 65.4326H74.1874L70.5931 68.6785L74.474 72.5242H73.1818L69.9227 69.2474L69.6361 69.5032V72.5242H68.7232V65.4326H68.7188Z" fill="#E30613"/>
<path d="M83.8084 65.4308V72.518H82.9087V71.3008C82.5251 71.7638 82.0973 72.1166 81.621 72.3504C81.1447 72.5841 80.6243 72.7032 80.0598 72.7032C79.0542 72.7032 78.1987 72.3416 77.4886 71.6139C76.7786 70.8862 76.4258 69.9998 76.4258 68.959C76.4258 67.9358 76.783 67.067 77.5019 66.3393C78.2163 65.616 79.0807 65.25 80.0862 65.25C80.6684 65.25 81.1932 65.3735 81.6651 65.6205C82.137 65.8674 82.5515 66.2379 82.9043 66.7362V65.4352H83.8084V65.4308ZM80.1612 66.1276C79.654 66.1276 79.1866 66.2511 78.7544 66.5025C78.3266 66.7495 77.9826 67.1023 77.7312 67.5521C77.4798 68.002 77.3519 68.4783 77.3519 68.9854C77.3519 69.4838 77.4798 69.9601 77.7356 70.4187C77.9914 70.873 78.3354 71.2302 78.7676 71.4816C79.1998 71.733 79.6628 71.8609 80.1568 71.8609C80.6551 71.8609 81.127 71.733 81.5769 71.4816C82.0223 71.2302 82.3663 70.8906 82.6088 70.4584C82.847 70.0306 82.9705 69.5455 82.9705 69.0075C82.9705 68.1872 82.7015 67.5036 82.159 66.9523C81.6166 66.4055 80.9506 66.1276 80.1612 66.1276Z" fill="#E30613"/>
</svg>
