<svg width="123" height="51" viewBox="0 0 123 51" fill="none" xmlns="http://www.w3.org/2000/svg">
<path fill-rule="evenodd" clip-rule="evenodd" d="M16.8794 17.4244C17.8322 17.4605 18.7576 17.6026 19.6418 17.8393C17.5306 21.3973 15.5382 24.6351 13.3585 27.6429C11.2061 30.6125 8.72021 33.3587 5.90755 35.9675C5.58539 35.4511 5.30207 34.9123 5.05987 34.3486C9.74382 31.3407 14.2884 22.9937 16.8794 17.4244ZM20.3318 18.0445C21.1292 18.3083 21.8924 18.651 22.6075 19.0636C17.9305 26.9755 15.0904 32.3712 8.23125 38.6935C7.62805 38.1659 7.07968 37.5819 6.59301 36.9505C9.43537 34.2922 11.7157 31.0273 13.8931 28.0195C16.0866 24.9959 18.2069 21.6228 20.3318 18.0445ZM23.606 19.704C24.3372 20.2203 25.0066 20.8156 25.6053 21.4762C22.6807 24.7591 20.3638 27.8278 18.2618 30.7771C16.1734 33.7127 14.0165 37.0114 11.7248 40.8468C10.8885 40.5063 10.0957 40.0779 9.36225 39.5728C15.5519 34.4929 19.5321 26.5246 23.606 19.704ZM26.1879 22.1684C26.6814 22.7997 27.1133 23.4829 27.4743 24.2045C25.6533 27.2078 23.6586 30.6598 21.5131 33.4963C19.3699 36.3327 16.7538 39.2166 13.9639 41.5164C13.4384 41.4127 12.9266 41.2752 12.4285 41.1083C17.0394 33.8277 20.5695 28.4727 26.1879 22.1684ZM28.0249 25.4806C28.4225 26.5787 28.667 27.7489 28.7287 28.9687C26.7706 30.8695 24.6479 32.9777 22.9754 34.8536C21.2709 36.7634 19.3973 39.1557 17.6654 41.6945C17.2541 41.7351 16.8337 41.7554 16.411 41.7554C15.9358 41.7554 15.4674 41.7306 15.0058 41.6788C20.8459 36.795 24.1978 31.7759 28.0249 25.4806ZM28.6944 30.6643C28.2169 36.0396 24.1978 40.4138 18.9518 41.4961C21.9084 37.8705 24.9815 33.5324 28.6944 30.6643ZM4.60519 33.113C4.37899 32.3734 4.22133 31.6068 4.14136 30.8176C6.3074 27.1153 9.07208 23.3567 11.2907 20.6916C11.8984 19.961 13.2031 18.545 13.9662 17.6544C14.6425 17.5214 15.3349 17.4402 16.0454 17.4199C13.2671 23.2575 10.2351 29.4761 4.60519 33.113ZM4.10938 28.714C4.45667 23.8753 7.67146 19.8167 12.0881 18.1843C11.5626 18.8336 11.0485 19.4492 10.5298 20.0738C8.42318 22.6036 6.2023 25.271 4.10938 28.714Z" fill="#EA5C2C"/>
<path fill-rule="evenodd" clip-rule="evenodd" d="M48.8772 12.3128C48.8772 7.85435 52.4857 4.22461 56.9488 4.22461C61.4201 4.22461 65.0535 7.85435 65.0535 12.3128C65.0535 16.8044 61.4201 20.401 56.9488 20.401C52.4857 20.401 48.8772 16.8044 48.8772 12.3128ZM61.9178 12.3128C61.9178 9.27973 59.7444 7.1748 56.9488 7.1748C54.1863 7.1748 52.0046 9.27973 52.0046 12.3128C52.0046 15.3707 54.1863 17.4591 56.9488 17.4591C59.7444 17.4591 61.9178 15.3707 61.9178 12.3128ZM55.2488 41.3147H51.7151L48.4469 36.1958C47.7667 35.1221 47.3851 34.7641 46.2985 34.7641H44.8468V41.3147H41.7113V25.3837H44.8468V31.7344H46.2072C47.2939 31.7344 47.6754 31.3515 48.3556 30.3028L51.4911 25.3837H55.0248L51.2838 31.26C50.3796 32.5085 49.8736 32.9413 49.4506 33.166C49.9483 33.3991 50.4708 33.8069 51.375 35.2386L55.2488 41.3147ZM58.6083 41.3147V25.3837H63.8258C68.2719 25.3837 70.9015 28.0222 70.9015 31.5097C70.9015 35.0388 68.2719 37.6524 63.8258 37.6524H61.7355V41.3147H58.6083ZM61.7355 28.3468V34.6976H64.0747C66.0904 34.6976 67.9318 33.757 67.9318 31.5097C67.9318 29.3706 66.0904 28.3468 64.0747 28.3468H61.7355ZM73.531 33.3492C73.531 28.8712 77.1393 25.2255 81.602 25.2255C86.073 25.2255 89.7062 28.8712 89.7062 33.3492C89.7062 37.8605 86.073 41.4728 81.602 41.4728C77.1393 41.4728 73.531 37.8605 73.531 33.3492ZM86.5707 33.3492C86.5707 30.3028 84.3974 28.1886 81.602 28.1886C78.8398 28.1886 76.6582 30.3028 76.6582 33.3492C76.6582 36.4205 78.8398 38.518 81.602 38.518C84.3974 38.518 86.5707 36.4205 86.5707 33.3492ZM102.157 41.3147L98.2335 31.1435L94.2851 41.3147H90.8178L97.346 25.3837H99.1791L105.624 41.3147H102.157ZM118.913 41.3147L114.989 31.1435L111.041 41.3147H107.574L114.102 25.3837H115.943L122.38 41.3147H118.913ZM73.755 10.1124L77.6787 20.2591H81.1462L74.7007 4.36651H72.8674L66.3306 20.2591H69.8064L73.755 10.1124ZM90.5117 10.1124L94.4354 20.2591H97.9029L91.4657 4.36651H89.6241L83.0956 20.2591H86.5631L90.5117 10.1124ZM34.0488 20.2591V4.36651H39.25C43.6893 4.36651 46.323 7.00697 46.323 10.4778C46.323 13.9984 43.6893 16.6056 39.25 16.6056H37.1712V20.2591H34.0488ZM37.1712 7.3225V13.6579H39.5068C41.5193 13.6579 43.3497 12.728 43.3497 10.4778C43.3497 8.3438 41.5193 7.3225 39.5068 7.3225H37.1712Z" fill="#040404"/>
<path fill-rule="evenodd" clip-rule="evenodd" d="M13.1548 15.7657L13.4962 13.2441C13.6165 12.3556 13.6828 11.3964 13.6828 10.3928C13.6828 7.85538 13.2601 5.65699 12.6554 4.17185C12.3509 3.42391 12.042 2.95987 11.8079 2.71664C11.7934 2.70166 11.7799 2.68806 11.7672 2.67573C11.7545 2.68806 11.7409 2.70166 11.7265 2.71664C11.4924 2.95987 11.1834 3.42391 10.8789 4.17185C10.2742 5.65699 9.85155 7.85538 9.85155 10.3928C9.85155 12.1604 10.057 13.7799 10.395 15.1129L10.7916 16.6775L9.39207 17.4816C5.21037 19.884 2.40191 24.3899 2.40191 29.549C2.40191 37.2291 8.62783 43.455 16.3079 43.455C17.0558 43.455 17.7885 43.3962 18.5019 43.2833L21.2481 42.8486L23.6165 41.3822C27.5808 38.9277 30.2139 34.545 30.2139 29.549C30.2139 24.3899 27.4054 19.884 23.2237 17.4816L21.8242 16.6775L22.2209 15.1129C22.5588 13.7799 22.7643 12.1604 22.7643 10.3928C22.7643 7.85538 22.3416 5.65699 21.7369 4.17185C21.4324 3.42391 21.1235 2.95987 20.8893 2.71664C20.8749 2.70166 20.8613 2.68806 20.8486 2.67573C20.8359 2.68806 20.8224 2.70166 20.808 2.71664C20.5738 2.95987 20.2649 3.42391 19.9604 4.17185C19.3557 5.65699 18.933 7.85538 18.933 10.3928C18.933 11.3964 18.9993 12.3556 19.1196 13.2441L19.4611 15.7658L16.9186 15.6562C16.7164 15.6474 16.5128 15.643 16.3079 15.643C16.2171 15.643 16.1264 15.6439 16.0357 15.6456C15.9226 15.6478 15.8097 15.6513 15.6971 15.6562L13.1548 15.7657ZM17.4012 5.19748C18.1127 2.35523 19.3906 0.459961 20.8486 0.459961C23.0821 0.459961 24.8927 4.90705 24.8927 10.3928C24.8927 12.3175 24.6699 14.1142 24.2841 15.636C29.0994 18.4025 32.3424 23.5971 32.3424 29.549C32.3424 34.4976 30.1007 38.9225 26.5774 41.8638C25.9972 42.3482 25.3823 42.7923 24.7369 43.1919C25.3853 43.551 25.9275 44.0787 26.3041 44.7158C26.6696 45.3339 26.8793 46.055 26.8793 46.8251C26.8793 49.1174 25.021 50.9756 22.7288 50.9756C20.6883 50.9756 18.9918 49.5032 18.6437 47.563C18.6007 47.3235 18.5783 47.0769 18.5783 46.8251C18.5783 46.319 18.6689 45.834 18.8347 45.3856C18.0965 45.5024 17.3415 45.5689 16.5734 45.5814C16.4851 45.5828 16.3966 45.5835 16.3079 45.5835C7.45231 45.5835 0.273438 38.4046 0.273438 29.549C0.273438 23.5971 3.51639 18.4025 8.33176 15.636C7.94596 14.1142 7.72308 12.3175 7.72308 10.3928C7.72308 4.90705 9.53368 0.459961 11.7672 0.459961C13.2253 0.459961 14.5031 2.35523 15.2146 5.19748C15.593 6.70898 15.8113 8.48831 15.8113 10.3928C15.8113 10.7305 15.8044 11.0643 15.791 11.3933C15.7609 12.1323 15.6978 12.8474 15.6054 13.5297C15.7349 13.5241 15.8648 13.52 15.995 13.5176C16.0991 13.5156 16.2034 13.5146 16.3079 13.5146C16.5433 13.5146 16.7775 13.5196 17.0104 13.5297C16.918 12.8474 16.8549 12.1323 16.8248 11.3933C16.8114 11.0643 16.8045 10.7305 16.8045 10.3928C16.8045 8.48831 17.0228 6.70898 17.4012 5.19748ZM21.6482 43.9142L20.8311 46.1238C20.7513 46.3395 20.7067 46.5747 20.7067 46.8251C20.7067 47.9419 21.612 48.8472 22.7288 48.8472C23.8455 48.8472 24.7508 47.9419 24.7508 46.8251C24.7508 46.0661 24.3335 45.4016 23.7056 45.0538L21.6482 43.9142Z" fill="black"/>
</svg>
