<svg width="93" height="74" viewBox="0 0 93 74" fill="none" xmlns="http://www.w3.org/2000/svg">
<path fill-rule="evenodd" clip-rule="evenodd" d="M45.2658 0.21582C54.1542 0.32452 61.4897 2.77761 67.9691 7.75872C71.4535 10.4471 74.4107 13.7733 76.688 17.5652C77.1979 18.4054 77.1719 19.3602 76.6591 20.0403C76.1463 20.7205 75.2771 21.0568 74.4688 20.7205C73.9676 20.5014 73.5403 20.139 73.239 19.6775C70.1347 14.714 66.0788 10.8067 60.932 8.08041C55.6882 5.29828 50.1054 4.05264 44.1924 4.41546C37.81 4.80472 32.0737 6.99341 26.9371 10.8376C26.0114 11.5294 25.0626 11.5485 24.2761 10.911C23.9375 10.6301 23.6997 10.2438 23.5997 9.81201C23.4996 9.38017 23.5429 8.92693 23.7227 8.52256C23.9027 8.15148 24.1644 7.82732 24.4876 7.5751C29.388 3.85874 34.8549 1.50112 40.9244 0.646213C42.1448 0.474127 43.3803 0.373482 44.3253 0.296503L44.3254 0.296501C44.6871 0.267033 45.0063 0.241033 45.2658 0.21582ZM60.5955 35.0714L60.5956 35.0714L60.5964 35.0713L60.5969 35.0712C60.7553 35.0393 60.9186 35.0064 61.087 34.9675C61.0651 35.384 61.0675 35.8014 61.0943 36.2175C61.143 36.5924 61.1809 36.9711 61.2188 37.3501L61.2188 37.3503L61.2188 37.3504L61.2189 37.3505L61.2189 37.3506L61.2189 37.3507L61.2189 37.3509L61.2189 37.351L61.2189 37.3511L61.2189 37.3512L61.219 37.3513C61.3172 38.3338 61.4157 39.3179 61.7041 40.2409C62.2517 41.9992 63.9639 42.7601 65.6674 42.1035C66.582 41.7341 67.4374 41.2286 68.2053 40.6037C68.8776 40.0637 69.4903 39.4522 70.1036 38.8401C70.3611 38.5832 70.6187 38.3262 70.8808 38.0743C73.1825 41.3661 75.2656 41.4469 79.2506 38.3857C80.5369 39.7371 82.1042 39.7253 83.6412 39.0305C84.8723 38.4808 86.0313 37.7782 87.0917 36.9388C89.2869 35.1873 90.9717 32.864 91.9661 30.217C92.4238 29.014 91.9516 27.8432 90.8724 27.4114C89.7614 26.9634 88.6547 27.5289 88.1679 28.7775C87.4437 30.6357 86.2703 32.181 84.8218 33.503C84.2156 34.0222 83.5683 34.4899 82.8865 34.9014C82.7601 34.9851 82.5818 34.9899 82.4027 34.9946C82.3211 34.9968 82.2393 34.999 82.1622 35.0086C82.1622 34.9292 82.1569 34.8483 82.1517 34.7673C82.1399 34.5862 82.1282 34.4048 82.1752 34.2404C82.2718 33.8981 82.405 33.566 82.5382 33.2338L82.5383 33.2338L82.5383 33.2338L82.5383 33.2337L82.5383 33.2337L82.5383 33.2336L82.5383 33.2336L82.5384 33.2335L82.5384 33.2335L82.5384 33.2334L82.5384 33.2334L82.5385 33.233C82.587 33.1121 82.6355 32.9913 82.6822 32.8699C83.0603 31.8869 83.44 30.9054 83.8195 29.9244L83.8212 29.9202L83.8217 29.9188C84.5497 28.0372 85.2771 26.1572 85.9907 24.2708C86.6281 22.586 85.4548 21.001 83.7933 21.3859C83.3697 21.4841 82.9909 21.7797 82.5849 22.0965C82.384 22.2533 82.1765 22.4152 81.9536 22.561C80.0125 21.5945 78.0483 22.0116 76.2462 23.4071C73.8938 25.2359 72.4162 27.7022 71.3501 30.4579C71.1829 30.914 70.9511 31.343 70.662 31.7315C69.6582 33.0197 68.6442 34.2918 67.5737 35.5169C67.101 36.058 66.5788 36.5536 66.015 37.0887L66.0148 37.0889L66.0146 37.089L66.014 37.0896L66.0132 37.0903C65.7603 37.3304 65.4989 37.5785 65.2299 37.8422C65.1457 37.1589 65.1484 36.4954 65.151 35.8518V35.8517C65.1559 34.6468 65.1605 33.5115 64.594 32.4468C66.7511 31.1465 68.6147 29.4009 70.0638 27.3232C70.8402 26.2098 70.6548 24.9788 69.6814 24.2782C68.7311 23.5951 67.5085 23.9007 66.7364 24.9759C65.4979 26.6989 63.9928 28.1282 62.1097 29.1065C61.9526 29.1708 61.7915 29.2243 61.6273 29.2666C61.6512 29.1952 61.6697 29.1376 61.6855 29.0886L61.6855 29.0885L61.6855 29.0883L61.6856 29.0882C61.7109 29.0094 61.729 28.9531 61.7505 28.8979C63.199 25.1453 64.6476 21.3917 66.0961 17.6372C66.6089 16.3049 66.1903 15.1591 65.0387 14.7082C63.8871 14.2572 62.8065 14.8213 62.3067 16.1433L62.3066 16.1437L62.3064 16.1441L62.3063 16.1444L62.3061 16.1448L62.306 16.1452L62.3058 16.1456L62.3057 16.1459L62.3056 16.1463L62.3054 16.1467L62.3053 16.1471L62.3051 16.1474C61.8479 17.3535 61.3907 18.5596 60.9248 19.7627C60.8094 20.0617 60.6951 20.3613 60.5807 20.6609C59.5715 23.3041 58.5602 25.9528 56.8688 28.2472C55.8404 29.6467 54.7452 30.9966 53.6202 32.3831C53.1146 33.0064 52.6029 33.6371 52.0885 34.283C52.1091 33.8407 52.1373 33.4224 52.1644 33.0206L52.1645 33.0202L52.1645 33.0199L52.1645 33.0196L52.1645 33.0193L52.1645 33.019L52.1645 33.0187L52.1646 33.0185C52.2212 32.1787 52.2729 31.411 52.2406 30.6474C52.1523 28.5821 50.9311 27.1999 48.9379 26.746C47.7298 26.4698 46.6014 26.7269 45.5048 27.2586C45.2825 27.3771 45.0275 27.4164 44.7805 27.3702C43.5579 27.0001 42.8771 27.2336 42.0804 28.2722C40.5551 30.2655 39.0094 32.2382 37.4624 34.211C37.2363 34.4998 36.9937 34.7751 36.7159 35.0905L36.7156 35.0908L36.7156 35.0908L36.7155 35.0909L36.7154 35.0911L36.715 35.0915C36.5818 35.2427 36.4405 35.4031 36.289 35.5786C36.3019 35.3094 36.3163 35.06 36.3299 34.824L36.3299 34.8236L36.33 34.8232L36.33 34.8229L36.33 34.8228C36.3591 34.3177 36.3846 33.8743 36.3846 33.431C36.3745 30.9764 35.162 29.3268 32.9892 28.8994C31.5204 28.61 30.1732 29.0081 28.9332 29.8366C27.0906 31.069 25.8449 32.8199 24.7324 34.7046C24.2724 35.4839 23.8139 36.2641 23.3554 37.0444C21.6051 40.0232 19.8549 43.0019 18.0183 45.9271C16.2452 48.7474 14.3433 51.5002 11.9951 53.8886C11.7502 54.1585 11.4722 54.3954 11.168 54.5937C10.9218 54.7391 10.5727 54.8713 10.3322 54.7979C10.1873 54.7524 10.125 54.3058 10.0975 54.0326C10.0775 53.7639 10.1049 53.4938 10.1786 53.235C10.2647 52.9154 10.3456 52.5939 10.4266 52.2724L10.4266 52.2722C10.644 51.4085 10.8615 50.5447 11.1782 49.7184C12.882 45.2217 14.6127 40.737 16.344 36.2506L16.3441 36.2503L16.3442 36.25L16.3444 36.2497L16.3445 36.2494L16.3446 36.2491L16.3447 36.2488L16.3448 36.2485L16.3449 36.2482L16.345 36.2479L16.3451 36.2476C16.8876 34.842 17.4301 33.4361 17.9719 32.0297C18.3269 31.1077 18.6829 30.1862 19.0388 29.2648L19.0388 29.2647L19.0389 29.2646L19.0389 29.2645L19.0389 29.2644L19.039 29.2643L19.039 29.2642L19.039 29.2641L19.0391 29.2641L19.0391 29.264L19.0392 29.2639C19.781 27.3434 20.5227 25.4232 21.2558 23.4996C21.8019 22.066 21.1501 20.8189 19.7421 20.5398C18.8005 20.3562 17.9198 20.8997 17.504 21.972C15.9811 25.9048 14.4635 29.8395 12.9512 33.7762C12.449 35.0849 11.9437 36.3925 11.4384 37.7L11.4382 37.7005C10.0719 41.2359 8.70555 44.7713 7.40174 48.3302C6.50073 50.7921 5.95752 53.351 6.32691 56.023C6.6369 58.2734 8.23032 59.7614 10.2931 59.5043C11.1522 59.392 11.9722 59.0727 12.6847 58.573C13.7943 57.7725 14.9082 56.8823 15.7542 55.8144C17.4028 53.7336 18.9574 51.5767 20.5118 49.4202L20.5119 49.4201L20.5121 49.4199L20.513 49.4187L20.5131 49.4184L20.5133 49.4182L20.5135 49.4179L20.5137 49.4177L20.5138 49.4174L20.514 49.4172L20.5142 49.417L20.5144 49.4167L20.5145 49.4165C20.8795 48.9101 21.2445 48.4037 21.6107 47.8984C22.0387 47.3064 22.4284 46.6855 22.8049 46.0856C22.9712 45.8206 23.135 45.5597 23.2983 45.3072C23.4916 45.4716 23.6738 45.6414 23.8524 45.8078L23.8524 45.8079C24.2293 46.1591 24.59 46.4954 25.0047 46.7335C26.659 47.681 28.3393 47.4827 29.9907 46.6689C32.1244 45.6113 33.8656 44.0293 35.5517 42.3797C35.9312 42.0079 36.2891 41.6134 36.647 41.2188C36.8123 41.0366 36.9776 40.8543 37.1451 40.6742C37.1755 40.7459 37.1911 40.8232 37.1911 40.9012C37.1911 40.9792 37.1755 41.0564 37.1451 41.1281C35.5894 45.153 34.0389 49.1798 32.4938 53.2085C32.01 54.4674 32.4619 55.644 33.5643 56.0714C34.6884 56.5077 35.7878 55.9554 36.2716 54.7024C36.6417 53.7444 37.0082 52.7891 37.3755 51.8315L37.3759 51.8304L37.3776 51.826L37.3811 51.8168L37.3829 51.8123L37.3838 51.8098L37.3843 51.8085L37.3844 51.8081L37.3846 51.8078L37.3847 51.8074C37.6772 51.0449 37.9704 50.2808 38.2663 49.5127C38.8127 48.0947 39.3619 46.6768 39.925 45.223L39.9252 45.2225L39.9266 45.2188L39.9283 45.2145L40.3117 44.2246C42.2035 45.5731 44.0982 45.2749 46.0118 44.4787C47.9717 43.6664 49.5941 42.3738 51.1267 40.9401C51.6632 40.4388 52.1917 39.9287 52.7204 39.4185L52.722 39.417C52.975 39.1728 53.2281 38.9286 53.482 38.6853C53.3703 39.2075 53.2006 39.6992 53.0319 40.1881C52.949 40.4281 52.8664 40.6674 52.7911 40.9093C52.3246 42.4046 53.4806 43.7663 55.0088 43.5533C55.9055 43.4299 56.3908 42.8424 56.6993 42.0374C57.4728 40.0118 58.2478 37.9846 59.046 35.9678C59.1416 35.7255 59.3342 35.4331 59.5515 35.3465C59.8748 35.2166 60.2216 35.1467 60.5955 35.0714ZM27.0327 43.1494L26.6112 42.1373H26.6054C27.0399 38.5737 28.3668 35.674 30.9206 33.4178C31.1297 33.2329 31.4235 33.1463 31.7171 33.0598C31.8528 33.0198 31.9885 32.9798 32.1157 32.9301C32.1358 33.0635 32.1663 33.1996 32.197 33.3365L32.197 33.3366C32.2656 33.643 32.335 33.953 32.291 34.2433C31.8217 37.3721 30.46 40.0735 28.3567 42.3988C28.2819 42.4951 28.1912 42.5776 28.0887 42.6426C27.8351 42.7739 27.576 42.8949 27.3165 43.0161C27.2219 43.0604 27.1272 43.1046 27.0327 43.1494ZM74.7542 36.4188L74.3356 35.3817C74.831 31.7741 76.1463 28.7995 78.8348 26.5579C79.0017 26.4147 79.24 26.3507 79.4781 26.2868C79.5892 26.2569 79.7002 26.2271 79.8039 26.1892C79.8326 26.3008 79.8716 26.4135 79.9107 26.5263L79.9107 26.5263L79.9107 26.5264L79.9107 26.5264C79.9962 26.773 80.0817 27.0199 80.0589 27.2557C79.8228 29.6647 78.8653 31.8108 77.5615 33.8026C77.0599 34.5462 76.4874 35.238 75.8522 35.8679C75.6656 36.0602 75.3916 36.1647 75.1175 36.2692C74.9938 36.3163 74.87 36.3635 74.7542 36.4188ZM48.2405 31.3128C48.2648 31.4092 48.2892 31.5061 48.3194 31.589H48.3179C47.711 35.1085 46.3783 38.2079 43.7738 40.6537C43.5681 40.8476 43.106 41.0591 42.9684 40.9622C42.847 40.855 42.7501 40.7224 42.6843 40.5735C42.6185 40.4246 42.5854 40.263 42.5874 40.0999C42.7974 36.3923 44.3068 33.3355 47.1721 31.0014C47.3792 30.8295 47.7848 30.737 48.0108 30.8295C48.1313 30.8784 48.1857 31.0947 48.2405 31.3128ZM18.9743 60.6442C26.2297 68.8271 35.2711 72.9611 46.0987 73.0463C46.381 73.0463 46.6633 73.0478 46.9457 73.0493H46.946H46.9463H46.9466H46.9469H46.9472H46.9475H46.9478H46.9481H46.9484H46.9487C47.6303 73.0529 48.3123 73.0566 48.9958 73.0389C49.5259 73.0156 50.0544 72.9636 50.5791 72.8832C58.5013 71.8065 65.3791 68.4985 71.1284 62.8564C75.8545 58.2558 79.2207 52.4091 80.8483 45.9741C81.138 44.8563 80.815 43.9867 79.9661 43.4975C78.6856 42.7601 77.3326 43.4446 76.8981 45.0604C75.3104 51.0448 72.3279 56.2095 67.8069 60.3651C59.8572 67.6759 50.5211 70.4008 39.9669 68.4251C32.798 67.0839 26.8444 63.4587 22.0047 57.9311C21.6377 57.522 21.1626 57.2283 20.6358 57.085C19.7667 56.8705 18.9728 57.3318 18.5701 58.0824C18.1225 58.9168 18.25 59.826 18.9743 60.6442ZM2.4217 15.7787L2.42165 15.7787L2.42161 15.7786C2.30366 15.7453 2.18579 15.7119 2.07246 15.6718C1.15407 15.754 0.429784 16.2564 0.147314 17.0746C-0.142399 17.9148 0.0763339 18.8902 0.800616 19.3734C1.53794 19.8771 2.32966 20.2935 3.16033 20.6147C5.89812 21.6282 8.72861 21.4578 11.52 20.9687C13.7836 20.5727 16.0351 20.1259 18.286 19.6791L18.2861 19.6791C20.3104 19.2773 22.3342 18.8756 24.3659 18.5112C27.4629 17.9559 30.6034 17.693 33.7323 18.1337C35.4224 18.3755 37.0933 18.8053 38.7541 19.2325L38.7551 19.2328L38.7561 19.233L38.758 19.2335L38.758 19.2335L38.758 19.2335C38.982 19.2911 39.2058 19.3487 39.4295 19.4058C40.8404 19.7642 42.0369 19.0488 42.1818 17.6548C42.2803 16.6692 41.7211 15.8642 40.6304 15.4676C38.0823 14.5531 35.4154 14.0235 32.7154 13.8958C28.1756 13.6535 23.73 14.3703 19.293 15.2428C15.702 15.9435 12.1052 16.6133 8.48381 17.1524C6.62964 17.4286 4.78127 17.1554 3.13715 16.061C2.92775 15.9218 2.67457 15.8502 2.4217 15.7787ZM66.8885 53.6169C66.9911 53.6979 67.0943 53.7784 67.1974 53.859C67.4552 54.0602 67.713 54.2615 67.9633 54.4703C68.3139 54.7626 68.4616 55.1431 68.1314 55.55C67.8011 55.9569 67.4491 55.9407 67.0551 55.6337C66.4067 55.1266 65.756 54.6233 65.1053 54.1201L65.1051 54.1199L65.1049 54.1198L65.1047 54.1196L65.1045 54.1195L65.1043 54.1194L65.1041 54.1192L65.1039 54.1191C64.6052 53.7333 64.1065 53.3476 63.6089 52.9603C63.2106 52.6518 63.0599 52.2714 63.3859 51.8248C63.7621 51.286 64.1648 50.7669 64.5925 50.2692C64.8303 49.987 65.1489 49.7868 65.504 49.6965C65.8591 49.6063 66.2332 49.6303 66.5742 49.7654C67.2984 50.0151 67.6939 50.5468 67.8214 51.3268C67.8547 51.5281 68.1111 51.7749 68.3153 51.8483C68.5504 51.9303 68.8037 51.9579 69.0574 51.9854H69.0574L69.0576 51.9854C69.1899 51.9998 69.3224 52.0142 69.4525 52.0363C69.9131 52.1157 70.1927 52.4388 70.0319 52.8589C69.952 53.0037 69.84 53.1276 69.7048 53.2209C69.5695 53.3143 69.4147 53.3744 69.2526 53.3966C68.9069 53.4144 68.5586 53.3624 68.2093 53.3102L68.2091 53.3102C67.9831 53.2764 67.7567 53.2426 67.5302 53.2276C67.3856 53.2178 67.2397 53.264 67.0912 53.311C67.018 53.3342 66.9442 53.3575 66.8697 53.3745C66.8711 53.4568 66.8798 53.5376 66.8885 53.6169ZM64.8373 52.0422L65.8774 52.8149C65.9453 52.6503 66.0641 52.4961 66.1794 52.3466C66.4553 51.9887 66.7108 51.6573 66.199 51.274C65.6904 50.8906 65.4359 51.2516 65.1646 51.6365C65.0627 51.7811 64.9584 51.9291 64.8373 52.0422ZM40.7755 61.7226C40.8473 61.491 40.9141 61.2756 40.9809 61.0863C40.9302 59.9097 40.5695 59.2663 39.8206 58.9358C39.4712 58.7795 39.1032 58.6609 38.7368 58.5429L38.7367 58.5429C38.5076 58.4691 38.2791 58.3955 38.0563 58.313C37.5 58.1103 37.161 58.338 36.9959 58.8595L36.9096 59.1329L36.9095 59.1332C36.4919 60.4566 36.0739 61.7809 35.7067 63.1193C35.6415 63.3544 35.7893 63.8553 35.9529 63.9155C36.0204 63.9403 36.088 63.9653 36.1559 63.9904C36.9203 64.2735 37.7105 64.5661 38.4995 64.5985C38.9978 64.6176 39.7395 64.2107 39.9799 63.7701C40.3492 63.0973 40.5809 62.3502 40.7755 61.7226ZM39.0587 62.2864C38.7154 63.3397 38.3923 63.4733 37.2668 62.9622L38.2402 59.8304C39.4701 60.0478 39.6482 60.3372 39.3252 61.4565C39.2595 61.6827 39.1851 61.906 39.1108 62.1296L39.1107 62.1298C39.0933 62.182 39.0759 62.2342 39.0587 62.2864ZM62.495 57.6873L63.1498 58.4937L64.5751 57.3053C64.9127 57.0218 65.2705 56.9146 65.5891 57.3053C65.9078 57.6961 65.7688 58.0295 65.4211 58.3204C65.214 58.4951 65.0078 58.6713 64.8015 58.8475L64.8011 58.8478L64.8007 58.8482L64.8003 58.8485L64.7999 58.8488L64.7995 58.8492L64.7991 58.8495L64.7988 58.8498L64.7984 58.8501C64.3608 59.2239 63.9229 59.5979 63.4757 59.9597C63.0715 60.2873 62.6703 60.2447 62.3342 59.8348C61.4071 58.7087 60.4844 57.5795 59.566 56.4475C59.2372 56.0421 59.2459 55.6381 59.6544 55.29C60.3178 54.723 60.9885 54.1663 61.6621 53.611C61.9866 53.3437 62.3197 53.3025 62.6123 53.6551C62.9049 54.0076 62.8166 54.3278 62.4936 54.6069C62.1079 54.9406 61.7203 55.2724 61.308 55.6252L61.3076 55.6256L61.0218 55.8702L61.6447 56.6473C61.7674 56.5461 61.8869 56.4482 62.0039 56.3525L62.0076 56.3495L62.0079 56.3492L62.0084 56.3488L62.0096 56.3478L62.01 56.3475L62.0101 56.3474C62.2829 56.1241 62.5417 55.9123 62.7949 55.6954C63.1584 55.384 63.4887 55.3473 63.8016 55.7218C64.1333 56.1199 63.9378 56.4475 63.6191 56.731C63.2555 57.0453 62.8919 57.3568 62.495 57.6873ZM43.7912 61.5556C43.8047 61.3832 43.8188 61.2038 43.8346 60.9938C44.0332 61.0103 44.2249 61.0273 44.4115 61.0439L44.4118 61.044C44.8903 61.0865 45.3349 61.1261 45.7757 61.1451C46.203 61.1671 46.5275 60.9351 46.4319 60.4944C46.3826 60.2417 46.0828 59.8965 45.8524 59.8583C45.1487 59.7457 44.434 59.7029 43.7175 59.6601C43.5654 59.651 43.4132 59.6419 43.2609 59.6321C42.7583 59.5954 42.4324 59.8099 42.3918 60.3666C42.2836 61.8286 42.1731 63.2907 42.0601 64.7528C42.0137 65.333 42.2991 65.6283 42.8409 65.6782C43.3377 65.7237 43.8398 65.7592 44.3423 65.7947C44.6353 65.8154 44.9285 65.8361 45.2209 65.8589C45.6728 65.8941 46.0857 65.8163 46.1248 65.2713C46.1639 64.6837 45.7221 64.575 45.2556 64.5368C44.8076 64.5032 44.3606 64.4627 43.8821 64.4193L43.8818 64.4192L43.7498 64.4073L43.5579 64.39C43.5869 64.0257 43.6115 63.7216 43.6419 63.347C43.7968 63.3588 43.9471 63.3711 44.094 63.3831L44.0944 63.3832C44.4766 63.4144 44.8364 63.4438 45.1962 63.4587C45.6192 63.4763 45.9582 63.2574 45.8901 62.8256C45.8483 62.6806 45.7744 62.5473 45.6739 62.4357C45.5735 62.3242 45.4492 62.2375 45.3107 62.1822C44.9806 62.0823 44.6284 62.056 44.2521 62.028H44.252C44.0917 62.016 43.927 62.0038 43.7578 61.9853C43.769 61.8379 43.7799 61.6992 43.7912 61.5556ZM58.0247 60.1477C57.8799 59.2355 57.735 58.3233 57.6032 57.4111C57.5322 56.9366 57.567 56.4974 58.1624 56.4269C58.7577 56.3564 58.8866 56.7604 58.9547 57.2422C59.0262 57.7245 59.103 58.2062 59.1797 58.6878C59.3333 59.6511 59.4868 60.6143 59.5979 61.5828C59.6112 61.7747 59.5853 61.9673 59.5217 62.1486C59.4582 62.3298 59.3583 62.4958 59.2285 62.636C58.8171 63.0033 58.439 62.636 58.1175 62.3173C57.1044 61.3077 56.0904 60.3014 55.0755 59.2987C54.7148 58.9432 54.4497 58.5569 54.9002 58.1132C55.3507 57.6696 55.736 57.9575 56.0706 58.3233C56.3725 58.6531 56.6726 58.9859 56.9723 59.3183L56.9724 59.3184C57.268 59.6462 57.5633 59.9737 57.8596 60.2975L58.0247 60.1477ZM67.3825 45.8375L68.5906 47.3872L66.761 47.396C66.2946 47.399 65.9527 47.5532 65.9571 48.1055C65.9614 48.6578 66.3221 48.8047 66.7799 48.8047C67.0106 48.8075 67.2375 48.7907 67.463 48.774L67.5041 48.7709C68.7007 48.6798 69.8899 48.6049 70.9807 49.3203C71.3848 49.5862 71.8455 49.5553 72.0758 49.0397C72.3163 48.5006 72.0541 48.1187 71.5485 47.9586C70.5012 47.6252 69.8233 46.8731 69.2308 45.9917C68.9774 45.6343 68.7052 45.2911 68.4153 44.9635C68.1459 44.6374 67.8185 44.539 67.4679 44.8166C67.0927 45.1148 67.0927 45.4703 67.3825 45.8375ZM49.5217 64.2607C49.7229 64.2323 49.9154 64.2057 50.1019 64.18C50.5047 64.1243 50.8794 64.0726 51.2527 64.0154C51.7032 63.9463 52.0262 64.0829 52.0914 64.5735C52.1508 65.0216 51.9089 65.2507 51.483 65.308C51.1861 65.3509 50.8895 65.3958 50.593 65.4407C50.0563 65.522 49.5197 65.6032 48.9813 65.6723C48.4975 65.734 48.1904 65.499 48.1122 65.0025L48.0603 64.6374L48.0603 64.6372C47.8615 63.2384 47.6626 61.8382 47.4893 60.4356C47.4328 59.9832 47.6805 59.6835 48.1426 59.6365C48.6047 59.5895 48.8669 59.8216 48.9335 60.2902C49.0687 61.2558 49.2064 62.2213 49.3464 63.1869C49.3666 63.3118 49.3871 63.4352 49.408 63.5616C49.444 63.7787 49.4814 64.0044 49.5217 64.2607ZM55.0908 64.2156C55.1596 64.1404 55.229 64.0646 55.3014 63.9992C55.182 63.629 55.0651 63.264 54.9497 62.9033C54.522 61.567 54.1134 60.2904 53.6617 59.0284C53.6095 58.8668 53.0779 58.7126 52.8852 58.8051C52.6535 58.9168 52.3579 59.3471 52.413 59.5484C52.8476 61.1201 53.3314 62.6772 53.8616 64.2181C53.9296 64.4164 54.3758 64.6294 54.6018 64.5868C54.78 64.5551 54.9338 64.3871 55.0908 64.2156Z" fill="black"/>
</svg>
