<svg width="19" height="25" viewBox="0 0 19 25" fill="none" xmlns="http://www.w3.org/2000/svg">
<path d="M18.0252 12.2793C18.0252 13.0403 17.6843 13.71 17.1891 14.055L12.9681 16.9874L9.39648 12.2793L12.9681 7.57129L17.1891 10.5037C17.6843 10.8487 18.0252 11.5183 18.0252 12.2793Z" fill="#FFC107"/>
<path d="M9.3954 12.2797L0.628703 23.8367C0.336479 23.4714 0.166016 22.9743 0.166016 22.4263V2.13304C0.166016 1.58512 0.336479 1.08794 0.628703 0.722656L9.3954 12.2797Z" fill="#03A9F4"/>
<path d="M9.39561 12.2793L12.9672 16.9873C2.27429 24.3183 1.82621 25.4162 0.628906 23.8363L9.39561 12.2793Z" fill="#F44336"/>
<path d="M12.9672 7.57052L9.39561 12.2786L0.628906 0.721536C1.13056 0.0589602 1.93498 -0.0861368 2.57706 0.356257L12.9672 7.57052Z" fill="#4CAF50"/>
</svg>
