<svg width="20" height="24" viewBox="0 0 20 24" fill="none" xmlns="http://www.w3.org/2000/svg">
<path fill-rule="evenodd" clip-rule="evenodd" d="M10.7522 2.61044C11.6023 1.60893 13.0245 0.874896 14.2101 0.826316C14.3074 0.822479 14.3938 0.895871 14.4047 0.994657C14.5422 2.25549 14.0877 3.66306 13.1888 4.75984C12.3347 5.79854 11.0841 6.44363 9.92481 6.44363C9.84343 6.44355 9.76175 6.44038 9.68172 6.43408C9.59318 6.4272 9.52158 6.3589 9.50993 6.27037C9.32399 4.85571 10.0297 3.45223 10.7522 2.61044ZM2.75919 20.9448C0.614501 17.8301 -0.618423 12.6931 1.321 9.30807C2.34091 7.52386 4.19091 6.39726 6.14874 6.36828C6.16822 6.36791 6.188 6.3677 6.20809 6.3677C7.05012 6.3677 7.84552 6.68512 8.54728 6.96525L8.54784 6.96551C9.07237 7.17484 9.52533 7.35556 9.87444 7.35556C10.1852 7.35556 10.6358 7.17688 11.1575 6.96997C11.9133 6.67023 12.854 6.29718 13.836 6.29718C13.9618 6.29718 14.087 6.30331 14.2083 6.31549C15.0444 6.35164 17.1211 6.65222 18.476 8.64654C18.5046 8.68862 18.5151 8.74066 18.5051 8.79066C18.495 8.84074 18.4653 8.88456 18.4226 8.91217L18.4043 8.92368C18.0106 9.16862 16.0476 10.5201 16.0728 13.0723C16.1 16.2137 18.683 17.3663 18.9775 17.4874L18.9843 17.4902L18.9913 17.4933C19.0786 17.5336 19.1216 17.6336 19.0911 17.7252L19.0847 17.7457C18.9247 18.2612 18.4505 19.6102 17.5053 20.9995C16.5995 22.3302 15.5728 23.8385 13.9006 23.8698C13.1212 23.8845 12.5931 23.6547 12.0808 23.4318L12.0764 23.4299C11.5553 23.2031 11.0165 22.9685 10.1721 22.9685C9.2846 22.9685 8.71877 23.211 8.17166 23.4455L8.17085 23.4459C7.68375 23.6545 7.17992 23.8702 6.48286 23.8982C6.45412 23.8993 6.42606 23.8999 6.39807 23.8999C4.91356 23.8999 3.82972 22.502 2.75919 20.9448Z" fill="#B3B3B3"/>
</svg>
