<svg width="23" height="22" viewBox="0 0 23 22" fill="none" xmlns="http://www.w3.org/2000/svg">
<path d="M2.58751 21.6661C2.58751 21.6661 0.789062 21.6661 0.789062 19.8677C0.789062 18.0692 2.58751 12.6739 11.5798 12.6739C20.572 12.6739 22.3705 18.0692 22.3705 19.8677C22.3705 21.6661 20.572 21.6661 20.572 21.6661H2.58751ZM11.5798 10.8754C13.0107 10.8754 14.383 10.307 15.3948 9.29515C16.4067 8.28333 16.9751 6.911 16.9751 5.48007C16.9751 4.04913 16.4067 2.6768 15.3948 1.66498C14.383 0.653154 13.0107 0.0847168 11.5798 0.0847168C10.1488 0.0847168 8.7765 0.653154 7.76467 1.66498C6.75285 2.6768 6.18441 4.04913 6.18441 5.48007C6.18441 6.911 6.75285 8.28333 7.76467 9.29515C8.7765 10.307 10.1488 10.8754 11.5798 10.8754Z" fill="#D2DDE8"/>
</svg>
