<svg width="22" height="22" viewBox="0 0 22 22" fill="none" xmlns="http://www.w3.org/2000/svg">
<path d="M1.79845 21.6661C1.79845 21.6661 0 21.6661 0 19.8677C0 18.0692 1.79845 12.6739 10.7907 12.6739C19.7829 12.6739 21.5814 18.0692 21.5814 19.8677C21.5814 21.6661 19.7829 21.6661 19.7829 21.6661H1.79845ZM10.7907 10.8754C12.2216 10.8754 13.594 10.307 14.6058 9.29515C15.6176 8.28333 16.186 6.911 16.186 5.48007C16.186 4.04913 15.6176 2.6768 14.6058 1.66498C13.594 0.653154 12.2216 0.0847168 10.7907 0.0847168C9.35976 0.0847168 7.98743 0.653154 6.97561 1.66498C5.96379 2.6768 5.39535 4.04913 5.39535 5.48007C5.39535 6.911 5.96379 8.28333 6.97561 9.29515C7.98743 10.307 9.35976 10.8754 10.7907 10.8754Z" fill="#9199A2"/>
</svg>
