<svg width="22" height="22" viewBox="0 0 22 22" fill="none" xmlns="http://www.w3.org/2000/svg">
<path d="M2.00548 21.6661C2.00548 21.6661 0.207031 21.6661 0.207031 19.8677C0.207031 18.0692 2.00548 12.6739 10.9977 12.6739C19.99 12.6739 21.7884 18.0692 21.7884 19.8677C21.7884 21.6661 19.99 21.6661 19.99 21.6661H2.00548ZM10.9977 10.8754C12.4287 10.8754 13.801 10.307 14.8128 9.29515C15.8246 8.28333 16.3931 6.911 16.3931 5.48007C16.3931 4.04913 15.8246 2.6768 14.8128 1.66498C13.801 0.653154 12.4287 0.0847168 10.9977 0.0847168C9.56679 0.0847168 8.19447 0.653154 7.18264 1.66498C6.17082 2.6768 5.60238 4.04913 5.60238 5.48007C5.60238 6.911 6.17082 8.28333 7.18264 9.29515C8.19447 10.307 9.56679 10.8754 10.9977 10.8754Z" fill="#2B353F"/>
</svg>
