<svg width="42" height="65" viewBox="0 0 42 65" fill="none" xmlns="http://www.w3.org/2000/svg">
<path d="M35.625 64.9609C38.7266 64.9609 41.25 62.4376 41.25 59.3359V6.58594C41.25 3.48431 38.7266 0.960938 35.625 0.960938H5.625C2.52338 0.960938 0 3.48431 0 6.58594V59.3359C0 62.4376 2.52338 64.9609 5.625 64.9609H35.625Z" fill="#93DC66"/>
<path fill-rule="evenodd" clip-rule="evenodd" d="M33.0018 24.7168C33.3042 24.9453 33.5366 25.2637 33.6581 25.6367C33.8786 26.3164 33.6947 27.0605 33.1837 27.5586L28.2646 32.3535L29.4259 39.125C29.5465 39.8281 29.2572 40.5391 28.6798 40.959C28.107 41.375 27.3421 41.4355 26.7052 41.1016L20.6249 37.9043L14.5445 41.1016C13.9128 41.4336 13.1474 41.3789 12.5699 40.959C11.9925 40.5391 11.7035 39.8281 11.8241 39.125L12.9853 32.3535L8.06626 27.5586C7.55527 27.0605 7.37119 26.3164 7.59189 25.6367C7.81235 24.959 8.39927 24.4629 9.10544 24.3613L15.9034 23.373L18.9436 17.2129C19.2595 16.5723 19.9114 16.168 20.625 16.168C21.3386 16.168 21.9905 16.5723 22.3064 17.2129L25.3464 23.373L32.1446 24.3613C32.4619 24.4062 32.7551 24.5312 33.0018 24.7168ZM24.4018 32.0176C24.2975 31.4082 24.4991 30.7871 24.9411 30.3574L27.8454 27.5254L23.8316 26.9434C23.2208 26.8535 22.693 26.4707 22.4198 25.916L20.6249 22.2793L18.8297 25.916C18.5566 26.4707 18.0287 26.8535 17.4179 26.9434L13.404 27.5254L16.3086 30.3574C16.7505 30.7871 16.9521 31.4082 16.8479 32.0176L16.1622 36.0137L19.7523 34.127C20.0255 33.9824 20.3252 33.9121 20.6249 33.9121C20.9244 33.9121 21.2242 33.9824 21.4973 34.127L25.0875 36.0137L24.4018 32.0176ZM13.125 49.8359C14.1605 49.8359 15 48.9961 15 47.9609C15 46.9258 14.1605 46.0859 13.125 46.0859C12.0895 46.0859 11.25 46.9258 11.25 47.9609C11.25 48.9961 12.0895 49.8359 13.125 49.8359ZM22.5 47.9609C22.5 48.9961 21.6605 49.8359 20.625 49.8359C19.5895 49.8359 18.75 48.9961 18.75 47.9609C18.75 46.9258 19.5895 46.0859 20.625 46.0859C21.6605 46.0859 22.5 46.9258 22.5 47.9609ZM30 47.9609C30 48.9961 29.1605 49.8359 28.125 49.8359C27.0895 49.8359 26.25 48.9961 26.25 47.9609C26.25 46.9258 27.0895 46.0859 28.125 46.0859C29.1605 46.0859 30 46.9258 30 47.9609Z" fill="white"/>
<path fill-rule="evenodd" clip-rule="evenodd" d="M24.4001 32.0176C24.2958 31.4082 24.4974 30.7871 24.9395 30.3574L27.8438 27.5254L23.83 26.9434C23.2191 26.8535 22.6913 26.4707 22.4181 25.916L20.6232 22.2793L18.828 25.916C18.5549 26.4707 18.027 26.8535 17.4163 26.9434L13.4023 27.5254L16.3069 30.3574C16.7488 30.7871 16.9504 31.4082 16.8462 32.0176L16.1605 36.0137L19.7506 34.127C20.0238 33.9824 20.3235 33.9121 20.6232 33.9121C20.9227 33.9121 21.2225 33.9824 21.4956 34.127L25.0858 36.0137L24.4001 32.0176Z" fill="white"/>
<path fill-rule="evenodd" clip-rule="evenodd" d="M24.4001 32.0176C24.2958 31.4082 24.4974 30.7871 24.9395 30.3574L27.8438 27.5254L23.83 26.9434C23.2191 26.8535 22.6913 26.4707 22.4181 25.916L20.6232 22.2793L18.828 25.916C18.5549 26.4707 18.027 26.8535 17.4163 26.9434L13.4023 27.5254L16.3069 30.3574C16.7488 30.7871 16.9504 31.4082 16.8462 32.0176L16.1605 36.0137L19.7506 34.127C20.0238 33.9824 20.3235 33.9121 20.6232 33.9121C20.9227 33.9121 21.2225 33.9824 21.4956 34.127L25.0858 36.0137L24.4001 32.0176Z" fill="url(#paint0_linear)"/>
<defs>
<linearGradient id="paint0_linear" x1="13.4023" y1="29.1465" x2="27.8438" y2="29.1465" gradientUnits="userSpaceOnUse">
<stop stop-color="#F86390"/>
<stop offset="1" stop-color="#F4CF00"/>
</linearGradient>
</defs>
</svg>
