<svg width="55" height="57" viewBox="0 0 55 57" fill="none" xmlns="http://www.w3.org/2000/svg">
<path fill-rule="evenodd" clip-rule="evenodd" d="M0 5.49544V0.162109H9.26334L11.91 5.49544H50.3276C53.3151 5.49544 55.2322 8.69482 53.8407 11.3584L44.7864 28.6917C44.0998 30.006 42.7472 30.8288 41.2732 30.8288H19.85L17.8071 34.1221C17.2562 35.0103 17.8899 36.1621 18.9293 36.1621H50.2867V41.4954H16.8568C12.8389 41.4954 10.2859 37.1623 12.2098 33.6082L15.88 26.8288L5.29334 5.49544H0ZM22.4967 50.8288C22.4967 53.7743 20.1268 56.1621 17.2033 56.1621C14.2799 56.1621 11.91 53.7743 11.91 50.8288C11.91 47.8833 14.2799 45.4954 17.2033 45.4954C20.1268 45.4954 22.4967 47.8833 22.4967 50.8288ZM43.67 56.1621C46.5935 56.1621 48.9634 53.7743 48.9634 50.8288C48.9634 47.8833 46.5935 45.4954 43.67 45.4954C40.7466 45.4954 38.3767 47.8833 38.3767 50.8288C38.3767 53.7743 40.7466 56.1621 43.67 56.1621Z" fill="#93DC66"/>
</svg>
