<svg width="64" height="65" viewBox="0 0 64 65" fill="none" xmlns="http://www.w3.org/2000/svg">
<path d="M62.125 0.960938H54.5C53.4636 0.960938 52.625 1.79956 52.625 2.83594V4.71094H37.2796C36.503 2.53319 34.4412 0.960938 32 0.960938C29.5588 0.960938 27.497 2.53319 26.7204 4.71094H11.375V2.83594C11.375 1.79956 10.5364 0.960938 9.5 0.960938H1.875C0.838625 0.960938 0 1.79956 0 2.83594V10.3359C0 11.3723 0.838625 12.2109 1.875 12.2109H9.5C10.5364 12.2109 11.375 11.3723 11.375 10.3359V8.43594H19.0755C12.5684 12.5011 8.27775 19.6409 7.76487 27.6378C5.51513 28.3742 3.875 30.4684 3.875 32.9609C3.875 36.0627 6.39825 38.5859 9.5 38.5859C12.6017 38.5859 15.125 36.0627 15.125 32.9609C15.125 30.5684 13.6174 28.5343 11.5075 27.7226C12.1472 18.8069 18.3683 11.2924 27.0216 9.14844C27.9575 10.9581 29.8259 12.2109 32 12.2109C34.1741 12.2109 36.0425 10.9581 36.9784 9.14844C45.6317 11.2923 51.8527 18.8068 52.4925 27.7224C50.3826 28.5343 48.875 30.5684 48.875 32.9609C48.875 36.0627 51.3983 38.5859 54.5 38.5859C57.6017 38.5859 60.125 36.0627 60.125 32.9609C60.125 30.4684 58.4849 28.3742 56.2351 27.6378C55.7223 19.6409 51.4316 12.5261 44.9245 8.46094H52.625V10.3359C52.625 11.3723 53.4636 12.2109 54.5 12.2109H62.125C63.1614 12.2109 64 11.3723 64 10.3359V2.83594C64 1.79956 63.1614 0.960938 62.125 0.960938Z" fill="#93DC66"/>
<path d="M62.125 0.960938H54.5C53.4636 0.960938 52.625 1.79956 52.625 2.83594V4.71094H37.2796C36.503 2.53319 34.4412 0.960938 32 0.960938C29.5588 0.960938 27.497 2.53319 26.7204 4.71094H11.375V2.83594C11.375 1.79956 10.5364 0.960938 9.5 0.960938H1.875C0.838625 0.960938 0 1.79956 0 2.83594V10.3359C0 11.3723 0.838625 12.2109 1.875 12.2109H9.5C10.5364 12.2109 11.375 11.3723 11.375 10.3359V8.43594H19.0755C12.5684 12.5011 8.27775 19.6409 7.76487 27.6378C5.51513 28.3742 3.875 30.4684 3.875 32.9609C3.875 36.0627 6.39825 38.5859 9.5 38.5859C12.6017 38.5859 15.125 36.0627 15.125 32.9609C15.125 30.5684 13.6174 28.5343 11.5075 27.7226C12.1472 18.8069 18.3683 11.2924 27.0216 9.14844C27.9575 10.9581 29.8259 12.2109 32 12.2109C34.1741 12.2109 36.0425 10.9581 36.9784 9.14844C45.6317 11.2923 51.8527 18.8068 52.4925 27.7224C50.3826 28.5343 48.875 30.5684 48.875 32.9609C48.875 36.0627 51.3983 38.5859 54.5 38.5859C57.6017 38.5859 60.125 36.0627 60.125 32.9609C60.125 30.4684 58.4849 28.3742 56.2351 27.6378C55.7223 19.6409 51.4316 12.5261 44.9245 8.46094H52.625V10.3359C52.625 11.3723 53.4636 12.2109 54.5 12.2109H62.125C63.1614 12.2109 64 11.3723 64 10.3359V2.83594C64 1.79956 63.1614 0.960938 62.125 0.960938Z" fill="url(#paint0_linear)"/>
<path d="M44.7547 62.6353C43.7739 59.6342 40.9484 57.3359 37.6234 57.3359H26.3734C23.0484 57.3359 20.2229 59.6342 19.2422 62.6353C18.864 63.7924 19.8484 64.9609 21.0659 64.9609H42.9309C44.1483 64.9609 45.1328 63.7924 44.7547 62.6353Z" fill="#93DC66"/>
<path d="M48.56 39.4194L33.875 17.3936V35.1801C36.0528 35.9566 37.625 38.0182 37.625 40.4593C37.625 43.5608 35.1018 46.0838 32 46.0838C28.8983 46.0838 26.375 43.5608 26.375 40.4593C26.375 38.0182 27.9473 35.9566 30.125 35.1801V17.3936L15.44 39.4194C14.9438 40.1627 15.0426 41.1532 15.6744 41.7849C19.1165 45.2268 21.3168 49.6608 22.1659 54.417C23.4684 53.8887 24.885 53.5832 26.375 53.5832H37.625C39.115 53.5832 40.5317 53.8885 41.8342 54.4167C42.6833 49.6603 44.8835 45.2268 48.3257 41.7849C48.9574 41.1532 49.0563 40.1627 48.56 39.4194Z" fill="#93DC66"/>
<path d="M32 38.5859C30.9655 38.5859 30.125 39.4264 30.125 40.4609C30.125 41.4954 30.9655 42.3359 32 42.3359C33.0345 42.3359 33.875 41.4954 33.875 40.4609C33.875 39.4264 33.0345 38.5859 32 38.5859Z" fill="#93DC66"/>
<defs>
<linearGradient id="paint0_linear" x1="0" y1="19.7734" x2="64" y2="19.7734" gradientUnits="userSpaceOnUse">
<stop stop-color="#F86390"/>
<stop offset="1" stop-color="#F4CF00"/>
</linearGradient>
</defs>
</svg>
