<svg width="45" height="57" viewBox="0 0 45 57" fill="none" xmlns="http://www.w3.org/2000/svg">
<path d="M16.9119 5.60218L17.1943 5.49544C17.1943 2.54992 19.563 0.162109 22.4848 0.162109C25.4067 0.162109 27.7754 2.54992 27.7754 5.49544L28.0578 5.60218C34.2525 7.94401 38.3565 13.9139 38.3565 20.5835V38.8288C38.3565 42.5107 41.3173 45.4954 44.9697 45.4954V50.8288H27.7754C27.7754 53.7743 25.4067 56.1621 22.4848 56.1621C19.563 56.1621 17.1943 53.7743 17.1943 50.8288H0V45.4954C3.65236 45.4954 6.61319 42.5107 6.61319 38.8288V20.5835C6.61319 13.9139 10.7172 7.94401 16.9119 5.60218Z" fill="#93DC66"/>
</svg>
