<svg width="57" height="65" viewBox="0 0 57 65" fill="none" xmlns="http://www.w3.org/2000/svg">
<path fill-rule="evenodd" clip-rule="evenodd" d="M39.7321 0.960938H35.9219V8.08506H39.7321V0.960938ZM56.7921 18.0234H49.668V21.8337H56.7921V18.0234ZM45.875 9.18359L50.3212 4.73742L53.015 7.43126L48.5688 11.8774L45.875 9.18359ZM43.9237 13.8271C46.15 16.0534 46.1258 19.7002 43.8696 21.9565L42.9324 22.894L54.6784 34.64C54.9265 34.8881 54.9265 35.2903 54.6784 35.5384L49.7415 40.4752C49.4934 40.7232 49.0912 40.7232 48.8432 40.4752L17.2759 8.90788C17.0278 8.65982 17.0278 8.25763 17.2759 8.00957L22.2127 3.07277C22.4608 2.8247 22.8629 2.8247 23.111 3.07277L34.857 14.8188L35.7945 13.8813C36.8824 12.7934 38.3232 12.1859 39.8513 12.1707C41.3966 12.1512 42.8402 12.7436 43.9237 13.8271Z" fill="#93DC66"/>
<path fill-rule="evenodd" clip-rule="evenodd" d="M39.7321 0.960938H35.9219V8.08506H39.7321V0.960938ZM56.7921 18.0234H49.668V21.8337H56.7921V18.0234ZM45.875 9.18359L50.3212 4.73742L53.015 7.43126L48.5688 11.8774L45.875 9.18359ZM43.9237 13.8271C46.15 16.0534 46.1258 19.7002 43.8696 21.9565L42.9324 22.894L54.6784 34.64C54.9265 34.8881 54.9265 35.2903 54.6784 35.5384L49.7415 40.4752C49.4934 40.7232 49.0912 40.7232 48.8432 40.4752L17.2759 8.90788C17.0278 8.65982 17.0278 8.25763 17.2759 8.00957L22.2127 3.07277C22.4608 2.8247 22.8629 2.8247 23.111 3.07277L34.857 14.8188L35.7945 13.8813C36.8824 12.7934 38.3232 12.1859 39.8513 12.1707C41.3966 12.1512 42.8402 12.7436 43.9237 13.8271Z" fill="url(#paint0_linear)"/>
<path d="M1.16333 41.5908C0.0718667 42.6823 0.0718718 44.452 1.16334 45.5434L2.6484 47.0285L1.71096 47.9659C0.62314 49.0539 0.0154076 50.4947 0.000293647 52.0229C-0.0150743 53.5656 0.573225 55.0118 1.65673 56.0953C2.72651 57.1651 4.14964 57.7521 5.6703 57.7521C5.68973 57.7521 5.70967 57.752 5.72923 57.7519C7.25752 57.7366 8.69829 57.1292 9.78611 56.0412L10.7236 55.1038L12.2086 56.5888C13.3001 57.6803 15.0697 57.6803 16.1612 56.5888L16.8886 55.8614L25.0558 64.0285C26.1473 65.1199 27.9169 65.1199 29.0084 64.0285L31.6222 61.4147C32.7137 60.3232 32.7137 58.5536 31.6222 57.4621L8.63664 34.4768C8.53742 34.3775 8.37654 34.3775 8.27731 34.4768L1.16333 41.5908Z" fill="#93DC66"/>
<path d="M11.0938 31.5431L26.21 46.6593L43.2257 40.2443L17.5089 14.5273L11.0938 31.5431Z" fill="#93DC66"/>
<defs>
<linearGradient id="paint0_linear" x1="17.0898" y1="20.8111" x2="56.7921" y2="20.8111" gradientUnits="userSpaceOnUse">
<stop stop-color="#F86390"/>
<stop offset="1" stop-color="#F4CF00"/>
</linearGradient>
</defs>
</svg>
