<svg width="56" height="55" viewBox="0 0 56 55" fill="none" xmlns="http://www.w3.org/2000/svg">
<path fill-rule="evenodd" clip-rule="evenodd" d="M27.5758 54.4651C42.8053 54.4651 55.1515 42.3089 55.1515 27.3136C55.1515 12.3183 42.8053 0.162109 27.5758 0.162109C12.3462 0.162109 0 12.3183 0 27.3136C0 42.3089 12.3462 54.4651 27.5758 54.4651ZM27.5758 37.2473C23.3299 37.2473 19.4881 35.5666 16.69 32.8378L12.9035 36.6017C16.668 40.2731 21.8551 42.5451 27.5758 42.5451C33.2965 42.5451 38.4835 40.2731 42.248 36.6017L38.4615 32.8378C35.6635 35.5666 31.8216 37.2473 27.5758 37.2473ZM24.2129 19.3668C24.2129 21.1956 22.7073 22.678 20.85 22.678C18.9927 22.678 17.4871 21.1956 17.4871 19.3668C17.4871 17.5381 18.9927 16.0557 20.85 16.0557C22.7073 16.0557 24.2129 17.5381 24.2129 19.3668ZM34.3016 22.678C36.1589 22.678 37.6645 21.1956 37.6645 19.3668C37.6645 17.5381 36.1589 16.0557 34.3016 16.0557C32.4442 16.0557 30.9387 17.5381 30.9387 19.3668C30.9387 21.1956 32.4442 22.678 34.3016 22.678Z" fill="#93DC66"/>
</svg>
