<svg width="64" height="65" viewBox="0 0 64 65" fill="none" xmlns="http://www.w3.org/2000/svg">
<path d="M22.6211 57.3398V61.2148H16.9961C15.9597 61.2148 15.1211 62.0535 15.1211 63.0898C15.1211 64.1262 15.9597 64.9648 16.9961 64.9648H46.9961C48.0325 64.9648 48.8711 64.1262 48.8711 63.0898C48.8711 62.0535 48.0325 61.2148 46.9961 61.2148H41.3711V57.3398H22.6211Z" fill="#93DC66"/>
<path d="M1.875 53.582H62.125C63.1614 53.582 64 52.7434 64 51.707V10.457C64 9.42066 63.1614 8.58203 62.125 8.58203H58.25V40.457C58.25 43.5588 55.7267 46.082 52.625 46.082H11.375C8.27325 46.082 5.75 43.5588 5.75 40.457V8.58203H1.875C0.838625 8.58203 0 9.42066 0 10.457V51.707C0 52.7434 0.838625 53.582 1.875 53.582Z" fill="#93DC66"/>
<path d="M43.5269 30.0306L38.7148 28.4253L40.3188 33.2378L43.5269 30.0306Z" fill="#93DC66"/>
<path fill-rule="evenodd" clip-rule="evenodd" d="M52.625 0.960938C53.6614 0.960938 54.5 1.79956 54.5 2.83594V16.0859H9.5V2.83594C9.5 1.79956 10.3386 0.960938 11.375 0.960938H52.625ZM15.125 8.58594C15.125 9.62144 15.9645 10.4609 17 10.4609C18.0355 10.4609 18.875 9.62144 18.875 8.58594C18.875 7.55019 18.0355 6.71094 17 6.71094C15.9645 6.71094 15.125 7.55019 15.125 8.58594ZM22.625 8.58594C22.625 9.62144 23.4645 10.4609 24.5 10.4609C25.5355 10.4609 26.375 9.62144 26.375 8.58594C26.375 7.55019 25.5355 6.71094 24.5 6.71094C23.4645 6.71094 22.625 7.55019 22.625 8.58594ZM30.125 8.58594C30.125 9.62144 30.9645 10.4609 32 10.4609C33.0355 10.4609 33.875 9.62144 33.875 8.58594C33.875 7.55019 33.0355 6.71094 32 6.71094C30.9645 6.71094 30.125 7.55019 30.125 8.58594ZM11.375 42.3398C10.3386 42.3398 9.5 41.5012 9.5 40.4648V19.8398H54.5V40.4648C54.5 41.5012 53.6614 42.3398 52.625 42.3398H11.375ZM36.3434 23.687C35.6731 23.4598 34.9297 23.6412 34.4244 24.1392C33.9226 24.6408 33.7469 25.3842 33.9702 26.0582L37.7202 37.3082C37.9252 37.9252 38.438 38.3903 39.0679 38.5405C39.7151 38.6897 40.3736 38.4926 40.8256 38.0406L43.25 35.6162L45.6744 38.0406C46.4067 38.773 47.5934 38.773 48.3257 38.0406C49.0581 37.3082 49.0581 36.1216 48.3257 35.3892L45.9014 32.9648L48.3259 30.5406C48.7873 30.081 48.974 29.4163 48.8239 28.7846C48.6774 28.1511 48.2086 27.6421 47.5934 27.437L36.3434 23.687ZM30.125 25.4648C30.125 24.4285 29.2864 23.5898 28.25 23.5898H17C15.9636 23.5898 15.125 24.4285 15.125 25.4648C15.125 26.5012 15.9636 27.3398 17 27.3398H28.25C29.2864 27.3398 30.125 26.5012 30.125 25.4648ZM30.125 32.9648C30.125 31.9285 29.2864 31.0898 28.25 31.0898H17C15.9636 31.0898 15.125 31.9285 15.125 32.9648C15.125 34.0012 15.9636 34.8398 17 34.8398H28.25C29.2864 34.8398 30.125 34.0012 30.125 32.9648Z" fill="#93DC66"/>
<path fill-rule="evenodd" clip-rule="evenodd" d="M52.625 0.960938C53.6614 0.960938 54.5 1.79956 54.5 2.83594V16.0859H9.5V2.83594C9.5 1.79956 10.3386 0.960938 11.375 0.960938H52.625ZM15.125 8.58594C15.125 9.62144 15.9645 10.4609 17 10.4609C18.0355 10.4609 18.875 9.62144 18.875 8.58594C18.875 7.55019 18.0355 6.71094 17 6.71094C15.9645 6.71094 15.125 7.55019 15.125 8.58594ZM22.625 8.58594C22.625 9.62144 23.4645 10.4609 24.5 10.4609C25.5355 10.4609 26.375 9.62144 26.375 8.58594C26.375 7.55019 25.5355 6.71094 24.5 6.71094C23.4645 6.71094 22.625 7.55019 22.625 8.58594ZM30.125 8.58594C30.125 9.62144 30.9645 10.4609 32 10.4609C33.0355 10.4609 33.875 9.62144 33.875 8.58594C33.875 7.55019 33.0355 6.71094 32 6.71094C30.9645 6.71094 30.125 7.55019 30.125 8.58594ZM11.375 42.3398C10.3386 42.3398 9.5 41.5012 9.5 40.4648V19.8398H54.5V40.4648C54.5 41.5012 53.6614 42.3398 52.625 42.3398H11.375ZM36.3434 23.687C35.6731 23.4598 34.9297 23.6412 34.4244 24.1392C33.9226 24.6408 33.7469 25.3842 33.9702 26.0582L37.7202 37.3082C37.9252 37.9252 38.438 38.3903 39.0679 38.5405C39.7151 38.6897 40.3736 38.4926 40.8256 38.0406L43.25 35.6162L45.6744 38.0406C46.4067 38.773 47.5934 38.773 48.3257 38.0406C49.0581 37.3082 49.0581 36.1216 48.3257 35.3892L45.9014 32.9648L48.3259 30.5406C48.7873 30.081 48.974 29.4163 48.8239 28.7846C48.6774 28.1511 48.2086 27.6421 47.5934 27.437L36.3434 23.687ZM30.125 25.4648C30.125 24.4285 29.2864 23.5898 28.25 23.5898H17C15.9636 23.5898 15.125 24.4285 15.125 25.4648C15.125 26.5012 15.9636 27.3398 17 27.3398H28.25C29.2864 27.3398 30.125 26.5012 30.125 25.4648ZM30.125 32.9648C30.125 31.9285 29.2864 31.0898 28.25 31.0898H17C15.9636 31.0898 15.125 31.9285 15.125 32.9648C15.125 34.0012 15.9636 34.8398 17 34.8398H28.25C29.2864 34.8398 30.125 34.0012 30.125 32.9648Z" fill="url(#paint0_linear)"/>
<defs>
<linearGradient id="paint0_linear" x1="9.5" y1="21.6504" x2="54.5" y2="21.6504" gradientUnits="userSpaceOnUse">
<stop stop-color="#F86390"/>
<stop offset="1" stop-color="#F4CF00"/>
</linearGradient>
</defs>
</svg>
