<svg width="66" height="57" viewBox="0 0 66 57" fill="none" xmlns="http://www.w3.org/2000/svg">
<path d="M5.31456 47.2666C3.09875 47.2666 0.820312 49.0422 0.820312 52.1501C0.820312 54.9914 2.82359 56.9982 5.31456 56.9982C7.37073 56.9982 8.28713 55.6181 8.28713 55.6181V56.2197C8.28713 56.5041 8.55597 56.8213 8.88872 56.8213H10.375V47.4789H8.28713V48.6644C8.28713 48.6644 7.36305 47.2666 5.31456 47.2666ZM5.68648 49.1769C7.51056 49.1769 8.46739 50.7811 8.46739 52.1494C8.46739 53.6735 7.33134 55.1209 5.69035 55.1209C4.31859 55.1209 2.94447 54.0099 2.94447 52.1293C2.94447 50.4317 4.12699 49.1769 5.68648 49.1769Z" fill="black"/>
<path d="M13.2735 56.8222C12.9527 56.8222 12.6719 56.5921 12.6719 56.2206V47.4798H14.7597V48.6359C15.2329 47.9248 16.1572 47.2646 17.5759 47.2646C19.8948 47.2646 21.1296 49.1131 21.1296 50.8417V56.8222H19.6787C19.2982 56.8222 19.0417 56.5037 19.0417 56.1852V51.3017C19.0417 50.3436 18.4546 49.18 17.097 49.18C15.632 49.18 14.7597 50.5644 14.7597 51.8679V56.8222H13.2735Z" fill="black"/>
<path d="M27.2208 47.2674C25.005 47.2674 22.7266 49.043 22.7266 52.151C22.7266 54.9922 24.7298 56.9991 27.2208 56.9991C29.277 56.9991 30.1934 55.619 30.1934 55.619V56.2206C30.1934 56.5049 30.4622 56.8221 30.795 56.8221H32.2813V42.8086H30.1934V48.6653C30.1934 48.6653 29.2693 47.2674 27.2208 47.2674ZM27.5927 49.1778C29.4168 49.1778 30.3736 50.782 30.3736 52.1503C30.3736 53.6743 29.2376 55.1217 27.5966 55.1217C26.2248 55.1217 24.8507 54.0108 24.8507 52.1302C24.8507 50.4326 26.0332 49.1778 27.5927 49.1778Z" fill="black"/>
<path d="M35.1797 56.8216C34.8589 56.8216 34.5781 56.5915 34.5781 56.22V47.4792H36.666V49.0363C37.0254 48.164 37.8009 47.373 39.1785 47.373C39.5626 47.373 39.9217 47.4438 39.9217 47.4438V49.6025C39.9217 49.6025 39.4733 49.4255 38.9308 49.4255C37.4659 49.4255 36.666 50.81 36.666 52.1135V56.8216H35.1797Z" fill="black"/>
<path d="M52.5938 56.8228C52.273 56.8228 51.9922 56.5928 51.9922 56.2213V47.4805H54.0801V56.8228H52.5938Z" fill="black"/>
<path d="M60.2013 47.2674C57.9855 47.2674 55.707 49.043 55.707 52.151C55.707 54.9922 57.7103 56.9991 60.2013 56.9991C62.2574 56.9991 63.1739 55.619 63.1739 55.619V56.2206C63.1739 56.5049 63.4427 56.8221 63.7754 56.8221H65.2617V42.8086H63.1739V48.6653C63.1739 48.6653 62.2498 47.2674 60.2013 47.2674ZM60.5732 49.1778C62.3973 49.1778 63.3541 50.782 63.3541 52.1503C63.3541 53.6743 62.2181 55.1217 60.5771 55.1217C59.2053 55.1217 57.8312 54.0108 57.8312 52.1302C57.8312 50.4326 59.0137 49.1778 60.5732 49.1778Z" fill="black"/>
<path d="M53.0216 45.465C53.7842 45.465 54.4025 44.8467 54.4025 44.0841C54.4025 43.3214 53.7842 42.7031 53.0216 42.7031C52.2589 42.7031 51.6406 43.3214 51.6406 44.0841C51.6406 44.8467 52.2589 45.465 53.0216 45.465Z" fill="black"/>
<path d="M45.4286 47.2646C43.1081 47.2646 40.5586 48.9968 40.5586 52.1347C40.5586 54.9941 42.7302 56.9997 45.4236 56.9997C48.743 56.9997 50.3638 54.3313 50.3638 52.1528C50.3638 49.4795 48.2767 47.2646 45.4286 47.2646ZM45.4362 49.2144C47.0409 49.2144 48.2379 50.5078 48.2379 52.1406C48.2379 53.8016 46.9673 55.0834 45.441 55.0834C44.0242 55.0834 42.6469 53.9304 42.6469 52.1685C42.6469 50.3772 43.9568 49.2144 45.4362 49.2144Z" fill="black"/>
<path d="M48.7689 11.6305L54.1108 2.37669C54.4123 1.85791 54.23 1.19893 53.7183 0.897482C53.2065 0.596036 52.5405 0.771292 52.2461 1.29007L46.834 10.6631C42.7048 8.77724 38.0569 7.72567 33.0584 7.72567C28.06 7.72567 23.412 8.77724 19.2829 10.6631L13.8708 1.29007C13.5693 0.771292 12.9104 0.596036 12.3916 0.897482C11.8728 1.19893 11.6975 1.85791 11.999 2.37669L17.341 11.6305C8.12922 16.6219 1.88991 25.9459 0.859375 36.8611H65.2575C64.2269 25.9459 57.9876 16.6219 48.7689 11.6305ZM18.2734 27.8177C16.7801 27.8177 15.5743 26.6048 15.5743 25.1186C15.5743 23.6254 16.7871 22.4196 18.2734 22.4196C19.7666 22.4196 20.9724 23.6324 20.9724 25.1186C20.9794 26.6048 19.7666 27.8177 18.2734 27.8177ZM47.8365 27.8177C46.3433 27.8177 45.1374 26.6048 45.1374 25.1186C45.1374 23.6254 46.3503 22.4196 47.8365 22.4196C49.3297 22.4196 50.5355 23.6324 50.5355 25.1186C50.5425 26.6048 49.3297 27.8177 47.8365 27.8177Z" fill="#32DE84"/>
</svg>
