<svg width="49" height="60" viewBox="0 0 49 60" fill="none" xmlns="http://www.w3.org/2000/svg">
            <path d="M12.1031 58.7004C10.918 57.9157 9.86757 56.9462 8.99233 55.8291C8.02958 54.676 7.13756 53.4663 6.32112 52.2064C4.40521 49.4133 2.90271 46.3606 1.85971 43.142C0.606752 39.4034 0 35.8199 0 32.3149C0 28.4006 0.850956 24.9835 2.5153 22.1122C3.74905 19.868 5.56299 17.9925 7.76944 16.6799C9.90774 15.3583 12.3647 14.635 14.8814 14.5863C15.7624 14.5863 16.711 14.7134 17.7179 14.9564C18.4411 15.1602 19.3221 15.4817 20.3985 15.8817C21.7679 16.407 22.5212 16.7285 22.7767 16.8071C23.5788 17.0987 24.2532 17.2258 24.7829 17.2258C25.1849 17.2258 25.7522 17.0987 26.3965 16.9043C26.7591 16.7771 27.4429 16.5528 28.4216 16.136C29.3909 15.7845 30.1535 15.4836 30.7603 15.2593C31.6901 14.9863 32.5899 14.734 33.392 14.6069C34.343 14.4577 35.308 14.4182 36.268 14.4891C37.9316 14.5973 39.5703 14.9481 41.1314 15.5303C43.6843 16.5528 45.7487 18.1492 47.2854 20.4186C46.6359 20.8169 46.0263 21.2764 45.4651 21.7907C44.2433 22.8685 43.2027 24.1338 42.3825 25.5386C41.3104 27.4586 40.7546 29.6214 40.7689 31.8177C40.8083 34.5151 41.5034 36.891 42.8728 38.9454C43.8796 40.468 45.188 41.77 46.718 42.7719C47.5014 43.2972 48.1758 43.658 48.822 43.901C48.5195 44.8356 48.1964 45.7404 47.8151 46.6377C46.9502 48.6498 45.902 50.5789 44.6836 52.4008C43.5979 53.9691 42.7469 55.1375 42.1007 55.9151C41.0938 57.1021 40.1245 58.0087 39.1459 58.6406C38.0695 59.3509 36.7977 59.7304 35.5053 59.7304C34.6301 59.7638 33.755 59.6584 32.913 59.4182C32.1898 59.1752 31.4741 58.9116 30.7697 58.6107C30.0373 58.2759 29.2822 57.9929 28.5098 57.7639C26.6007 57.2759 24.5991 57.2727 22.6884 57.7545C21.9051 57.9788 21.1518 58.2405 20.4079 58.562C19.3616 58.9995 18.6666 59.293 18.2646 59.4182C17.4624 59.6519 16.6303 59.7977 15.7887 59.8463C14.4869 59.8463 13.2734 59.4762 12.0712 58.7266L12.1031 58.7004ZM29.2725 12.6871C27.5706 13.5339 25.9457 13.8947 24.3321 13.7769C24.0785 12.1599 24.3321 10.5056 25.0065 8.69421C25.5806 7.15962 26.4289 5.74103 27.5105 4.50693C28.6526 3.20779 30.0386 2.14294 31.5906 1.37208C33.2436 0.525279 34.8197 0.0672955 36.3262 0C36.5216 1.6936 36.3262 3.35917 35.7007 5.15932C35.1218 6.75064 34.2751 8.23235 33.1967 9.54101C32.096 10.8419 30.7452 11.9109 29.2237 12.6852L29.2725 12.6871Z" fill="#B3B3B3"/>
          </svg> 