<svg width="101" height="101" viewBox="0 0 101 101" fill="none" xmlns="http://www.w3.org/2000/svg">
<path d="M93.605 38.7458V25.3049L81.9648 18.5844L75.2443 6.94414H61.8034L50.1629 0.223663L47.7539 50.9857L50.1629 100.549L61.8034 93.8282H75.2443L81.9648 82.188L93.605 75.4673V62.0263L100.326 50.3861L93.605 38.7458Z" fill="#FDAE02"/>
<path d="M93.605 38.7458V25.3049L81.9648 18.5844L75.2443 6.94414H61.8034L50.1629 0.223663L47.7539 50.9857L50.1629 100.549L61.8034 93.8282H75.2443L81.9648 82.188L93.605 75.4673V62.0263L100.326 50.3861L93.605 38.7458Z" fill="url(#paint0_linear)"/>
<path d="M38.5221 6.94414H25.0812L18.361 18.5844L6.72047 25.3049V38.7458L0 50.3861L6.72047 62.0263V75.4673L18.361 82.188L25.0812 93.8282H38.5221L50.1624 100.549V0.223663L38.5221 6.94414Z" fill="#FDCB02"/>
<path d="M38.5221 6.94414H25.0812L18.361 18.5844L6.72047 25.3049V38.7458L0 50.3861L6.72047 62.0263V75.4673L18.361 82.188L25.0812 93.8282H38.5221L50.1624 100.549V0.223663L38.5221 6.94414Z" fill="url(#paint1_linear)"/>
<path d="M31.4272 44.6845C32.2718 42.1459 33.6571 39.8118 35.4914 37.8365C35.6433 37.6734 35.841 37.5579 36.0597 37.5047C36.2785 37.4514 36.5084 37.4627 36.7206 37.5371L41.0969 39.0624C41.4078 39.1703 41.7388 39.211 42.0673 39.1818C42.3957 39.1525 42.7138 39.0539 42.9997 38.8928C43.2856 38.7317 43.5324 38.5119 43.7233 38.2485C43.9142 37.9851 44.0446 37.6844 44.1056 37.3669L44.9422 32.9046C44.983 32.6877 45.0886 32.4875 45.2455 32.3293C45.4024 32.1711 45.6037 32.0621 45.8239 32.0159C48.4972 31.4605 51.2597 31.4605 53.9329 32.0159C54.3834 32.1104 54.731 32.4602 54.8146 32.9046L55.6513 37.3669C55.7112 37.6849 55.841 37.9863 56.0316 38.2503C56.2223 38.5143 56.4693 38.7345 56.7554 38.8958C57.0416 39.0571 57.3601 39.1555 57.689 39.1842C58.0178 39.213 58.3491 39.1714 58.66 39.0624L63.0363 37.5371C63.2484 37.4627 63.4784 37.4514 63.6971 37.5047C63.9158 37.5579 64.1136 37.6734 64.2655 37.8365C66.0964 39.8124 67.4833 42.1444 68.3264 44.6845C68.3961 44.8943 68.4002 45.1198 68.3383 45.332C68.2764 45.5442 68.1512 45.7335 67.9789 45.8757L64.4328 48.8096C64.1803 49.0176 63.9774 49.2771 63.8382 49.57C63.6989 49.8628 63.6268 50.182 63.6268 50.5051C63.6268 50.8281 63.6989 51.1473 63.8382 51.4402C63.9774 51.733 64.1803 51.9926 64.4328 52.2005L67.9789 55.1345C68.3328 55.4275 68.468 55.8971 68.3264 56.3257C67.4828 58.864 66.0987 61.1981 64.2655 63.1736C64.1136 63.3367 63.9158 63.4522 63.6971 63.5055C63.4784 63.5587 63.2484 63.5474 63.0363 63.473L58.66 61.9477C58.3491 61.8398 58.0181 61.7991 57.6896 61.8284C57.3611 61.8576 57.043 61.9562 56.7572 62.1173C56.4713 62.2784 56.2244 62.4982 56.0335 62.7616C55.8426 63.025 55.7122 63.3257 55.6513 63.6432L54.8146 68.1056C54.774 68.323 54.6681 68.5237 54.5105 68.682C54.3529 68.8403 54.1507 68.949 53.9297 68.9942C51.2575 69.5495 48.4961 69.5495 45.8239 68.9942C45.6031 68.9486 45.4012 68.8398 45.2436 68.6816C45.0861 68.5233 44.98 68.3229 44.939 68.1056L44.1056 63.6432C44.0457 63.3252 43.9159 63.0238 43.7252 62.7598C43.5346 62.4958 43.2876 62.2756 43.0014 62.1143C42.7153 61.9531 42.3967 61.8547 42.0679 61.8259C41.739 61.7971 41.4077 61.8387 41.0969 61.9477L36.7206 63.473C36.5084 63.5474 36.2785 63.5587 36.0597 63.5055C35.841 63.4522 35.6433 63.3367 35.4914 63.1736C33.6582 61.1981 32.2741 58.864 31.4304 56.3257C31.3608 56.1158 31.3567 55.8903 31.4186 55.6781C31.4805 55.4659 31.6056 55.2766 31.778 55.1345L35.3241 52.2005C35.576 51.9923 35.7785 51.7326 35.9174 51.4398C36.0563 51.147 36.1283 50.828 36.1283 50.5051C36.1283 50.1822 36.0563 49.8632 35.9174 49.5703C35.7785 49.2775 35.576 49.0179 35.3241 48.8096L31.778 45.8757C31.6056 45.7335 31.4805 45.5442 31.4186 45.332C31.3567 45.1198 31.3608 44.8943 31.4304 44.6845H31.4272ZM44.244 50.5051C44.244 51.9677 44.8372 53.3705 45.8933 54.4047C46.9494 55.439 48.3817 56.02 49.8752 56.02C51.3687 56.02 52.801 55.439 53.8571 54.4047C54.9132 53.3705 55.5065 51.9677 55.5065 50.5051C55.5065 49.0424 54.9132 47.6397 53.8571 46.6054C52.801 45.5712 51.3687 44.9901 49.8752 44.9901C48.3817 44.9901 46.9494 45.5712 45.8933 46.6054C44.8372 47.6397 44.244 49.0424 44.244 50.5051Z" fill="#EAF1FF"/>
<path fill-rule="evenodd" clip-rule="evenodd" d="M50.1644 69.4064C48.7103 69.4268 47.2543 69.2901 45.824 68.9932C45.6032 68.9476 45.4012 68.8392 45.2437 68.6805C45.086 68.5218 44.9801 68.3222 44.939 68.1038L44.1057 63.6414C44.0457 63.324 43.9159 63.0223 43.7252 62.7583C43.6514 62.6562 43.569 62.5603 43.4792 62.4724C43.3373 62.3325 43.1767 62.2115 43.0014 62.1125C42.7153 61.9523 42.3968 61.8533 42.0679 61.825C41.9065 61.8108 41.7446 61.814 41.5847 61.8328C41.4189 61.8533 41.2552 61.891 41.0969 61.946L36.7206 63.4717C36.5084 63.5455 36.2785 63.5581 36.0598 63.5047C35.841 63.4513 35.6433 63.335 35.4914 63.1731C33.6583 61.1965 32.2741 58.8631 31.4305 56.3239C31.3608 56.1149 31.3567 55.8887 31.4186 55.6766C31.4805 55.4644 31.6056 55.2759 31.778 55.1329L35.324 52.1993C35.576 51.9903 35.7785 51.7311 35.9175 51.4388C36.0564 51.1465 36.1283 50.8276 36.1283 50.5039C36.1283 50.1818 36.0564 49.8612 35.9175 49.569C35.7785 49.2767 35.576 49.0175 35.324 48.8085L31.778 45.8749C31.6056 45.7319 31.4805 45.5433 31.4186 45.3312C31.3943 45.2479 31.3801 45.1615 31.3762 45.0751C31.37 44.9431 31.3882 44.8111 31.4273 44.6839C32.2718 42.1447 33.6571 39.8113 35.4914 37.8346C35.6433 37.6728 35.841 37.5565 36.0598 37.5031C36.2785 37.4497 36.5084 37.4622 36.7206 37.5361L41.0969 39.0618C41.4078 39.1687 41.7388 39.2095 42.0673 39.1812C42.3957 39.1514 42.7139 39.0524 42.9998 38.8921C43.2856 38.7303 43.5324 38.5103 43.7233 38.2479C43.9143 37.9839 44.0447 37.6838 44.1057 37.3664L44.9423 32.9039C44.983 32.6871 45.0886 32.486 45.2455 32.3289C45.4025 32.1702 45.6038 32.0602 45.824 32.0146C47.2543 31.7176 48.7103 31.5809 50.1644 31.6014V44.9965C50.0684 44.9918 49.9719 44.9887 49.8752 44.9887C48.3817 44.9887 46.9494 45.5701 45.8934 46.604C44.8373 47.6379 44.244 49.041 44.244 50.5039C44.244 51.9668 44.8373 53.3699 45.8934 54.4038C46.9494 55.4377 48.3817 56.0191 49.8752 56.0191C49.9719 56.0191 50.0684 56.0159 50.1644 56.0112V69.4064Z" fill="#F9F9F9"/>
<defs>
<linearGradient id="paint0_linear" x1="47.7539" y1="100.483" x2="96.1686" y2="37.3533" gradientUnits="userSpaceOnUse">
<stop stop-color="#FA709A"/>
<stop offset="1" stop-color="#FEE140"/>
</linearGradient>
<linearGradient id="paint1_linear" x1="142.396" y1="74.2374" x2="94.1669" y2="-39.6531" gradientUnits="userSpaceOnUse">
<stop stop-color="#FA709A"/>
<stop offset="1" stop-color="#FEE140"/>
</linearGradient>
</defs>
</svg>
