<svg width="64" height="65" viewBox="0 0 64 65" fill="none" xmlns="http://www.w3.org/2000/svg">
<path d="M22.6211 56.3789V60.2539H16.9961C15.9597 60.2539 15.1211 61.0925 15.1211 62.1289C15.1211 63.1653 15.9597 64.0039 16.9961 64.0039H46.9961C48.0325 64.0039 48.8711 63.1653 48.8711 62.1289C48.8711 61.0925 48.0325 60.2539 46.9961 60.2539H41.3711V56.3789H22.6211Z" fill="#7AC143"/>
<path d="M1.875 52.6211H62.125C63.1614 52.6211 64 51.7825 64 50.7461V9.49609C64 8.45972 63.1614 7.62109 62.125 7.62109H58.25V39.4961C58.25 42.5978 55.7267 45.1211 52.625 45.1211H11.375C8.27325 45.1211 5.75 42.5978 5.75 39.4961V7.62109H1.875C0.838625 7.62109 0 8.45972 0 9.49609V50.7461C0 51.7825 0.838625 52.6211 1.875 52.6211Z" fill="#7AC143"/>
<path d="M45 28.6685L37 26L39.6666 34L45 28.6685Z" fill="#7AC143"/>
<path fill-rule="evenodd" clip-rule="evenodd" d="M52.625 0C53.6614 0 54.5 0.838625 54.5 1.875V15.125H9.5V1.875C9.5 0.838625 10.3386 0 11.375 0H52.625ZM15.125 7.625C15.125 8.6605 15.9645 9.5 17 9.5C18.0355 9.5 18.875 8.6605 18.875 7.625C18.875 6.58925 18.0355 5.75 17 5.75C15.9645 5.75 15.125 6.58925 15.125 7.625ZM22.625 7.625C22.625 8.6605 23.4645 9.5 24.5 9.5C25.5355 9.5 26.375 8.6605 26.375 7.625C26.375 6.58925 25.5355 5.75 24.5 5.75C23.4645 5.75 22.625 6.58925 22.625 7.625ZM30.125 7.625C30.125 8.6605 30.9645 9.5 32 9.5C33.0355 9.5 33.875 8.6605 33.875 7.625C33.875 6.58925 33.0355 5.75 32 5.75C30.9645 5.75 30.125 6.58925 30.125 7.625ZM11.375 41.3789C10.3386 41.3789 9.5 40.5403 9.5 39.5039V18.8789H54.5V39.5039C54.5 40.5403 53.6614 41.3789 52.625 41.3789H11.375ZM36.3434 22.726C35.6731 22.4989 34.9297 22.6803 34.4244 23.1783C33.9226 23.6799 33.7469 24.4233 33.9702 25.0973L37.7202 36.3473C37.9253 36.9643 38.438 37.4294 39.0679 37.5795C39.7151 37.7288 40.3736 37.5317 40.8256 37.0797L43.25 34.6553L45.6744 37.0797C46.4067 37.812 47.5934 37.812 48.3257 37.0797C49.0581 36.3473 49.0581 35.1607 48.3257 34.4283L45.9014 32.0039L48.3259 29.5797C48.7873 29.12 48.974 28.4554 48.8239 27.8237C48.6774 27.1902 48.2086 26.6812 47.5934 26.476L36.3434 22.726ZM30.125 24.5039C30.125 23.4675 29.2864 22.6289 28.25 22.6289H17C15.9636 22.6289 15.125 23.4675 15.125 24.5039C15.125 25.5403 15.9636 26.3789 17 26.3789H28.25C29.2864 26.3789 30.125 25.5403 30.125 24.5039ZM30.125 32.0039C30.125 30.9675 29.2864 30.1289 28.25 30.1289H17C15.9636 30.1289 15.125 30.9675 15.125 32.0039C15.125 33.0403 15.9636 33.8789 17 33.8789H28.25C29.2864 33.8789 30.125 33.0403 30.125 32.0039Z" fill="#7AC143"/>
<path fill-rule="evenodd" clip-rule="evenodd" d="M52.625 0C53.6614 0 54.5 0.838625 54.5 1.875V15.125H9.5V1.875C9.5 0.838625 10.3386 0 11.375 0H52.625ZM15.125 7.625C15.125 8.6605 15.9645 9.5 17 9.5C18.0355 9.5 18.875 8.6605 18.875 7.625C18.875 6.58925 18.0355 5.75 17 5.75C15.9645 5.75 15.125 6.58925 15.125 7.625ZM22.625 7.625C22.625 8.6605 23.4645 9.5 24.5 9.5C25.5355 9.5 26.375 8.6605 26.375 7.625C26.375 6.58925 25.5355 5.75 24.5 5.75C23.4645 5.75 22.625 6.58925 22.625 7.625ZM30.125 7.625C30.125 8.6605 30.9645 9.5 32 9.5C33.0355 9.5 33.875 8.6605 33.875 7.625C33.875 6.58925 33.0355 5.75 32 5.75C30.9645 5.75 30.125 6.58925 30.125 7.625ZM11.375 41.3789C10.3386 41.3789 9.5 40.5403 9.5 39.5039V18.8789H54.5V39.5039C54.5 40.5403 53.6614 41.3789 52.625 41.3789H11.375ZM36.3434 22.726C35.6731 22.4989 34.9297 22.6803 34.4244 23.1783C33.9226 23.6799 33.7469 24.4233 33.9702 25.0973L37.7202 36.3473C37.9253 36.9643 38.438 37.4294 39.0679 37.5795C39.7151 37.7288 40.3736 37.5317 40.8256 37.0797L43.25 34.6553L45.6744 37.0797C46.4067 37.812 47.5934 37.812 48.3257 37.0797C49.0581 36.3473 49.0581 35.1607 48.3257 34.4283L45.9014 32.0039L48.3259 29.5797C48.7873 29.12 48.974 28.4554 48.8239 27.8237C48.6774 27.1902 48.2086 26.6812 47.5934 26.476L36.3434 22.726ZM30.125 24.5039C30.125 23.4675 29.2864 22.6289 28.25 22.6289H17C15.9636 22.6289 15.125 23.4675 15.125 24.5039C15.125 25.5403 15.9636 26.3789 17 26.3789H28.25C29.2864 26.3789 30.125 25.5403 30.125 24.5039ZM30.125 32.0039C30.125 30.9675 29.2864 30.1289 28.25 30.1289H17C15.9636 30.1289 15.125 30.9675 15.125 32.0039C15.125 33.0403 15.9636 33.8789 17 33.8789H28.25C29.2864 33.8789 30.125 33.0403 30.125 32.0039Z" fill="#93DC66"/>
<path fill-rule="evenodd" clip-rule="evenodd" d="M52.625 0C53.6614 0 54.5 0.838625 54.5 1.875V15.125H9.5V1.875C9.5 0.838625 10.3386 0 11.375 0H52.625ZM15.125 7.625C15.125 8.6605 15.9645 9.5 17 9.5C18.0355 9.5 18.875 8.6605 18.875 7.625C18.875 6.58925 18.0355 5.75 17 5.75C15.9645 5.75 15.125 6.58925 15.125 7.625ZM22.625 7.625C22.625 8.6605 23.4645 9.5 24.5 9.5C25.5355 9.5 26.375 8.6605 26.375 7.625C26.375 6.58925 25.5355 5.75 24.5 5.75C23.4645 5.75 22.625 6.58925 22.625 7.625ZM30.125 7.625C30.125 8.6605 30.9645 9.5 32 9.5C33.0355 9.5 33.875 8.6605 33.875 7.625C33.875 6.58925 33.0355 5.75 32 5.75C30.9645 5.75 30.125 6.58925 30.125 7.625ZM11.375 41.3789C10.3386 41.3789 9.5 40.5403 9.5 39.5039V18.8789H54.5V39.5039C54.5 40.5403 53.6614 41.3789 52.625 41.3789H11.375ZM36.3434 22.726C35.6731 22.4989 34.9297 22.6803 34.4244 23.1783C33.9226 23.6799 33.7469 24.4233 33.9702 25.0973L37.7202 36.3473C37.9253 36.9643 38.438 37.4294 39.0679 37.5795C39.7151 37.7288 40.3736 37.5317 40.8256 37.0797L43.25 34.6553L45.6744 37.0797C46.4067 37.812 47.5934 37.812 48.3257 37.0797C49.0581 36.3473 49.0581 35.1607 48.3257 34.4283L45.9014 32.0039L48.3259 29.5797C48.7873 29.12 48.974 28.4554 48.8239 27.8237C48.6774 27.1902 48.2086 26.6812 47.5934 26.476L36.3434 22.726ZM30.125 24.5039C30.125 23.4675 29.2864 22.6289 28.25 22.6289H17C15.9636 22.6289 15.125 23.4675 15.125 24.5039C15.125 25.5403 15.9636 26.3789 17 26.3789H28.25C29.2864 26.3789 30.125 25.5403 30.125 24.5039ZM30.125 32.0039C30.125 30.9675 29.2864 30.1289 28.25 30.1289H17C15.9636 30.1289 15.125 30.9675 15.125 32.0039C15.125 33.0403 15.9636 33.8789 17 33.8789H28.25C29.2864 33.8789 30.125 33.0403 30.125 32.0039Z" fill="url(#paint0_linear)"/>
<defs>
<linearGradient id="paint0_linear" x1="9.5" y1="41.3518" x2="53.5563" y2="-0.982106" gradientUnits="userSpaceOnUse">
<stop stop-color="#FA709A"/>
<stop offset="1" stop-color="#FEE140"/>
</linearGradient>
</defs>
</svg>
