<svg width="51" height="64" viewBox="0 0 51 64" fill="none" xmlns="http://www.w3.org/2000/svg">
<path d="M45.9493 42.8276C43.9757 41.4668 37.0864 37.7858 34.1443 36.2139L34.0827 36.1809C33.9403 36.1047 33.7842 36.0674 33.6291 36.0674C33.4178 36.0674 33.2079 36.1368 33.0349 36.2726C31.4913 37.4839 29.8018 38.3001 28.013 38.6984C27.697 38.7688 27.4379 38.9935 27.3225 39.2966L25.5 44.1004L23.6768 39.2966C23.5622 38.9937 23.3027 38.7688 22.9862 38.6984C21.1976 38.3001 19.5081 37.4839 17.9641 36.2725C17.7911 36.1368 17.5814 36.0674 17.3701 36.0674C17.2149 36.0674 17.0592 36.1049 16.9166 36.1811C14.0077 37.7352 7.02856 41.4936 5.05852 42.8222C1.7256 45.0674 0.270405 53.1894 0.0122367 54.7947C-0.0134675 54.954 0.00154226 55.1168 0.0552022 55.269C0.174718 55.6054 3.23202 63.5128 25.5001 63.5128C47.7673 63.5128 50.8256 55.6054 50.9443 55.269C50.9988 55.1167 51.0132 54.9538 50.9875 54.7947C50.2869 50.4364 48.8437 44.8224 45.9493 42.8276Z" fill="#7AC143"/>
<path d="M6.9915 28.5346H10.0833C11.2473 28.5346 12.1909 27.5907 12.1909 26.4263V17.4961C12.1909 16.7182 11.7685 16.0407 11.1419 15.6754C11.8322 8.36281 14.6542 3.2957 25.5004 3.2957C31.7289 3.2957 35.6174 4.89349 37.737 8.32379C38.97 10.3199 39.5631 12.8982 39.8404 15.6863C39.2237 16.054 38.8094 16.7261 38.8094 17.4961V26.4263C38.8094 27.4305 39.5121 28.2686 40.4517 28.4814C39.0882 29.3722 36.2666 30.2829 30.4255 30.2829C29.952 30.2829 29.4591 30.2769 28.9448 30.2645C28.6437 29.6865 28.0406 29.2909 27.3438 29.2909H24.767C23.7707 29.2909 22.9625 30.0985 22.9625 31.0949C22.9625 32.0912 23.7709 32.8985 24.767 32.8985H27.3438C27.9457 32.8985 28.4778 32.6027 28.805 32.1496C29.3478 32.1633 29.8792 32.1719 30.3927 32.1719C36.9777 32.1719 41.1641 31.048 42.8589 28.8178C42.9313 28.7228 42.9968 28.6283 43.0574 28.5346H44.0095C45.1736 28.5346 46.1171 27.5907 46.1171 26.4263V17.4961C46.1171 16.3321 45.1736 15.3881 44.0095 15.3881H42.8465C42.5196 12.0194 41.7943 9.15158 40.3029 6.73782C37.6178 2.39192 32.7757 0.279297 25.5002 0.279297C18.2244 0.279297 13.3825 2.39192 10.6972 6.73782C9.20582 9.15139 8.48084 12.019 8.15344 15.3881H6.99131C5.82693 15.3881 4.88281 16.3321 4.88281 17.4961V26.4263C4.883 27.5907 5.82712 28.5346 6.9915 28.5346Z" fill="#7AC143"/>
<path d="M6.9915 28.5346H10.0833C11.2473 28.5346 12.1909 27.5907 12.1909 26.4263V17.4961C12.1909 16.7182 11.7685 16.0407 11.1419 15.6754C11.8322 8.36281 14.6542 3.2957 25.5004 3.2957C31.7289 3.2957 35.6174 4.89349 37.737 8.32379C38.97 10.3199 39.5631 12.8982 39.8404 15.6863C39.2237 16.054 38.8094 16.7261 38.8094 17.4961V26.4263C38.8094 27.4305 39.5121 28.2686 40.4517 28.4814C39.0882 29.3722 36.2666 30.2829 30.4255 30.2829C29.952 30.2829 29.4591 30.2769 28.9448 30.2645C28.6437 29.6865 28.0406 29.2909 27.3438 29.2909H24.767C23.7707 29.2909 22.9625 30.0985 22.9625 31.0949C22.9625 32.0912 23.7709 32.8985 24.767 32.8985H27.3438C27.9457 32.8985 28.4778 32.6027 28.805 32.1496C29.3478 32.1633 29.8792 32.1719 30.3927 32.1719C36.9777 32.1719 41.1641 31.048 42.8589 28.8178C42.9313 28.7228 42.9968 28.6283 43.0574 28.5346H44.0095C45.1736 28.5346 46.1171 27.5907 46.1171 26.4263V17.4961C46.1171 16.3321 45.1736 15.3881 44.0095 15.3881H42.8465C42.5196 12.0194 41.7943 9.15158 40.3029 6.73782C37.6178 2.39192 32.7757 0.279297 25.5002 0.279297C18.2244 0.279297 13.3825 2.39192 10.6972 6.73782C9.20582 9.15139 8.48084 12.019 8.15344 15.3881H6.99131C5.82693 15.3881 4.88281 16.3321 4.88281 17.4961V26.4263C4.883 27.5907 5.82712 28.5346 6.9915 28.5346Z" fill="#93DC66"/>
<path d="M6.9915 28.5346H10.0833C11.2473 28.5346 12.1909 27.5907 12.1909 26.4263V17.4961C12.1909 16.7182 11.7685 16.0407 11.1419 15.6754C11.8322 8.36281 14.6542 3.2957 25.5004 3.2957C31.7289 3.2957 35.6174 4.89349 37.737 8.32379C38.97 10.3199 39.5631 12.8982 39.8404 15.6863C39.2237 16.054 38.8094 16.7261 38.8094 17.4961V26.4263C38.8094 27.4305 39.5121 28.2686 40.4517 28.4814C39.0882 29.3722 36.2666 30.2829 30.4255 30.2829C29.952 30.2829 29.4591 30.2769 28.9448 30.2645C28.6437 29.6865 28.0406 29.2909 27.3438 29.2909H24.767C23.7707 29.2909 22.9625 30.0985 22.9625 31.0949C22.9625 32.0912 23.7709 32.8985 24.767 32.8985H27.3438C27.9457 32.8985 28.4778 32.6027 28.805 32.1496C29.3478 32.1633 29.8792 32.1719 30.3927 32.1719C36.9777 32.1719 41.1641 31.048 42.8589 28.8178C42.9313 28.7228 42.9968 28.6283 43.0574 28.5346H44.0095C45.1736 28.5346 46.1171 27.5907 46.1171 26.4263V17.4961C46.1171 16.3321 45.1736 15.3881 44.0095 15.3881H42.8465C42.5196 12.0194 41.7943 9.15158 40.3029 6.73782C37.6178 2.39192 32.7757 0.279297 25.5002 0.279297C18.2244 0.279297 13.3825 2.39192 10.6972 6.73782C9.20582 9.15139 8.48084 12.019 8.15344 15.3881H6.99131C5.82693 15.3881 4.88281 16.3321 4.88281 17.4961V26.4263C4.883 27.5907 5.82712 28.5346 6.9915 28.5346Z" fill="url(#paint0_linear)"/>
<path d="M13.328 28.4464C16.223 34.8396 22.4243 37.6224 25.5023 37.6224C27.5252 37.6224 30.8983 36.419 33.7946 33.7786C32.7357 33.8525 31.6036 33.89 30.3945 33.89C30.1114 33.89 29.8135 33.8876 29.4945 33.8823C28.8851 34.352 28.1299 34.6167 27.3457 34.6167H24.7689C22.8264 34.6167 21.2464 33.0369 21.2464 31.095C21.2464 29.153 22.8266 27.5728 24.7689 27.5728H27.3457C28.2763 27.5728 29.1472 27.9357 29.793 28.5614C30.0078 28.5638 30.2195 28.5649 30.4274 28.5649C33.7535 28.5649 35.9461 28.2599 37.3806 27.8919C37.1945 27.4392 37.0932 26.9437 37.0932 26.4264V17.496C37.0932 16.5669 37.4379 15.6764 38.0341 14.9886C37.7161 12.5118 37.1386 10.6211 36.2774 9.22673C34.5014 6.35236 31.0775 5.01367 25.5025 5.01367C20.8774 5.01367 17.6837 5.97373 15.7388 7.94883C14.2311 9.47983 13.3573 11.6647 12.9492 14.964C13.5584 15.6547 13.911 16.5541 13.911 17.4962V26.4264C13.9106 27.1683 13.695 27.8593 13.328 28.4464Z" fill="#7AC143"/>
<defs>
<linearGradient id="paint0_linear" x1="4.88281" y1="32.8772" x2="39.4288" y2="-5.70875" gradientUnits="userSpaceOnUse">
<stop stop-color="#FA709A"/>
<stop offset="1" stop-color="#FEE140"/>
</linearGradient>
</defs>
</svg>
