<svg width="42" height="64" viewBox="0 0 42 64" fill="none" xmlns="http://www.w3.org/2000/svg">
<path d="M35.625 64C38.7266 64 41.25 61.4766 41.25 58.375V5.625C41.25 2.52338 38.7266 0 35.625 0H5.625C2.52338 0 0 2.52338 0 5.625V58.375C0 61.4766 2.52338 64 5.625 64H35.625Z" fill="#7AC143"/>
<path fill-rule="evenodd" clip-rule="evenodd" d="M33.5018 23.5488C33.8042 23.7773 34.0366 24.0957 34.1581 24.4688C34.3786 25.1484 34.1947 25.8926 33.6837 26.3906L28.7646 31.1855L29.9259 37.957C30.0465 38.6602 29.7572 39.3711 29.1798 39.791C28.607 40.207 27.8421 40.2676 27.2052 39.9336L21.1249 36.7363L15.0445 39.9336C14.4128 40.2656 13.6474 40.2109 13.0699 39.791C12.4925 39.3711 12.2035 38.6602 12.3241 37.957L13.4853 31.1855L8.56626 26.3906C8.05527 25.8926 7.87119 25.1484 8.09189 24.4688C8.31235 23.791 8.89927 23.2949 9.60544 23.1934L16.4034 22.2051L19.4436 16.0449C19.7595 15.4043 20.4114 15 21.125 15C21.8386 15 22.4905 15.4043 22.8064 16.0449L25.8464 22.2051L32.6446 23.1934C32.9619 23.2383 33.2551 23.3633 33.5018 23.5488ZM24.9018 30.8496C24.7975 30.2402 24.9991 29.6191 25.4411 29.1895L28.3454 26.3574L24.3316 25.7754C23.7208 25.6855 23.193 25.3027 22.9198 24.748L21.1249 21.1113L19.3297 24.748C19.0566 25.3027 18.5287 25.6855 17.9179 25.7754L13.904 26.3574L16.8086 29.1895C17.2505 29.6191 17.4521 30.2402 17.3479 30.8496L16.6622 34.8457L20.2523 32.959C20.5255 32.8145 20.8252 32.7441 21.1249 32.7441C21.4244 32.7441 21.7242 32.8145 21.9973 32.959L25.5875 34.8457L24.9018 30.8496ZM13.625 48.668C14.6605 48.668 15.5 47.8281 15.5 46.793C15.5 45.7578 14.6605 44.918 13.625 44.918C12.5895 44.918 11.75 45.7578 11.75 46.793C11.75 47.8281 12.5895 48.668 13.625 48.668ZM23 46.793C23 47.8281 22.1605 48.668 21.125 48.668C20.0895 48.668 19.25 47.8281 19.25 46.793C19.25 45.7578 20.0895 44.918 21.125 44.918C22.1605 44.918 23 45.7578 23 46.793ZM30.5 46.793C30.5 47.8281 29.6605 48.668 28.625 48.668C27.5895 48.668 26.75 47.8281 26.75 46.793C26.75 45.7578 27.5895 44.918 28.625 44.918C29.6605 44.918 30.5 45.7578 30.5 46.793Z" fill="white"/>
<path fill-rule="evenodd" clip-rule="evenodd" d="M24.9001 30.8496C24.7958 30.2402 24.9974 29.6191 25.4395 29.1895L28.3438 26.3574L24.33 25.7754C23.7191 25.6855 23.1913 25.3027 22.9181 24.748L21.1232 21.1113L19.328 24.748C19.0549 25.3027 18.527 25.6855 17.9163 25.7754L13.9023 26.3574L16.8069 29.1895C17.2488 29.6191 17.4504 30.2402 17.3462 30.8496L16.6605 34.8457L20.2506 32.959C20.5238 32.8145 20.8235 32.7441 21.1232 32.7441C21.4227 32.7441 21.7225 32.8145 21.9956 32.959L25.5858 34.8457L24.9001 30.8496Z" fill="white"/>
<path fill-rule="evenodd" clip-rule="evenodd" d="M24.9001 30.8496C24.7958 30.2402 24.9974 29.6191 25.4395 29.1895L28.3438 26.3574L24.33 25.7754C23.7191 25.6855 23.1913 25.3027 22.9181 24.748L21.1232 21.1113L19.328 24.748C19.0549 25.3027 18.527 25.6855 17.9163 25.7754L13.9023 26.3574L16.8069 29.1895C17.2488 29.6191 17.4504 30.2402 17.3462 30.8496L16.6605 34.8457L20.2506 32.959C20.5238 32.8145 20.8235 32.7441 21.1232 32.7441C21.4227 32.7441 21.7225 32.8145 21.9956 32.959L25.5858 34.8457L24.9001 30.8496Z" fill="#93DC66"/>
<path fill-rule="evenodd" clip-rule="evenodd" d="M24.9001 30.8496C24.7958 30.2402 24.9974 29.6191 25.4395 29.1895L28.3438 26.3574L24.33 25.7754C23.7191 25.6855 23.1913 25.3027 22.9181 24.748L21.1232 21.1113L19.328 24.748C19.0549 25.3027 18.527 25.6855 17.9163 25.7754L13.9023 26.3574L16.8069 29.1895C17.2488 29.6191 17.4504 30.2402 17.3462 30.8496L16.6605 34.8457L20.2506 32.959C20.5238 32.8145 20.8235 32.7441 21.1232 32.7441C21.4227 32.7441 21.7225 32.8145 21.9956 32.959L25.5858 34.8457L24.9001 30.8496Z" fill="url(#paint0_linear)"/>
<defs>
<linearGradient id="paint0_linear" x1="13.9023" y1="34.8367" x2="28.4975" y2="21.2768" gradientUnits="userSpaceOnUse">
<stop stop-color="#FA709A"/>
<stop offset="1" stop-color="#FEE140"/>
</linearGradient>
</defs>
</svg>
