<svg width="48" height="49" viewBox="0 0 48 49" fill="none" xmlns="http://www.w3.org/2000/svg">
<circle cx="24" cy="24.4766" r="24" fill="#C4C4C4"/>
<circle cx="24" cy="24.4766" r="24" fill="url(#paint0_linear)"/>
<path d="M18.54 17.4766C18.6 18.3666 18.75 19.2366 18.99 20.0666L17.79 21.2666C17.38 20.0666 17.12 18.7966 17.03 17.4766H18.54ZM28.4 29.4966C29.25 29.7366 30.12 29.8866 31 29.9466V31.4366C29.68 31.3466 28.41 31.0866 27.2 30.6866L28.4 29.4966ZM19.5 15.4766H16C15.45 15.4766 15 15.9266 15 16.4766C15 25.8666 22.61 33.4766 32 33.4766C32.55 33.4766 33 33.0266 33 32.4766V28.9866C33 28.4366 32.55 27.9866 32 27.9866C30.76 27.9866 29.55 27.7866 28.43 27.4166C28.33 27.3766 28.22 27.3666 28.12 27.3666C27.86 27.3666 27.61 27.4666 27.41 27.6566L25.21 29.8566C22.38 28.4066 20.06 26.0966 18.62 23.2666L20.82 21.0666C21.1 20.7866 21.18 20.3966 21.07 20.0466C20.7 18.9266 20.5 17.7266 20.5 16.4766C20.5 15.9266 20.05 15.4766 19.5 15.4766Z" fill="white"/>
<defs>
<linearGradient id="paint0_linear" x1="0" y1="24.4766" x2="48" y2="24.4766" gradientUnits="userSpaceOnUse">
<stop stop-color="#F86390"/>
<stop offset="1" stop-color="#F4CF00"/>
</linearGradient>
</defs>
</svg>
