<svg width="87" height="87" viewBox="0 0 87 87" fill="none" xmlns="http://www.w3.org/2000/svg">
<path d="M80.5881 33.4301V21.9969L70.6866 16.2802L64.97 6.37872H53.5368L43.6351 0.662109L41.5859 43.8416L43.6351 86.0013L53.5368 80.2847H64.97L70.6866 70.3832L80.5881 64.6664V53.2331L86.3048 43.3316L80.5881 33.4301Z" fill="#FDAE02"/>
<path d="M80.5881 33.4301V21.9969L70.6866 16.2802L64.97 6.37872H53.5368L43.6351 0.662109L41.5859 43.8416L43.6351 86.0013L53.5368 80.2847H64.97L70.6866 70.3832L80.5881 64.6664V53.2331L86.3048 43.3316L80.5881 33.4301Z" fill="url(#paint0_linear)"/>
<path d="M33.7328 6.37872H22.2996L16.5832 16.2802L6.68146 21.9969V33.4301L0.964844 43.3316L6.68146 53.2331V64.6664L16.5832 70.3832L22.2996 80.2847H33.7328L43.6343 86.0013V0.662109L33.7328 6.37872Z" fill="#FDCB02"/>
<path d="M33.7328 6.37872H22.2996L16.5832 16.2802L6.68146 21.9969V33.4301L0.964844 43.3316L6.68146 53.2331V64.6664L16.5832 70.3832L22.2996 80.2847H33.7328L43.6343 86.0013V0.662109L33.7328 6.37872Z" fill="url(#paint1_linear)"/>
<path d="M40.6889 34.9841C40.6889 31.1444 37.565 28.0205 33.7253 28.0205C29.8854 28.0205 26.7617 31.1444 26.7617 34.9841C26.7617 38.8238 29.8856 41.9477 33.7253 41.9477C37.5652 41.9477 40.6889 38.8238 40.6889 34.9841ZM33.7253 37.3053C32.4454 37.3053 31.4041 36.264 31.4041 34.9841C31.4041 33.7042 32.4454 32.6629 33.7253 32.6629C35.0052 32.6629 36.0465 33.7042 36.0465 34.9841C36.0465 36.264 35.0054 37.3053 33.7253 37.3053Z" fill="#F9F9F9"/>
<path d="M53.5339 44.7969C49.694 44.7969 46.5703 47.9207 46.5703 51.7604C46.5703 55.6002 49.694 58.724 53.5339 58.724C57.3736 58.724 60.4975 55.6002 60.4975 51.7604C60.4975 47.9207 57.3738 44.7969 53.5339 44.7969ZM53.5339 54.0816C52.2538 54.0816 51.2127 53.0404 51.2127 51.7604C51.2127 50.4805 52.2538 49.4393 53.5339 49.4393C54.8138 49.4393 55.8551 50.4805 55.8551 51.7604C55.8551 53.0404 54.8139 54.0816 53.5339 54.0816Z" fill="#EAF1FF"/>
<path d="M53.1495 30.008L49.0313 27.8652L43.6293 38.2473L42.5078 45.5018L43.6293 48.3052L53.1495 30.008Z" fill="#EAF1FF"/>
<path d="M37.9933 59.1331L43.6282 48.303V38.2451L33.875 56.9903L37.9933 59.1331Z" fill="#F9F9F9"/>
<defs>
<linearGradient id="paint0_linear" x1="41.5859" y1="85.9454" x2="82.7688" y2="32.2456" gradientUnits="userSpaceOnUse">
<stop stop-color="#FA709A"/>
<stop offset="1" stop-color="#FEE140"/>
</linearGradient>
<linearGradient id="paint1_linear" x1="122.091" y1="63.6202" x2="81.0658" y2="-33.2581" gradientUnits="userSpaceOnUse">
<stop stop-color="#FA709A"/>
<stop offset="1" stop-color="#FEE140"/>
</linearGradient>
</defs>
</svg>
