<svg width="20" height="24" viewBox="0 0 20 24" fill="none" xmlns="http://www.w3.org/2000/svg">
<path fill-rule="evenodd" clip-rule="evenodd" d="M0.738281 12.5329V10.3122C0.738281 9.37925 1.5046 8.62309 2.44977 8.62309H7.5328C5.15257 8.62309 1.73094 6.34406 2.48097 3.92753C3.10694 1.90863 4.98529 0.887654 6.90553 0.899516C9.61653 0.91472 10.3186 6.52266 10.3186 6.52266H10.3914C10.3914 6.52266 11.0939 0.91472 13.8045 0.899516C15.7243 0.887654 17.6031 1.90863 18.229 3.92753C18.9787 6.34406 15.5574 8.62309 13.1781 8.62309H18.1879C19.1331 8.62309 19.8994 9.37925 19.8994 10.3122V12.5329H0.738281ZM15.7979 2.93779C15.7979 2.93779 15.714 5.69766 11.9561 7.75866C11.9561 7.75866 12.6663 4.21539 15.7979 2.93779ZM4.94377 2.93779C8.07449 4.21506 8.7843 7.75866 8.7843 7.75866C5.02723 5.69766 4.94377 2.93779 4.94377 2.93779ZM16.8805 23.4821H3.75719C2.84585 23.4821 2.10693 22.7081 2.10693 21.7533V13.9016H18.5308V21.7533C18.5308 22.7081 17.7919 23.4821 16.8805 23.4821Z" fill="white"/>
</svg>

