<svg width="1906" height="1923" viewBox="0 0 1906 1923" fill="none" xmlns="http://www.w3.org/2000/svg">
<path fill-rule="evenodd" clip-rule="evenodd" d="M1905.93 11.9231C1852.77 -7.01278 1723.8 -17.3205 1636.12 92.9356C1621.39 111.453 1606.99 130.844 1592.55 150.278C1499.53 275.493 1405.17 402.517 1214.99 309.298C1176.49 290.426 1139.27 271.158 1103.22 252.494C933.575 164.659 789.704 90.1703 658.593 132.948C651.331 135.317 644.339 137.603 637.596 139.808C496.742 185.857 464.836 196.288 356.944 188.274C243.887 179.876 118.488 207.539 0 281.142V672.373V1499.7C219.145 1655.22 326.061 1619.93 486.964 1530.57C624.416 1454.23 855.04 1583.74 1137.86 1742.57C1186.12 1769.67 1235.9 1797.62 1286.99 1825.55C1604.27 1998.99 1809.85 1900.26 1905.93 1825.55V594.112C1905.68 593.936 1906.18 593.761 1905.93 593.585V11.9231Z" fill="#F8F8F8"/>
<path fill-rule="evenodd" clip-rule="evenodd" d="M1905.93 11.9231C1852.77 -7.01278 1723.8 -17.3205 1636.12 92.9356C1621.39 111.453 1606.99 130.844 1592.55 150.278C1499.53 275.493 1405.17 402.517 1214.99 309.298C1176.49 290.426 1139.27 271.158 1103.22 252.494C933.575 164.659 789.704 90.1703 658.593 132.948C651.331 135.317 644.339 137.603 637.596 139.808C496.742 185.857 464.836 196.288 356.944 188.274C243.887 179.876 118.488 207.539 0 281.142V672.373V1499.7C219.145 1655.22 326.061 1619.93 486.964 1530.57C624.416 1454.23 855.04 1583.74 1137.86 1742.57C1186.12 1769.67 1235.9 1797.62 1286.99 1825.55C1604.27 1998.99 1809.85 1900.26 1905.93 1825.55V594.112C1905.68 593.936 1906.18 593.761 1905.93 593.585V11.9231Z" fill="url(#paint0_linear)"/>
<path fill-rule="evenodd" clip-rule="evenodd" d="M1905.93 11.9231C1852.77 -7.01278 1723.8 -17.3205 1636.12 92.9356C1621.39 111.453 1606.99 130.844 1592.55 150.278C1499.53 275.493 1405.17 402.517 1214.99 309.298C1176.49 290.426 1139.27 271.158 1103.22 252.494C933.575 164.659 789.704 90.1703 658.593 132.948C651.331 135.317 644.339 137.603 637.596 139.808C496.742 185.857 464.836 196.288 356.944 188.274C243.887 179.876 118.488 207.539 0 281.142V672.373V1499.7C219.145 1655.22 326.061 1619.93 486.964 1530.57C624.416 1454.23 855.04 1583.74 1137.86 1742.57C1186.12 1769.67 1235.9 1797.62 1286.99 1825.55C1604.27 1998.99 1809.85 1900.26 1905.93 1825.55V594.112C1905.68 593.936 1906.18 593.761 1905.93 593.585V11.9231Z" fill="url(#paint1_linear)"/>
<defs>
<linearGradient id="paint0_linear" x1="0" y1="1091.02" x2="1906" y2="1091.02" gradientUnits="userSpaceOnUse">
<stop stop-color="#EFF5F9"/>
<stop offset="1" stop-color="#F4FBFF"/>
</linearGradient>
<linearGradient id="paint1_linear" x1="0" y1="1091.02" x2="1906" y2="1091.02" gradientUnits="userSpaceOnUse">
<stop stop-color="#F3E7E7"/>
<stop offset="1" stop-color="#FFFCE3"/>
</linearGradient>
</defs>
</svg>
