<svg width="218" height="51" viewBox="0 0 218 51" fill="none" xmlns="http://www.w3.org/2000/svg">
<path d="M38.9974 0.387695H10.9467C4.90099 0.387695 0 5.28869 0 11.3344V39.3851C0 45.4309 4.90099 50.3319 10.9467 50.3319H38.9974C45.0432 50.3319 49.9442 45.4309 49.9442 39.3851V11.3344C49.9442 5.28869 45.0432 0.387695 38.9974 0.387695Z" fill="url(#paint0_linear)"/>
<path d="M6.8418 27.8112C6.8418 33.1311 11.168 37.4736 16.8085 37.4736C17.849 37.4736 18.7527 37.2838 19.3549 37.0395C20.0669 37.6909 21.0801 38.5324 21.874 39.1022C23.9551 40.5681 26.2277 41.4365 28.7193 41.4365C29.9515 41.4365 31.1015 41.2193 31.8408 41.0295V38.1252C31.129 38.3152 30.3897 38.3695 29.6777 38.3695C28.1717 38.3695 26.6111 37.9352 24.9134 36.9582C24.2289 36.5238 23.599 36.0623 22.942 35.5195C24.8038 34.1625 26.8301 31.4755 26.8301 27.8112C26.8301 22.4914 22.5039 18.1758 16.8085 18.1758C11.168 18.1758 6.8418 22.4914 6.8418 27.8112ZM10.8395 27.8112C10.8395 24.3371 13.5228 21.5143 16.8085 21.5143C20.1217 21.5143 22.8324 24.3371 22.8324 27.8112C22.8324 31.2854 20.1217 34.1081 16.8085 34.1081C13.5228 34.1081 10.8395 31.2854 10.8395 27.8112Z" fill="white"/>
<path d="M31.7673 30.0365H32.6709C32.8351 30.0365 32.9995 30.0365 33.1912 30.0095C34.3411 32.3164 36.7233 35.6549 37.928 37.1206H43.1032C40.7483 34.9765 38.6949 31.7737 36.559 29.3852C38.5304 28.7608 40.2554 27.2681 40.2554 24.3367C40.2554 20.9712 37.7912 18.5283 33.3006 18.5283H27.6875C27.7698 19.3426 27.8244 21.5411 27.8244 23.3867V32.3164C27.8244 34.1622 27.7698 36.2792 27.6875 37.1206H31.8768C31.7947 36.2792 31.7673 34.1622 31.7673 32.3164V30.0365ZM31.7673 21.6225H33.1091C35.2175 21.6225 36.2854 22.9797 36.2854 24.4452C36.2854 26.0739 35.0532 27.2409 33.2733 27.2409H31.7673V21.6225Z" fill="white"/>
<path d="M34.0367 0.387695C34.0367 0.387695 17.6174 9.11046 17.1043 28.4374C4.71071 20.6744 4.24655 7.48887 4.57175 2.439C4.97583 2.14354 5.5855 1.6802 7.29258 0.997365C8.80456 0.436469 10.5298 0.387695 10.5298 0.387695H34.0367Z" fill="url(#paint1_linear)"/>
<path d="M67.5742 25.1861C67.5742 30.9894 72.2412 35.7269 78.3262 35.7269C79.4486 35.7269 80.4234 35.5197 81.0732 35.2532C81.8412 35.9639 82.9341 36.8817 83.7908 37.5035C86.0356 39.1024 88.4873 40.0499 91.1753 40.0499C92.5046 40.0499 93.7451 39.813 94.5427 39.6058V36.4376C93.7748 36.6449 92.9771 36.7041 92.2092 36.7041C90.5845 36.7041 88.901 36.2303 87.0695 35.1643C86.331 34.6906 85.6517 34.1873 84.9427 33.5951C86.9514 32.1147 89.1372 29.1834 89.1372 25.1861C89.1372 19.3827 84.4702 14.6748 78.3262 14.6748C72.2412 14.6748 67.5742 19.3827 67.5742 25.1861ZM71.8867 25.1861C71.8867 21.3961 74.7816 18.3167 78.3262 18.3167C81.9003 18.3167 84.8246 21.3961 84.8246 25.1861C84.8246 28.9761 81.9003 32.0555 78.3262 32.0555C74.7816 32.0555 71.8867 28.9761 71.8867 25.1861Z" fill="#111111"/>
<path d="M96.176 29.3899V24.5932C96.176 23.7936 96.2351 22.4613 96.2941 21.6025H91.6271C91.3908 22.3132 91.0068 23.3496 90.6523 23.9417H92.0997V29.8931C92.0997 33.624 94.1083 35.6078 96.944 35.6078C98.7458 35.6078 99.9865 34.986 100.961 33.5351C100.991 34.305 101.168 34.9563 101.375 35.3413H105.333C105.008 34.6603 104.86 33.7128 104.86 32.2619V24.5932C104.86 23.7936 104.89 22.4613 104.978 21.6025H100.695C100.784 22.4613 100.813 23.7936 100.813 24.5932V29.3602C100.813 31.4921 99.632 32.3507 98.5096 32.3507C97.4757 32.3507 96.176 31.6697 96.176 29.3899Z" fill="#111111"/>
<path d="M112.614 24.5932C112.614 23.5271 112.643 22.254 112.702 21.6025H108.065C107.858 22.3132 107.444 23.4087 107.09 23.9417H108.537V32.3211C108.537 33.3575 108.478 34.7195 108.419 35.3413H112.702C112.643 34.7787 112.614 33.4167 112.614 32.3211V24.5932ZM108.331 17.3981C108.331 18.6417 109.305 19.6484 110.546 19.6484C111.787 19.6484 112.761 18.6417 112.761 17.3981C112.761 16.1248 111.787 15.1182 110.546 15.1182C109.305 15.1182 108.331 16.1248 108.331 17.3981Z" fill="#111111"/>
<path d="M119.101 28.5024C119.101 26.4889 120.666 24.8308 122.645 24.8308C124.063 24.8308 124.831 25.3045 125.511 25.956V21.6626C124.684 21.6331 123.709 21.3369 122.557 21.3369C118.244 21.3369 115.113 24.5348 115.113 28.5024C115.113 32.3812 118.215 35.5494 122.557 35.5494C124.034 35.5494 124.595 35.3421 125.629 35.2236V30.8711C124.979 31.5521 124.122 32.085 122.645 32.085C120.666 32.085 119.101 30.4566 119.101 28.5024Z" fill="#111111"/>
<path d="M132.412 16.5989C132.412 15.6514 132.442 14.2894 132.53 13.6084H127.834C127.656 14.2598 127.213 15.3554 126.918 15.9475H128.365V32.351C128.365 33.3281 128.336 34.6901 128.247 35.3416H132.53C132.471 34.6901 132.412 33.417 132.412 32.351V29.3308C136.016 33.7131 136.843 34.6901 137.286 35.3416H142.396C140.86 33.7723 140.122 32.9728 136.045 27.8801C139.265 23.4979 140.033 22.58 140.86 21.6028H136.577C136.075 22.4911 135.632 23.1721 132.412 27.5247V16.5989Z" fill="#111111"/>
<path d="M154.393 27.6139H155.369C155.546 27.6139 155.723 27.6139 155.93 27.5843C157.169 30.101 159.74 33.743 161.04 35.3419H166.622C164.082 33.0028 161.867 29.5089 159.562 26.9033C161.689 26.2223 163.551 24.5938 163.551 21.3959C163.551 17.7244 160.892 15.0596 156.047 15.0596H149.992C150.08 15.9479 150.141 18.3462 150.141 20.3596V30.101C150.141 32.1145 150.08 34.424 149.992 35.3419H154.512C154.423 34.424 154.393 32.1145 154.393 30.101V27.6139ZM154.393 18.4351H155.842C158.115 18.4351 159.267 19.9155 159.267 21.5144C159.267 23.291 157.938 24.5641 156.018 24.5641H154.393V18.4351Z" fill="#111111"/>
<path d="M179.521 29.2423C179.58 29.0645 179.609 28.5908 179.609 28.2059C179.609 24.8601 177.128 21.3662 173.052 21.3662C169.3 21.3662 166.406 24.4751 166.406 28.5021C166.406 32.4992 169.478 35.5786 173.732 35.5786C176.006 35.5786 177.128 34.9864 178.103 34.9272V31.4925C176.981 32.1735 175.976 32.3808 174.411 32.3808C172.313 32.3808 170.866 30.9891 170.541 29.2423H179.521ZM173.052 24.2975C174.469 24.2975 175.238 25.393 175.415 26.4886H170.483C170.866 25.1858 171.722 24.2975 173.052 24.2975Z" fill="#111111"/>
<path d="M185.485 25.1861C185.485 24.6235 185.839 24.1498 186.843 24.1498C187.67 24.1498 189.442 24.6532 190.093 25.571V21.8698C189.354 21.8107 188.143 21.3369 186.636 21.3369C183.299 21.3369 181.438 22.9062 181.438 25.5118C181.438 29.7459 186.607 29.9236 186.607 31.6705C186.607 32.322 186.105 32.7365 185.248 32.7365C184.036 32.7365 181.97 31.8483 181.172 30.8414V34.8979C181.97 34.9868 183.801 35.6975 185.514 35.6975C188.91 35.6975 190.683 33.8913 190.683 31.3745C190.683 26.9924 185.485 26.8443 185.485 25.1861Z" fill="#111111"/>
<path d="M193.801 17.9316C193.859 18.6423 193.889 19.6193 193.889 20.5965V21.6031H191.91V24.9489H193.889V30.3082C193.889 34.0391 196.164 35.5787 198.792 35.5787C199.856 35.5787 200.624 35.4011 201.185 35.4011V31.9072C200.978 32.1145 200.358 32.2033 199.945 32.2033C198.763 32.2033 197.936 31.4927 197.936 29.5088V24.9489H201.599V21.6031H197.936V20.5965C197.936 19.5898 197.965 18.6423 198.024 17.9316H193.801Z" fill="#111111"/>
<path d="M202.875 28.4728C202.875 32.3812 206.124 35.5494 210.14 35.5494C214.129 35.5494 217.407 32.3812 217.407 28.4728C217.407 24.5051 214.129 21.3369 210.14 21.3369C206.124 21.3369 202.875 24.5348 202.875 28.4728ZM206.744 28.4728C206.744 26.4593 208.22 24.8605 210.14 24.8605C212.002 24.8605 213.538 26.4593 213.538 28.4728C213.538 30.4566 212.002 32.0258 210.14 32.0258C208.22 32.0258 206.744 30.4566 206.744 28.4728Z" fill="#111111"/>
<defs>
<linearGradient id="paint0_linear" x1="24.9721" y1="0.387695" x2="24.9721" y2="50.3319" gradientUnits="userSpaceOnUse">
<stop stop-color="#FA154C"/>
<stop offset="1" stop-color="#FF001F"/>
</linearGradient>
<linearGradient id="paint1_linear" x1="19.2723" y1="0.387695" x2="19.2723" y2="28.4374" gradientUnits="userSpaceOnUse">
<stop stop-color="#00A3FF"/>
<stop offset="1" stop-color="#148EFF"/>
</linearGradient>
</defs>
</svg>
