<svg width="170" height="55" viewBox="0 0 170 55" fill="none" xmlns="http://www.w3.org/2000/svg">
<path d="M121.791 54.3034H114.909C110.587 54.3034 106.266 53.5031 103.545 50.4621C101.144 47.4211 100.344 43.0996 100.504 39.2583C100.504 33.8165 102.425 29.0149 106.106 25.3336C109.947 21.4923 113.148 20.372 118.11 20.2119H126.273L121.951 24.2133C121.951 24.2133 118.59 24.2133 117.79 24.2133C112.188 24.2133 110.267 26.6141 108.187 29.0149C105.626 32.0559 104.825 35.0969 104.825 38.9382C104.665 41.9793 105.306 45.6605 107.226 47.9013C108.667 49.8219 111.068 50.4621 113.468 50.4621C114.589 50.4621 122.111 50.4621 122.111 50.4621L121.791 54.3034Z" fill="#1D1D1B"/>
<path d="M149.964 26.9344L138.76 41.3393V41.6594L151.404 30.6156L155.566 26.9344L156.686 26.1341L163.728 19.892L163.568 18.7716L169.971 8.04803V7.88798L162.608 10.6089L158.767 15.5706L136.199 0.685547L149.964 26.9344Z" fill="#0C94FF"/>
<path d="M95.3867 19.8926L90.9052 54.3042H86.7438C86.7438 54.3042 89.7848 31.5765 90.1049 27.8953L71.8588 51.2632C69.7781 53.9841 67.3773 54.3042 64.8164 54.3042L69.2979 19.8926H73.4593L69.7781 47.2618L91.2253 19.8926H95.3867Z" fill="#1D1D1B"/>
<path d="M21.76 54.3042H14.8776C10.5562 54.3042 6.23472 53.5039 3.5138 50.4629C1.11299 47.4219 0.312722 43.1004 0.472776 39.2591C0.472776 33.8173 2.39342 29.0157 6.07466 25.3344C10.2361 21.173 13.4371 20.2127 18.3988 19.8926H26.5616L22.2401 24.054C22.2401 24.054 18.879 24.054 18.0787 24.054C12.4768 24.054 10.5562 26.4548 8.47547 28.8556C5.91461 31.7366 5.11434 34.7776 5.11434 38.6189C4.95429 41.6599 5.5945 45.3412 7.51515 47.5819C9.27574 49.3425 11.6766 49.9827 13.9173 50.1428C15.0377 50.1428 22.5602 50.1428 22.5602 50.1428L21.76 54.3042Z" fill="#1D1D1B"/>
<path d="M46.571 34.9374H36.0074L36.8077 28.2152C36.8077 28.2152 36.8077 28.2152 36.8077 28.0551L37.4479 23.7337H41.6093H53.2933L57.6147 19.5723H57.4547H33.9267L32.8063 26.9347L32.1661 31.7364L29.6053 52.2233L29.2852 54.304H45.4506C47.8514 54.304 49.2919 53.8238 51.2125 53.1836C54.4136 52.0632 57.4547 48.2219 57.4547 44.3806C57.7748 34.4573 49.9321 34.9374 46.571 34.9374ZM52.1729 48.0619C51.5327 48.7021 50.8924 49.1823 50.2522 49.5024C49.452 49.9825 48.4916 50.1426 47.6914 50.1426H34.0868L35.5273 38.7787H49.2919C50.7324 38.7787 51.8528 39.579 52.493 40.8594C53.9335 43.1002 53.6134 46.1412 52.1729 48.0619Z" fill="#1D1D1B"/>
</svg>
